<svg version="1.1" xmlns="http://www.w3.org/2000/svg" xmlns:xlink="http://www.w3.org/1999/xlink" width="644" height="779"><defs/><g><text fill="#eeeeee" stroke="none" font-family="Arial" font-size="24px" font-style="normal" font-weight="normal" text-decoration="none" x="0" y="0">UNREGISTERED</text><text fill="#eeeeee" stroke="none" font-family="Arial" font-size="24px" font-style="normal" font-weight="normal" text-decoration="none" x="0" y="30">UNREGISTERED</text><text fill="#eeeeee" stroke="none" font-family="Arial" font-size="24px" font-style="normal" font-weight="normal" text-decoration="none" x="0" y="60">UNREGISTERED</text><text fill="#eeeeee" stroke="none" font-family="Arial" font-size="24px" font-style="normal" font-weight="normal" text-decoration="none" x="0" y="90">UNREGISTERED</text><text fill="#eeeeee" stroke="none" font-family="Arial" font-size="24px" font-style="normal" font-weight="normal" text-decoration="none" x="0" y="120">UNREGISTERED</text><text fill="#eeeeee" stroke="none" font-family="Arial" font-size="24px" font-style="normal" font-weight="normal" text-decoration="none" x="0" y="150">UNREGISTERED</text><text fill="#eeeeee" stroke="none" font-family="Arial" font-size="24px" font-style="normal" font-weight="normal" text-decoration="none" x="0" y="180">UNREGISTERED</text><text fill="#eeeeee" stroke="none" font-family="Arial" font-size="24px" font-style="normal" font-weight="normal" text-decoration="none" x="0" y="210">UNREGISTERED</text><text fill="#eeeeee" stroke="none" font-family="Arial" font-size="24px" font-style="normal" font-weight="normal" text-decoration="none" x="0" y="240">UNREGISTERED</text><text fill="#eeeeee" stroke="none" font-family="Arial" font-size="24px" font-style="normal" font-weight="normal" text-decoration="none" x="0" y="270">UNREGISTERED</text><text fill="#eeeeee" stroke="none" font-family="Arial" font-size="24px" font-style="normal" font-weight="normal" text-decoration="none" x="0" y="300">UNREGISTERED</text><text fill="#eeeeee" stroke="none" font-family="Arial" font-size="24px" font-style="normal" font-weight="normal" text-decoration="none" x="0" y="330">UNREGISTERED</text><text fill="#eeeeee" stroke="none" font-family="Arial" font-size="24px" font-style="normal" font-weight="normal" text-decoration="none" x="0" y="360">UNREGISTERED</text><text fill="#eeeeee" stroke="none" font-family="Arial" font-size="24px" font-style="normal" font-weight="normal" text-decoration="none" x="0" y="390">UNREGISTERED</text><text fill="#eeeeee" stroke="none" font-family="Arial" font-size="24px" font-style="normal" font-weight="normal" text-decoration="none" x="0" y="420">UNREGISTERED</text><text fill="#eeeeee" stroke="none" font-family="Arial" font-size="24px" font-style="normal" font-weight="normal" text-decoration="none" x="0" y="450">UNREGISTERED</text><text fill="#eeeeee" stroke="none" font-family="Arial" font-size="24px" font-style="normal" font-weight="normal" text-decoration="none" x="0" y="480">UNREGISTERED</text><text fill="#eeeeee" stroke="none" font-family="Arial" font-size="24px" font-style="normal" font-weight="normal" text-decoration="none" x="0" y="510">UNREGISTERED</text><text fill="#eeeeee" stroke="none" font-family="Arial" font-size="24px" font-style="normal" font-weight="normal" text-decoration="none" x="0" y="540">UNREGISTERED</text><text fill="#eeeeee" stroke="none" font-family="Arial" font-size="24px" font-style="normal" font-weight="normal" text-decoration="none" x="0" y="570">UNREGISTERED</text><text fill="#eeeeee" stroke="none" font-family="Arial" font-size="24px" font-style="normal" font-weight="normal" text-decoration="none" x="0" y="600">UNREGISTERED</text><text fill="#eeeeee" stroke="none" font-family="Arial" font-size="24px" font-style="normal" font-weight="normal" text-decoration="none" x="0" y="630">UNREGISTERED</text><text fill="#eeeeee" stroke="none" font-family="Arial" font-size="24px" font-style="normal" font-weight="normal" text-decoration="none" x="0" y="660">UNREGISTERED</text><text fill="#eeeeee" stroke="none" font-family="Arial" font-size="24px" font-style="normal" font-weight="normal" text-decoration="none" x="0" y="690">UNREGISTERED</text><text fill="#eeeeee" stroke="none" font-family="Arial" font-size="24px" font-style="normal" font-weight="normal" text-decoration="none" x="0" y="720">UNREGISTERED</text><text fill="#eeeeee" stroke="none" font-family="Arial" font-size="24px" font-style="normal" font-weight="normal" text-decoration="none" x="0" y="750">UNREGISTERED</text><text fill="#eeeeee" stroke="none" font-family="Arial" font-size="24px" font-style="normal" font-weight="normal" text-decoration="none" x="200" y="0">UNREGISTERED</text><text fill="#eeeeee" stroke="none" font-family="Arial" font-size="24px" font-style="normal" font-weight="normal" text-decoration="none" x="200" y="30">UNREGISTERED</text><text fill="#eeeeee" stroke="none" font-family="Arial" font-size="24px" font-style="normal" font-weight="normal" text-decoration="none" x="200" y="60">UNREGISTERED</text><text fill="#eeeeee" stroke="none" font-family="Arial" font-size="24px" font-style="normal" font-weight="normal" text-decoration="none" x="200" y="90">UNREGISTERED</text><text fill="#eeeeee" stroke="none" font-family="Arial" font-size="24px" font-style="normal" font-weight="normal" text-decoration="none" x="200" y="120">UNREGISTERED</text><text fill="#eeeeee" stroke="none" font-family="Arial" font-size="24px" font-style="normal" font-weight="normal" text-decoration="none" x="200" y="150">UNREGISTERED</text><text fill="#eeeeee" stroke="none" font-family="Arial" font-size="24px" font-style="normal" font-weight="normal" text-decoration="none" x="200" y="180">UNREGISTERED</text><text fill="#eeeeee" stroke="none" font-family="Arial" font-size="24px" font-style="normal" font-weight="normal" text-decoration="none" x="200" y="210">UNREGISTERED</text><text fill="#eeeeee" stroke="none" font-family="Arial" font-size="24px" font-style="normal" font-weight="normal" text-decoration="none" x="200" y="240">UNREGISTERED</text><text fill="#eeeeee" stroke="none" font-family="Arial" font-size="24px" font-style="normal" font-weight="normal" text-decoration="none" x="200" y="270">UNREGISTERED</text><text fill="#eeeeee" stroke="none" font-family="Arial" font-size="24px" font-style="normal" font-weight="normal" text-decoration="none" x="200" y="300">UNREGISTERED</text><text fill="#eeeeee" stroke="none" font-family="Arial" font-size="24px" font-style="normal" font-weight="normal" text-decoration="none" x="200" y="330">UNREGISTERED</text><text fill="#eeeeee" stroke="none" font-family="Arial" font-size="24px" font-style="normal" font-weight="normal" text-decoration="none" x="200" y="360">UNREGISTERED</text><text fill="#eeeeee" stroke="none" font-family="Arial" font-size="24px" font-style="normal" font-weight="normal" text-decoration="none" x="200" y="390">UNREGISTERED</text><text fill="#eeeeee" stroke="none" font-family="Arial" font-size="24px" font-style="normal" font-weight="normal" text-decoration="none" x="200" y="420">UNREGISTERED</text><text fill="#eeeeee" stroke="none" font-family="Arial" font-size="24px" font-style="normal" font-weight="normal" text-decoration="none" x="200" y="450">UNREGISTERED</text><text fill="#eeeeee" stroke="none" font-family="Arial" font-size="24px" font-style="normal" font-weight="normal" text-decoration="none" x="200" y="480">UNREGISTERED</text><text fill="#eeeeee" stroke="none" font-family="Arial" font-size="24px" font-style="normal" font-weight="normal" text-decoration="none" x="200" y="510">UNREGISTERED</text><text fill="#eeeeee" stroke="none" font-family="Arial" font-size="24px" font-style="normal" font-weight="normal" text-decoration="none" x="200" y="540">UNREGISTERED</text><text fill="#eeeeee" stroke="none" font-family="Arial" font-size="24px" font-style="normal" font-weight="normal" text-decoration="none" x="200" y="570">UNREGISTERED</text><text fill="#eeeeee" stroke="none" font-family="Arial" font-size="24px" font-style="normal" font-weight="normal" text-decoration="none" x="200" y="600">UNREGISTERED</text><text fill="#eeeeee" stroke="none" font-family="Arial" font-size="24px" font-style="normal" font-weight="normal" text-decoration="none" x="200" y="630">UNREGISTERED</text><text fill="#eeeeee" stroke="none" font-family="Arial" font-size="24px" font-style="normal" font-weight="normal" text-decoration="none" x="200" y="660">UNREGISTERED</text><text fill="#eeeeee" stroke="none" font-family="Arial" font-size="24px" font-style="normal" font-weight="normal" text-decoration="none" x="200" y="690">UNREGISTERED</text><text fill="#eeeeee" stroke="none" font-family="Arial" font-size="24px" font-style="normal" font-weight="normal" text-decoration="none" x="200" y="720">UNREGISTERED</text><text fill="#eeeeee" stroke="none" font-family="Arial" font-size="24px" font-style="normal" font-weight="normal" text-decoration="none" x="200" y="750">UNREGISTERED</text><text fill="#eeeeee" stroke="none" font-family="Arial" font-size="24px" font-style="normal" font-weight="normal" text-decoration="none" x="400" y="0">UNREGISTERED</text><text fill="#eeeeee" stroke="none" font-family="Arial" font-size="24px" font-style="normal" font-weight="normal" text-decoration="none" x="400" y="30">UNREGISTERED</text><text fill="#eeeeee" stroke="none" font-family="Arial" font-size="24px" font-style="normal" font-weight="normal" text-decoration="none" x="400" y="60">UNREGISTERED</text><text fill="#eeeeee" stroke="none" font-family="Arial" font-size="24px" font-style="normal" font-weight="normal" text-decoration="none" x="400" y="90">UNREGISTERED</text><text fill="#eeeeee" stroke="none" font-family="Arial" font-size="24px" font-style="normal" font-weight="normal" text-decoration="none" x="400" y="120">UNREGISTERED</text><text fill="#eeeeee" stroke="none" font-family="Arial" font-size="24px" font-style="normal" font-weight="normal" text-decoration="none" x="400" y="150">UNREGISTERED</text><text fill="#eeeeee" stroke="none" font-family="Arial" font-size="24px" font-style="normal" font-weight="normal" text-decoration="none" x="400" y="180">UNREGISTERED</text><text fill="#eeeeee" stroke="none" font-family="Arial" font-size="24px" font-style="normal" font-weight="normal" text-decoration="none" x="400" y="210">UNREGISTERED</text><text fill="#eeeeee" stroke="none" font-family="Arial" font-size="24px" font-style="normal" font-weight="normal" text-decoration="none" x="400" y="240">UNREGISTERED</text><text fill="#eeeeee" stroke="none" font-family="Arial" font-size="24px" font-style="normal" font-weight="normal" text-decoration="none" x="400" y="270">UNREGISTERED</text><text fill="#eeeeee" stroke="none" font-family="Arial" font-size="24px" font-style="normal" font-weight="normal" text-decoration="none" x="400" y="300">UNREGISTERED</text><text fill="#eeeeee" stroke="none" font-family="Arial" font-size="24px" font-style="normal" font-weight="normal" text-decoration="none" x="400" y="330">UNREGISTERED</text><text fill="#eeeeee" stroke="none" font-family="Arial" font-size="24px" font-style="normal" font-weight="normal" text-decoration="none" x="400" y="360">UNREGISTERED</text><text fill="#eeeeee" stroke="none" font-family="Arial" font-size="24px" font-style="normal" font-weight="normal" text-decoration="none" x="400" y="390">UNREGISTERED</text><text fill="#eeeeee" stroke="none" font-family="Arial" font-size="24px" font-style="normal" font-weight="normal" text-decoration="none" x="400" y="420">UNREGISTERED</text><text fill="#eeeeee" stroke="none" font-family="Arial" font-size="24px" font-style="normal" font-weight="normal" text-decoration="none" x="400" y="450">UNREGISTERED</text><text fill="#eeeeee" stroke="none" font-family="Arial" font-size="24px" font-style="normal" font-weight="normal" text-decoration="none" x="400" y="480">UNREGISTERED</text><text fill="#eeeeee" stroke="none" font-family="Arial" font-size="24px" font-style="normal" font-weight="normal" text-decoration="none" x="400" y="510">UNREGISTERED</text><text fill="#eeeeee" stroke="none" font-family="Arial" font-size="24px" font-style="normal" font-weight="normal" text-decoration="none" x="400" y="540">UNREGISTERED</text><text fill="#eeeeee" stroke="none" font-family="Arial" font-size="24px" font-style="normal" font-weight="normal" text-decoration="none" x="400" y="570">UNREGISTERED</text><text fill="#eeeeee" stroke="none" font-family="Arial" font-size="24px" font-style="normal" font-weight="normal" text-decoration="none" x="400" y="600">UNREGISTERED</text><text fill="#eeeeee" stroke="none" font-family="Arial" font-size="24px" font-style="normal" font-weight="normal" text-decoration="none" x="400" y="630">UNREGISTERED</text><text fill="#eeeeee" stroke="none" font-family="Arial" font-size="24px" font-style="normal" font-weight="normal" text-decoration="none" x="400" y="660">UNREGISTERED</text><text fill="#eeeeee" stroke="none" font-family="Arial" font-size="24px" font-style="normal" font-weight="normal" text-decoration="none" x="400" y="690">UNREGISTERED</text><text fill="#eeeeee" stroke="none" font-family="Arial" font-size="24px" font-style="normal" font-weight="normal" text-decoration="none" x="400" y="720">UNREGISTERED</text><text fill="#eeeeee" stroke="none" font-family="Arial" font-size="24px" font-style="normal" font-weight="normal" text-decoration="none" x="400" y="750">UNREGISTERED</text><text fill="#eeeeee" stroke="none" font-family="Arial" font-size="24px" font-style="normal" font-weight="normal" text-decoration="none" x="600" y="0">UNREGISTERED</text><text fill="#eeeeee" stroke="none" font-family="Arial" font-size="24px" font-style="normal" font-weight="normal" text-decoration="none" x="600" y="30">UNREGISTERED</text><text fill="#eeeeee" stroke="none" font-family="Arial" font-size="24px" font-style="normal" font-weight="normal" text-decoration="none" x="600" y="60">UNREGISTERED</text><text fill="#eeeeee" stroke="none" font-family="Arial" font-size="24px" font-style="normal" font-weight="normal" text-decoration="none" x="600" y="90">UNREGISTERED</text><text fill="#eeeeee" stroke="none" font-family="Arial" font-size="24px" font-style="normal" font-weight="normal" text-decoration="none" x="600" y="120">UNREGISTERED</text><text fill="#eeeeee" stroke="none" font-family="Arial" font-size="24px" font-style="normal" font-weight="normal" text-decoration="none" x="600" y="150">UNREGISTERED</text><text fill="#eeeeee" stroke="none" font-family="Arial" font-size="24px" font-style="normal" font-weight="normal" text-decoration="none" x="600" y="180">UNREGISTERED</text><text fill="#eeeeee" stroke="none" font-family="Arial" font-size="24px" font-style="normal" font-weight="normal" text-decoration="none" x="600" y="210">UNREGISTERED</text><text fill="#eeeeee" stroke="none" font-family="Arial" font-size="24px" font-style="normal" font-weight="normal" text-decoration="none" x="600" y="240">UNREGISTERED</text><text fill="#eeeeee" stroke="none" font-family="Arial" font-size="24px" font-style="normal" font-weight="normal" text-decoration="none" x="600" y="270">UNREGISTERED</text><text fill="#eeeeee" stroke="none" font-family="Arial" font-size="24px" font-style="normal" font-weight="normal" text-decoration="none" x="600" y="300">UNREGISTERED</text><text fill="#eeeeee" stroke="none" font-family="Arial" font-size="24px" font-style="normal" font-weight="normal" text-decoration="none" x="600" y="330">UNREGISTERED</text><text fill="#eeeeee" stroke="none" font-family="Arial" font-size="24px" font-style="normal" font-weight="normal" text-decoration="none" x="600" y="360">UNREGISTERED</text><text fill="#eeeeee" stroke="none" font-family="Arial" font-size="24px" font-style="normal" font-weight="normal" text-decoration="none" x="600" y="390">UNREGISTERED</text><text fill="#eeeeee" stroke="none" font-family="Arial" font-size="24px" font-style="normal" font-weight="normal" text-decoration="none" x="600" y="420">UNREGISTERED</text><text fill="#eeeeee" stroke="none" font-family="Arial" font-size="24px" font-style="normal" font-weight="normal" text-decoration="none" x="600" y="450">UNREGISTERED</text><text fill="#eeeeee" stroke="none" font-family="Arial" font-size="24px" font-style="normal" font-weight="normal" text-decoration="none" x="600" y="480">UNREGISTERED</text><text fill="#eeeeee" stroke="none" font-family="Arial" font-size="24px" font-style="normal" font-weight="normal" text-decoration="none" x="600" y="510">UNREGISTERED</text><text fill="#eeeeee" stroke="none" font-family="Arial" font-size="24px" font-style="normal" font-weight="normal" text-decoration="none" x="600" y="540">UNREGISTERED</text><text fill="#eeeeee" stroke="none" font-family="Arial" font-size="24px" font-style="normal" font-weight="normal" text-decoration="none" x="600" y="570">UNREGISTERED</text><text fill="#eeeeee" stroke="none" font-family="Arial" font-size="24px" font-style="normal" font-weight="normal" text-decoration="none" x="600" y="600">UNREGISTERED</text><text fill="#eeeeee" stroke="none" font-family="Arial" font-size="24px" font-style="normal" font-weight="normal" text-decoration="none" x="600" y="630">UNREGISTERED</text><text fill="#eeeeee" stroke="none" font-family="Arial" font-size="24px" font-style="normal" font-weight="normal" text-decoration="none" x="600" y="660">UNREGISTERED</text><text fill="#eeeeee" stroke="none" font-family="Arial" font-size="24px" font-style="normal" font-weight="normal" text-decoration="none" x="600" y="690">UNREGISTERED</text><text fill="#eeeeee" stroke="none" font-family="Arial" font-size="24px" font-style="normal" font-weight="normal" text-decoration="none" x="600" y="720">UNREGISTERED</text><text fill="#eeeeee" stroke="none" font-family="Arial" font-size="24px" font-style="normal" font-weight="normal" text-decoration="none" x="600" y="750">UNREGISTERED</text><g transform="translate(-6,-7) scale(1,1)"><rect fill="#C0C0C0" stroke="none" x="33" y="24" width="614" height="759" opacity="0.2"/></g><g transform="translate(-6,-7) scale(1,1)"><rect fill="#ffd456" stroke="none" x="26" y="17" width="614" height="759"/></g><g transform="translate(-6,-7) scale(1,1)"><path fill="none" stroke="#000000" d="M 26 17 L 640 17 L 640 776 L 26 776 L 26 17 Z Z" stroke-miterlimit="10"/></g><g transform="translate(-6,-7) scale(1,1)"><rect fill="#ffd456" stroke="none" x="16" y="24" width="20" height="10"/></g><g transform="translate(-6,-7) scale(1,1)"><path fill="none" stroke="#000000" d="M 16 24 L 36 24 L 36 34 L 16 34 L 16 24 Z Z" stroke-miterlimit="10"/></g><g transform="translate(-6,-7) scale(1,1)"><rect fill="#ffd456" stroke="none" x="16" y="44" width="20" height="10"/></g><g transform="translate(-6,-7) scale(1,1)"><path fill="none" stroke="#000000" d="M 16 44 L 36 44 L 36 54 L 16 54 L 16 44 Z Z" stroke-miterlimit="10"/></g><g transform="translate(-6,-7) scale(1,1)"><g><path fill="none" stroke="none"/><text fill="#000000" stroke="none" font-family="Arial" font-size="13px" font-style="normal" font-weight="bold" text-decoration="none" x="313.444091796875" y="34.5">OGROD</text></g></g><g transform="translate(-6,-7) scale(1,1)"><rect fill="#C0C0C0" stroke="none" x="329" y="55" width="286" height="280" opacity="0.2"/></g><g transform="translate(-6,-7) scale(1,1)"><rect fill="#00967d" stroke="none" x="322" y="48" width="286" height="280"/></g><g transform="translate(-6,-7) scale(1,1)"><path fill="none" stroke="#000000" d="M 322 48 L 608 48 L 608 328 L 322 328 L 322 48 Z Z" stroke-miterlimit="10"/></g><g transform="translate(-6,-7) scale(1,1)"><rect fill="#00967d" stroke="none" x="312" y="55" width="20" height="10"/></g><g transform="translate(-6,-7) scale(1,1)"><path fill="none" stroke="#000000" d="M 312 55 L 332 55 L 332 65 L 312 65 L 312 55 Z Z" stroke-miterlimit="10"/></g><g transform="translate(-6,-7) scale(1,1)"><rect fill="#00967d" stroke="none" x="312" y="75" width="20" height="10"/></g><g transform="translate(-6,-7) scale(1,1)"><path fill="none" stroke="#000000" d="M 312 75 L 332 75 L 332 85 L 312 85 L 312 75 Z Z" stroke-miterlimit="10"/></g><g transform="translate(-6,-7) scale(1,1)"><g><path fill="none" stroke="none"/><text fill="#000000" stroke="none" font-family="Arial" font-size="13px" font-style="normal" font-weight="bold" text-decoration="none" x="429.552734375" y="65.5">insertModule</text></g></g><g transform="translate(-6,-7) scale(1,1)"><g><path fill="none" stroke="none"/><text fill="#000000" stroke="none" font-family="Arial" font-size="13px" font-style="normal" font-weight="normal" text-decoration="none" x="426.30908203125" y="80.5">(from OGROD)</text></g></g><g transform="translate(-6,-7) scale(1,1)"><path fill="#C0C0C0" stroke="none" d="M 456.34814453125 370.5 C 456.34814453125 364.1487248 461.49686933125 359 467.84814453125 359 C 474.19941973125 359 479.34814453125 364.1487248 479.34814453125 370.5 C 479.34814453125 376.8512752 474.19941973125 382 467.84814453125 382 C 461.49686933125 382 456.34814453125 376.8512752 456.34814453125 370.5 Z" opacity="0.2"/></g><g transform="translate(-6,-7) scale(1,1)"><path fill="none" stroke="#000000" d="M 448.5 363 A 11.5 11.5 0 0 1 471.5 363" stroke-miterlimit="10"/></g><g transform="translate(-6,-7) scale(1,1)"><path fill="#ffffff" stroke="none" d="M 452.34814453125 363.5 C 452.34814453125 358.8055792 456.15372373125 355 460.84814453125 355 C 465.54256533125 355 469.34814453125 358.8055792 469.34814453125 363.5 C 469.34814453125 368.1944208 465.54256533125 372 460.84814453125 372 C 456.15372373125 372 452.34814453125 368.1944208 452.34814453125 363.5 Z"/></g><g transform="translate(-6,-7) scale(1,1)"><path fill="none" stroke="#000000" d="M 452.34814453125 363.5 C 452.34814453125 358.8055792 456.15372373125 355 460.84814453125 355 C 465.54256533125 355 469.34814453125 358.8055792 469.34814453125 363.5 C 469.34814453125 368.1944208 465.54256533125 372 460.84814453125 372 C 456.15372373125 372 452.34814453125 368.1944208 452.34814453125 363.5 Z" stroke-miterlimit="10"/></g><g transform="translate(-6,-7) scale(1,1)"><g><path fill="none" stroke="none"/><text fill="#000000" stroke="none" font-family="Arial" font-size="13px" font-style="normal" font-weight="bold" text-decoration="none" x="449.647705078125" y="392.5">Jpa</text></g></g><g transform="translate(-6,-7) scale(1,1)"><g><path fill="none" stroke="none"/><text fill="#000000" stroke="none" font-family="Arial" font-size="13px" font-style="normal" font-weight="normal" text-decoration="none" x="404.5" y="407.5">(from insertModule)</text></g></g><g transform="translate(-6,-7) scale(1,1)"><path fill="none" stroke="#000000" d="M 460 329 L 460 352" stroke-miterlimit="10"/></g><g transform="translate(-6,-7) scale(1,1)"><rect fill="#C0C0C0" stroke="none" x="337" y="431" width="270" height="72" opacity="0.2"/></g><g transform="translate(-6,-7) scale(1,1)"><rect fill="#2b2bff" stroke="none" x="330" y="424" width="270" height="72"/></g><g transform="translate(-6,-7) scale(1,1)"><path fill="none" stroke="#000000" d="M 330 424 L 600 424 L 600 496 L 330 496 L 330 424 Z Z" stroke-miterlimit="10"/></g><g transform="translate(-6,-7) scale(1,1)"><rect fill="#2b2bff" stroke="none" x="320" y="431" width="20" height="10"/></g><g transform="translate(-6,-7) scale(1,1)"><path fill="none" stroke="#000000" d="M 320 431 L 340 431 L 340 441 L 320 441 L 320 431 Z Z" stroke-miterlimit="10"/></g><g transform="translate(-6,-7) scale(1,1)"><rect fill="#2b2bff" stroke="none" x="320" y="451" width="20" height="10"/></g><g transform="translate(-6,-7) scale(1,1)"><path fill="none" stroke="#000000" d="M 320 451 L 340 451 L 340 461 L 320 461 L 320 451 Z Z" stroke-miterlimit="10"/></g><g transform="translate(-6,-7) scale(1,1)"><g><path fill="none" stroke="none"/><text fill="#000000" stroke="none" font-family="Arial" font-size="13px" font-style="normal" font-weight="normal" text-decoration="none" x="438.925048828125" y="439.5">«External»</text></g></g><g transform="translate(-6,-7) scale(1,1)"><g><path fill="none" stroke="none"/><text fill="#000000" stroke="none" font-family="Arial" font-size="13px" font-style="normal" font-weight="bold" text-decoration="none" x="440.02001953125" y="454.5">Hibernate</text></g></g><g transform="translate(-6,-7) scale(1,1)"><g><path fill="none" stroke="none"/><text fill="#000000" stroke="none" font-family="Arial" font-size="13px" font-style="normal" font-weight="normal" text-decoration="none" x="426.30908203125" y="469.5">(from OGROD)</text></g></g><g transform="translate(-6,-7) scale(1,1)"><rect fill="#C0C0C0" stroke="none" x="417" y="599" width="106.3818359375" height="44" opacity="0.2"/></g><g transform="translate(-6,-7) scale(1,1)"><rect fill="#91ffec" stroke="none" x="410" y="592" width="106.3818359375" height="44"/></g><g transform="translate(-6,-7) scale(1,1)"><path fill="none" stroke="#000000" d="M 410 592 L 516.3818359375 592 L 516.3818359375 636 L 410 636 L 410 592 Z Z" stroke-miterlimit="10"/></g><g transform="translate(-6,-7) scale(1,1)"><rect fill="#91ffec" stroke="none" x="400" y="599" width="20" height="10"/></g><g transform="translate(-6,-7) scale(1,1)"><path fill="none" stroke="#000000" d="M 400 599 L 420 599 L 420 609 L 400 609 L 400 599 Z Z" stroke-miterlimit="10"/></g><g transform="translate(-6,-7) scale(1,1)"><rect fill="#91ffec" stroke="none" x="400" y="619" width="20" height="10"/></g><g transform="translate(-6,-7) scale(1,1)"><path fill="none" stroke="#000000" d="M 400 619 L 420 619 L 420 629 L 400 629 L 400 619 Z Z" stroke-miterlimit="10"/></g><g transform="translate(-6,-7) scale(1,1)"><g><path fill="none" stroke="none"/><text fill="#000000" stroke="none" font-family="Arial" font-size="13px" font-style="normal" font-weight="bold" text-decoration="none" x="428.813232421875" y="609.5">JDBC_driver</text></g></g><g transform="translate(-6,-7) scale(1,1)"><g><path fill="none" stroke="none"/><text fill="#000000" stroke="none" font-family="Arial" font-size="13px" font-style="normal" font-weight="normal" text-decoration="none" x="424.5" y="624.5">(from OGROD)</text></g></g><g transform="translate(-6,-7) scale(1,1)"><path fill="#C0C0C0" stroke="none" d="M 452.976806640625 538.5 C 452.976806640625 532.1487248 458.125531440625 527 464.476806640625 527 C 470.828081840625 527 475.976806640625 532.1487248 475.976806640625 538.5 C 475.976806640625 544.8512752 470.828081840625 550 464.476806640625 550 C 458.125531440625 550 452.976806640625 544.8512752 452.976806640625 538.5 Z" opacity="0.2"/></g><g transform="translate(-6,-7) scale(1,1)"><path fill="none" stroke="#000000" d="M 445.53972378018386 530.044976981682 A 11.5 11.5 0 0 1 468.46027621981614 531.955023018318" stroke-miterlimit="10"/></g><g transform="translate(-6,-7) scale(1,1)"><path fill="#ffffff" stroke="none" d="M 448.976806640625 531.5 C 448.976806640625 526.8055792 452.782385840625 523 457.476806640625 523 C 462.171227440625 523 465.976806640625 526.8055792 465.976806640625 531.5 C 465.976806640625 536.1944208 462.171227440625 540 457.476806640625 540 C 452.782385840625 540 448.976806640625 536.1944208 448.976806640625 531.5 Z"/></g><g transform="translate(-6,-7) scale(1,1)"><path fill="none" stroke="#000000" d="M 448.976806640625 531.5 C 448.976806640625 526.8055792 452.782385840625 523 457.476806640625 523 C 462.171227440625 523 465.976806640625 526.8055792 465.976806640625 531.5 C 465.976806640625 536.1944208 462.171227440625 540 457.476806640625 540 C 452.782385840625 540 448.976806640625 536.1944208 448.976806640625 531.5 Z" stroke-miterlimit="10"/></g><g transform="translate(-6,-7) scale(1,1)"><g><path fill="none" stroke="none"/><text fill="#000000" stroke="none" font-family="Arial" font-size="13px" font-style="normal" font-weight="bold" text-decoration="none" x="442.305908203125" y="560.5">Jdbc</text></g></g><g transform="translate(-6,-7) scale(1,1)"><g><path fill="none" stroke="none"/><text fill="#000000" stroke="none" font-family="Arial" font-size="13px" font-style="normal" font-weight="normal" text-decoration="none" x="413.785888671875" y="575.5">(from OGROD)</text></g></g><g transform="translate(-6,-7) scale(1,1)"><path fill="none" stroke="#000000" d="M 460 423 L 460 375" stroke-miterlimit="10"/></g><g transform="translate(-6,-7) scale(1,1)"><path fill="none" stroke="#000000" d="M 459 497 L 457.9166666666667 520" stroke-miterlimit="10"/></g><g transform="translate(-6,-7) scale(1,1)"><path fill="none" stroke="#000000" d="M 458 591 L 457.22641509433964 543" stroke-miterlimit="10"/></g><g transform="translate(-6,-7) scale(1,1)"><rect fill="#C0C0C0" stroke="none" x="417" y="687" width="98.44091796875" height="44" opacity="0.2"/></g><g transform="translate(-6,-7) scale(1,1)"><rect fill="#ff00ff" stroke="none" x="410" y="680" width="98.44091796875" height="44"/></g><g transform="translate(-6,-7) scale(1,1)"><path fill="none" stroke="#000000" d="M 410 680 L 508.44091796875 680 L 508.44091796875 724 L 410 724 L 410 680 Z Z" stroke-miterlimit="10"/></g><g transform="translate(-6,-7) scale(1,1)"><rect fill="#ff00ff" stroke="none" x="400" y="687" width="20" height="10"/></g><g transform="translate(-6,-7) scale(1,1)"><path fill="none" stroke="#000000" d="M 400 687 L 420 687 L 420 697 L 400 697 L 400 687 Z Z" stroke-miterlimit="10"/></g><g transform="translate(-6,-7) scale(1,1)"><rect fill="#ff00ff" stroke="none" x="400" y="707" width="20" height="10"/></g><g transform="translate(-6,-7) scale(1,1)"><path fill="none" stroke="#000000" d="M 400 707 L 420 707 L 420 717 L 400 717 L 400 707 Z Z" stroke-miterlimit="10"/></g><g transform="translate(-6,-7) scale(1,1)"><g><path fill="none" stroke="none"/><text fill="#000000" stroke="none" font-family="Arial" font-size="13px" font-style="normal" font-weight="normal" text-decoration="none" x="430.24462890625" y="695.5">«database»</text></g></g><g transform="translate(-6,-7) scale(1,1)"><g><path fill="none" stroke="none"/><text fill="#000000" stroke="none" font-family="Arial" font-size="13px" font-style="normal" font-weight="bold" text-decoration="none" x="436.0400390625" y="710.5">database</text></g></g><g transform="translate(-6,-7) scale(1,1)"><path fill="none" stroke="#000000" d="M 457 637 L 455 679" stroke-miterlimit="10" stroke-dasharray="3"/></g><g transform="translate(-6,-7) scale(1,1)"><path fill="none" stroke="#000000" d="M 451.2786359863939 668.6486015496341 L 455 679 L 459.68814230973317 669.0490542316979" stroke-miterlimit="10"/></g><g transform="translate(-6,-7) scale(1,1)"><path fill="#ffff49" stroke="none" d="M 168 368 L 242.47900390625 368 L 252.47900390625 378 L 252.47900390625 417 L 168 417 L 168 368"/></g><g transform="translate(-6,-7) scale(1,1)"><path fill="none" stroke="#000000" d="M 168 368 L 242.47900390625 368 L 252.47900390625 378 L 252.47900390625 417 L 168 417 L 168 368 L 168 368" stroke-miterlimit="10"/></g><g transform="translate(-6,-7) scale(1,1)"><path fill="none" stroke="#000000" d="M 242.47900390625 368 L 242.47900390625 378 L 252.47900390625 378 L 242.47900390625 368" stroke-miterlimit="10"/></g><g transform="translate(-6,-7) scale(1,1)"><g><path fill="none" stroke="none"/><text fill="#000000" stroke="none" font-family="Arial" font-size="13px" font-style="normal" font-weight="normal" text-decoration="none" x="173" y="382">Composant</text><text fill="#000000" stroke="none" font-family="Arial" font-size="13px" font-style="normal" font-weight="normal" text-decoration="none" x="173" y="395">à développer</text></g></g><g transform="translate(-6,-7) scale(1,1)"><path fill="none" stroke="#000000" d="M 312 256 L 224 256 M 224 256 A 8 8 0 0 0 216 264 L 216 368" stroke-miterlimit="10" stroke-dasharray="3"/></g><g transform="translate(-6,-7) scale(1,1)"><path fill="#C0C0C0" stroke="none" d="M 213.8681640625 130.5 C 213.8681640625 124.1487248 219.0168888625 119 225.3681640625 119 C 231.7194392625 119 236.8681640625 124.1487248 236.8681640625 130.5 C 236.8681640625 136.8512752 231.7194392625 142 225.3681640625 142 C 219.0168888625 142 213.8681640625 136.8512752 213.8681640625 130.5 Z" opacity="0.2"/></g><g transform="translate(-6,-7) scale(1,1)"><path fill="#ffffff" stroke="none" d="M 206.8681640625 123.5 C 206.8681640625 117.1487248 212.0168888625 112 218.3681640625 112 C 224.7194392625 112 229.8681640625 117.1487248 229.8681640625 123.5 C 229.8681640625 129.8512752 224.7194392625 135 218.3681640625 135 C 212.0168888625 135 206.8681640625 129.8512752 206.8681640625 123.5 Z"/></g><g transform="translate(-6,-7) scale(1,1)"><path fill="none" stroke="#000000" d="M 206.8681640625 123.5 C 206.8681640625 117.1487248 212.0168888625 112 218.3681640625 112 C 224.7194392625 112 229.8681640625 117.1487248 229.8681640625 123.5 C 229.8681640625 129.8512752 224.7194392625 135 218.3681640625 135 C 212.0168888625 135 206.8681640625 129.8512752 206.8681640625 123.5 Z" stroke-miterlimit="10"/></g><g transform="translate(-6,-7) scale(1,1)"><g><path fill="none" stroke="none"/><text fill="#000000" stroke="none" font-family="Arial" font-size="13px" font-style="normal" font-weight="bold" text-decoration="none" x="172.5" y="152.5">I_InsertModule</text></g></g><g transform="translate(-6,-7) scale(1,1)"><path fill="none" stroke="#000000" d="M 312 123 L 229.8681640625 123" stroke-miterlimit="10"/></g></g></svg>