<svg version="1.1" xmlns="http://www.w3.org/2000/svg" xmlns:xlink="http://www.w3.org/1999/xlink" width="1156" height="644"><defs/><g><text fill="#eeeeee" stroke="none" font-family="Arial" font-size="24px" font-style="normal" font-weight="normal" text-decoration="none" x="0" y="0">UNREGISTERED</text><text fill="#eeeeee" stroke="none" font-family="Arial" font-size="24px" font-style="normal" font-weight="normal" text-decoration="none" x="0" y="30">UNREGISTERED</text><text fill="#eeeeee" stroke="none" font-family="Arial" font-size="24px" font-style="normal" font-weight="normal" text-decoration="none" x="0" y="60">UNREGISTERED</text><text fill="#eeeeee" stroke="none" font-family="Arial" font-size="24px" font-style="normal" font-weight="normal" text-decoration="none" x="0" y="90">UNREGISTERED</text><text fill="#eeeeee" stroke="none" font-family="Arial" font-size="24px" font-style="normal" font-weight="normal" text-decoration="none" x="0" y="120">UNREGISTERED</text><text fill="#eeeeee" stroke="none" font-family="Arial" font-size="24px" font-style="normal" font-weight="normal" text-decoration="none" x="0" y="150">UNREGISTERED</text><text fill="#eeeeee" stroke="none" font-family="Arial" font-size="24px" font-style="normal" font-weight="normal" text-decoration="none" x="0" y="180">UNREGISTERED</text><text fill="#eeeeee" stroke="none" font-family="Arial" font-size="24px" font-style="normal" font-weight="normal" text-decoration="none" x="0" y="210">UNREGISTERED</text><text fill="#eeeeee" stroke="none" font-family="Arial" font-size="24px" font-style="normal" font-weight="normal" text-decoration="none" x="0" y="240">UNREGISTERED</text><text fill="#eeeeee" stroke="none" font-family="Arial" font-size="24px" font-style="normal" font-weight="normal" text-decoration="none" x="0" y="270">UNREGISTERED</text><text fill="#eeeeee" stroke="none" font-family="Arial" font-size="24px" font-style="normal" font-weight="normal" text-decoration="none" x="0" y="300">UNREGISTERED</text><text fill="#eeeeee" stroke="none" font-family="Arial" font-size="24px" font-style="normal" font-weight="normal" text-decoration="none" x="0" y="330">UNREGISTERED</text><text fill="#eeeeee" stroke="none" font-family="Arial" font-size="24px" font-style="normal" font-weight="normal" text-decoration="none" x="0" y="360">UNREGISTERED</text><text fill="#eeeeee" stroke="none" font-family="Arial" font-size="24px" font-style="normal" font-weight="normal" text-decoration="none" x="0" y="390">UNREGISTERED</text><text fill="#eeeeee" stroke="none" font-family="Arial" font-size="24px" font-style="normal" font-weight="normal" text-decoration="none" x="0" y="420">UNREGISTERED</text><text fill="#eeeeee" stroke="none" font-family="Arial" font-size="24px" font-style="normal" font-weight="normal" text-decoration="none" x="0" y="450">UNREGISTERED</text><text fill="#eeeeee" stroke="none" font-family="Arial" font-size="24px" font-style="normal" font-weight="normal" text-decoration="none" x="0" y="480">UNREGISTERED</text><text fill="#eeeeee" stroke="none" font-family="Arial" font-size="24px" font-style="normal" font-weight="normal" text-decoration="none" x="0" y="510">UNREGISTERED</text><text fill="#eeeeee" stroke="none" font-family="Arial" font-size="24px" font-style="normal" font-weight="normal" text-decoration="none" x="0" y="540">UNREGISTERED</text><text fill="#eeeeee" stroke="none" font-family="Arial" font-size="24px" font-style="normal" font-weight="normal" text-decoration="none" x="0" y="570">UNREGISTERED</text><text fill="#eeeeee" stroke="none" font-family="Arial" font-size="24px" font-style="normal" font-weight="normal" text-decoration="none" x="0" y="600">UNREGISTERED</text><text fill="#eeeeee" stroke="none" font-family="Arial" font-size="24px" font-style="normal" font-weight="normal" text-decoration="none" x="0" y="630">UNREGISTERED</text><text fill="#eeeeee" stroke="none" font-family="Arial" font-size="24px" font-style="normal" font-weight="normal" text-decoration="none" x="200" y="0">UNREGISTERED</text><text fill="#eeeeee" stroke="none" font-family="Arial" font-size="24px" font-style="normal" font-weight="normal" text-decoration="none" x="200" y="30">UNREGISTERED</text><text fill="#eeeeee" stroke="none" font-family="Arial" font-size="24px" font-style="normal" font-weight="normal" text-decoration="none" x="200" y="60">UNREGISTERED</text><text fill="#eeeeee" stroke="none" font-family="Arial" font-size="24px" font-style="normal" font-weight="normal" text-decoration="none" x="200" y="90">UNREGISTERED</text><text fill="#eeeeee" stroke="none" font-family="Arial" font-size="24px" font-style="normal" font-weight="normal" text-decoration="none" x="200" y="120">UNREGISTERED</text><text fill="#eeeeee" stroke="none" font-family="Arial" font-size="24px" font-style="normal" font-weight="normal" text-decoration="none" x="200" y="150">UNREGISTERED</text><text fill="#eeeeee" stroke="none" font-family="Arial" font-size="24px" font-style="normal" font-weight="normal" text-decoration="none" x="200" y="180">UNREGISTERED</text><text fill="#eeeeee" stroke="none" font-family="Arial" font-size="24px" font-style="normal" font-weight="normal" text-decoration="none" x="200" y="210">UNREGISTERED</text><text fill="#eeeeee" stroke="none" font-family="Arial" font-size="24px" font-style="normal" font-weight="normal" text-decoration="none" x="200" y="240">UNREGISTERED</text><text fill="#eeeeee" stroke="none" font-family="Arial" font-size="24px" font-style="normal" font-weight="normal" text-decoration="none" x="200" y="270">UNREGISTERED</text><text fill="#eeeeee" stroke="none" font-family="Arial" font-size="24px" font-style="normal" font-weight="normal" text-decoration="none" x="200" y="300">UNREGISTERED</text><text fill="#eeeeee" stroke="none" font-family="Arial" font-size="24px" font-style="normal" font-weight="normal" text-decoration="none" x="200" y="330">UNREGISTERED</text><text fill="#eeeeee" stroke="none" font-family="Arial" font-size="24px" font-style="normal" font-weight="normal" text-decoration="none" x="200" y="360">UNREGISTERED</text><text fill="#eeeeee" stroke="none" font-family="Arial" font-size="24px" font-style="normal" font-weight="normal" text-decoration="none" x="200" y="390">UNREGISTERED</text><text fill="#eeeeee" stroke="none" font-family="Arial" font-size="24px" font-style="normal" font-weight="normal" text-decoration="none" x="200" y="420">UNREGISTERED</text><text fill="#eeeeee" stroke="none" font-family="Arial" font-size="24px" font-style="normal" font-weight="normal" text-decoration="none" x="200" y="450">UNREGISTERED</text><text fill="#eeeeee" stroke="none" font-family="Arial" font-size="24px" font-style="normal" font-weight="normal" text-decoration="none" x="200" y="480">UNREGISTERED</text><text fill="#eeeeee" stroke="none" font-family="Arial" font-size="24px" font-style="normal" font-weight="normal" text-decoration="none" x="200" y="510">UNREGISTERED</text><text fill="#eeeeee" stroke="none" font-family="Arial" font-size="24px" font-style="normal" font-weight="normal" text-decoration="none" x="200" y="540">UNREGISTERED</text><text fill="#eeeeee" stroke="none" font-family="Arial" font-size="24px" font-style="normal" font-weight="normal" text-decoration="none" x="200" y="570">UNREGISTERED</text><text fill="#eeeeee" stroke="none" font-family="Arial" font-size="24px" font-style="normal" font-weight="normal" text-decoration="none" x="200" y="600">UNREGISTERED</text><text fill="#eeeeee" stroke="none" font-family="Arial" font-size="24px" font-style="normal" font-weight="normal" text-decoration="none" x="200" y="630">UNREGISTERED</text><text fill="#eeeeee" stroke="none" font-family="Arial" font-size="24px" font-style="normal" font-weight="normal" text-decoration="none" x="400" y="0">UNREGISTERED</text><text fill="#eeeeee" stroke="none" font-family="Arial" font-size="24px" font-style="normal" font-weight="normal" text-decoration="none" x="400" y="30">UNREGISTERED</text><text fill="#eeeeee" stroke="none" font-family="Arial" font-size="24px" font-style="normal" font-weight="normal" text-decoration="none" x="400" y="60">UNREGISTERED</text><text fill="#eeeeee" stroke="none" font-family="Arial" font-size="24px" font-style="normal" font-weight="normal" text-decoration="none" x="400" y="90">UNREGISTERED</text><text fill="#eeeeee" stroke="none" font-family="Arial" font-size="24px" font-style="normal" font-weight="normal" text-decoration="none" x="400" y="120">UNREGISTERED</text><text fill="#eeeeee" stroke="none" font-family="Arial" font-size="24px" font-style="normal" font-weight="normal" text-decoration="none" x="400" y="150">UNREGISTERED</text><text fill="#eeeeee" stroke="none" font-family="Arial" font-size="24px" font-style="normal" font-weight="normal" text-decoration="none" x="400" y="180">UNREGISTERED</text><text fill="#eeeeee" stroke="none" font-family="Arial" font-size="24px" font-style="normal" font-weight="normal" text-decoration="none" x="400" y="210">UNREGISTERED</text><text fill="#eeeeee" stroke="none" font-family="Arial" font-size="24px" font-style="normal" font-weight="normal" text-decoration="none" x="400" y="240">UNREGISTERED</text><text fill="#eeeeee" stroke="none" font-family="Arial" font-size="24px" font-style="normal" font-weight="normal" text-decoration="none" x="400" y="270">UNREGISTERED</text><text fill="#eeeeee" stroke="none" font-family="Arial" font-size="24px" font-style="normal" font-weight="normal" text-decoration="none" x="400" y="300">UNREGISTERED</text><text fill="#eeeeee" stroke="none" font-family="Arial" font-size="24px" font-style="normal" font-weight="normal" text-decoration="none" x="400" y="330">UNREGISTERED</text><text fill="#eeeeee" stroke="none" font-family="Arial" font-size="24px" font-style="normal" font-weight="normal" text-decoration="none" x="400" y="360">UNREGISTERED</text><text fill="#eeeeee" stroke="none" font-family="Arial" font-size="24px" font-style="normal" font-weight="normal" text-decoration="none" x="400" y="390">UNREGISTERED</text><text fill="#eeeeee" stroke="none" font-family="Arial" font-size="24px" font-style="normal" font-weight="normal" text-decoration="none" x="400" y="420">UNREGISTERED</text><text fill="#eeeeee" stroke="none" font-family="Arial" font-size="24px" font-style="normal" font-weight="normal" text-decoration="none" x="400" y="450">UNREGISTERED</text><text fill="#eeeeee" stroke="none" font-family="Arial" font-size="24px" font-style="normal" font-weight="normal" text-decoration="none" x="400" y="480">UNREGISTERED</text><text fill="#eeeeee" stroke="none" font-family="Arial" font-size="24px" font-style="normal" font-weight="normal" text-decoration="none" x="400" y="510">UNREGISTERED</text><text fill="#eeeeee" stroke="none" font-family="Arial" font-size="24px" font-style="normal" font-weight="normal" text-decoration="none" x="400" y="540">UNREGISTERED</text><text fill="#eeeeee" stroke="none" font-family="Arial" font-size="24px" font-style="normal" font-weight="normal" text-decoration="none" x="400" y="570">UNREGISTERED</text><text fill="#eeeeee" stroke="none" font-family="Arial" font-size="24px" font-style="normal" font-weight="normal" text-decoration="none" x="400" y="600">UNREGISTERED</text><text fill="#eeeeee" stroke="none" font-family="Arial" font-size="24px" font-style="normal" font-weight="normal" text-decoration="none" x="400" y="630">UNREGISTERED</text><text fill="#eeeeee" stroke="none" font-family="Arial" font-size="24px" font-style="normal" font-weight="normal" text-decoration="none" x="600" y="0">UNREGISTERED</text><text fill="#eeeeee" stroke="none" font-family="Arial" font-size="24px" font-style="normal" font-weight="normal" text-decoration="none" x="600" y="30">UNREGISTERED</text><text fill="#eeeeee" stroke="none" font-family="Arial" font-size="24px" font-style="normal" font-weight="normal" text-decoration="none" x="600" y="60">UNREGISTERED</text><text fill="#eeeeee" stroke="none" font-family="Arial" font-size="24px" font-style="normal" font-weight="normal" text-decoration="none" x="600" y="90">UNREGISTERED</text><text fill="#eeeeee" stroke="none" font-family="Arial" font-size="24px" font-style="normal" font-weight="normal" text-decoration="none" x="600" y="120">UNREGISTERED</text><text fill="#eeeeee" stroke="none" font-family="Arial" font-size="24px" font-style="normal" font-weight="normal" text-decoration="none" x="600" y="150">UNREGISTERED</text><text fill="#eeeeee" stroke="none" font-family="Arial" font-size="24px" font-style="normal" font-weight="normal" text-decoration="none" x="600" y="180">UNREGISTERED</text><text fill="#eeeeee" stroke="none" font-family="Arial" font-size="24px" font-style="normal" font-weight="normal" text-decoration="none" x="600" y="210">UNREGISTERED</text><text fill="#eeeeee" stroke="none" font-family="Arial" font-size="24px" font-style="normal" font-weight="normal" text-decoration="none" x="600" y="240">UNREGISTERED</text><text fill="#eeeeee" stroke="none" font-family="Arial" font-size="24px" font-style="normal" font-weight="normal" text-decoration="none" x="600" y="270">UNREGISTERED</text><text fill="#eeeeee" stroke="none" font-family="Arial" font-size="24px" font-style="normal" font-weight="normal" text-decoration="none" x="600" y="300">UNREGISTERED</text><text fill="#eeeeee" stroke="none" font-family="Arial" font-size="24px" font-style="normal" font-weight="normal" text-decoration="none" x="600" y="330">UNREGISTERED</text><text fill="#eeeeee" stroke="none" font-family="Arial" font-size="24px" font-style="normal" font-weight="normal" text-decoration="none" x="600" y="360">UNREGISTERED</text><text fill="#eeeeee" stroke="none" font-family="Arial" font-size="24px" font-style="normal" font-weight="normal" text-decoration="none" x="600" y="390">UNREGISTERED</text><text fill="#eeeeee" stroke="none" font-family="Arial" font-size="24px" font-style="normal" font-weight="normal" text-decoration="none" x="600" y="420">UNREGISTERED</text><text fill="#eeeeee" stroke="none" font-family="Arial" font-size="24px" font-style="normal" font-weight="normal" text-decoration="none" x="600" y="450">UNREGISTERED</text><text fill="#eeeeee" stroke="none" font-family="Arial" font-size="24px" font-style="normal" font-weight="normal" text-decoration="none" x="600" y="480">UNREGISTERED</text><text fill="#eeeeee" stroke="none" font-family="Arial" font-size="24px" font-style="normal" font-weight="normal" text-decoration="none" x="600" y="510">UNREGISTERED</text><text fill="#eeeeee" stroke="none" font-family="Arial" font-size="24px" font-style="normal" font-weight="normal" text-decoration="none" x="600" y="540">UNREGISTERED</text><text fill="#eeeeee" stroke="none" font-family="Arial" font-size="24px" font-style="normal" font-weight="normal" text-decoration="none" x="600" y="570">UNREGISTERED</text><text fill="#eeeeee" stroke="none" font-family="Arial" font-size="24px" font-style="normal" font-weight="normal" text-decoration="none" x="600" y="600">UNREGISTERED</text><text fill="#eeeeee" stroke="none" font-family="Arial" font-size="24px" font-style="normal" font-weight="normal" text-decoration="none" x="600" y="630">UNREGISTERED</text><text fill="#eeeeee" stroke="none" font-family="Arial" font-size="24px" font-style="normal" font-weight="normal" text-decoration="none" x="800" y="0">UNREGISTERED</text><text fill="#eeeeee" stroke="none" font-family="Arial" font-size="24px" font-style="normal" font-weight="normal" text-decoration="none" x="800" y="30">UNREGISTERED</text><text fill="#eeeeee" stroke="none" font-family="Arial" font-size="24px" font-style="normal" font-weight="normal" text-decoration="none" x="800" y="60">UNREGISTERED</text><text fill="#eeeeee" stroke="none" font-family="Arial" font-size="24px" font-style="normal" font-weight="normal" text-decoration="none" x="800" y="90">UNREGISTERED</text><text fill="#eeeeee" stroke="none" font-family="Arial" font-size="24px" font-style="normal" font-weight="normal" text-decoration="none" x="800" y="120">UNREGISTERED</text><text fill="#eeeeee" stroke="none" font-family="Arial" font-size="24px" font-style="normal" font-weight="normal" text-decoration="none" x="800" y="150">UNREGISTERED</text><text fill="#eeeeee" stroke="none" font-family="Arial" font-size="24px" font-style="normal" font-weight="normal" text-decoration="none" x="800" y="180">UNREGISTERED</text><text fill="#eeeeee" stroke="none" font-family="Arial" font-size="24px" font-style="normal" font-weight="normal" text-decoration="none" x="800" y="210">UNREGISTERED</text><text fill="#eeeeee" stroke="none" font-family="Arial" font-size="24px" font-style="normal" font-weight="normal" text-decoration="none" x="800" y="240">UNREGISTERED</text><text fill="#eeeeee" stroke="none" font-family="Arial" font-size="24px" font-style="normal" font-weight="normal" text-decoration="none" x="800" y="270">UNREGISTERED</text><text fill="#eeeeee" stroke="none" font-family="Arial" font-size="24px" font-style="normal" font-weight="normal" text-decoration="none" x="800" y="300">UNREGISTERED</text><text fill="#eeeeee" stroke="none" font-family="Arial" font-size="24px" font-style="normal" font-weight="normal" text-decoration="none" x="800" y="330">UNREGISTERED</text><text fill="#eeeeee" stroke="none" font-family="Arial" font-size="24px" font-style="normal" font-weight="normal" text-decoration="none" x="800" y="360">UNREGISTERED</text><text fill="#eeeeee" stroke="none" font-family="Arial" font-size="24px" font-style="normal" font-weight="normal" text-decoration="none" x="800" y="390">UNREGISTERED</text><text fill="#eeeeee" stroke="none" font-family="Arial" font-size="24px" font-style="normal" font-weight="normal" text-decoration="none" x="800" y="420">UNREGISTERED</text><text fill="#eeeeee" stroke="none" font-family="Arial" font-size="24px" font-style="normal" font-weight="normal" text-decoration="none" x="800" y="450">UNREGISTERED</text><text fill="#eeeeee" stroke="none" font-family="Arial" font-size="24px" font-style="normal" font-weight="normal" text-decoration="none" x="800" y="480">UNREGISTERED</text><text fill="#eeeeee" stroke="none" font-family="Arial" font-size="24px" font-style="normal" font-weight="normal" text-decoration="none" x="800" y="510">UNREGISTERED</text><text fill="#eeeeee" stroke="none" font-family="Arial" font-size="24px" font-style="normal" font-weight="normal" text-decoration="none" x="800" y="540">UNREGISTERED</text><text fill="#eeeeee" stroke="none" font-family="Arial" font-size="24px" font-style="normal" font-weight="normal" text-decoration="none" x="800" y="570">UNREGISTERED</text><text fill="#eeeeee" stroke="none" font-family="Arial" font-size="24px" font-style="normal" font-weight="normal" text-decoration="none" x="800" y="600">UNREGISTERED</text><text fill="#eeeeee" stroke="none" font-family="Arial" font-size="24px" font-style="normal" font-weight="normal" text-decoration="none" x="800" y="630">UNREGISTERED</text><text fill="#eeeeee" stroke="none" font-family="Arial" font-size="24px" font-style="normal" font-weight="normal" text-decoration="none" x="1000" y="0">UNREGISTERED</text><text fill="#eeeeee" stroke="none" font-family="Arial" font-size="24px" font-style="normal" font-weight="normal" text-decoration="none" x="1000" y="30">UNREGISTERED</text><text fill="#eeeeee" stroke="none" font-family="Arial" font-size="24px" font-style="normal" font-weight="normal" text-decoration="none" x="1000" y="60">UNREGISTERED</text><text fill="#eeeeee" stroke="none" font-family="Arial" font-size="24px" font-style="normal" font-weight="normal" text-decoration="none" x="1000" y="90">UNREGISTERED</text><text fill="#eeeeee" stroke="none" font-family="Arial" font-size="24px" font-style="normal" font-weight="normal" text-decoration="none" x="1000" y="120">UNREGISTERED</text><text fill="#eeeeee" stroke="none" font-family="Arial" font-size="24px" font-style="normal" font-weight="normal" text-decoration="none" x="1000" y="150">UNREGISTERED</text><text fill="#eeeeee" stroke="none" font-family="Arial" font-size="24px" font-style="normal" font-weight="normal" text-decoration="none" x="1000" y="180">UNREGISTERED</text><text fill="#eeeeee" stroke="none" font-family="Arial" font-size="24px" font-style="normal" font-weight="normal" text-decoration="none" x="1000" y="210">UNREGISTERED</text><text fill="#eeeeee" stroke="none" font-family="Arial" font-size="24px" font-style="normal" font-weight="normal" text-decoration="none" x="1000" y="240">UNREGISTERED</text><text fill="#eeeeee" stroke="none" font-family="Arial" font-size="24px" font-style="normal" font-weight="normal" text-decoration="none" x="1000" y="270">UNREGISTERED</text><text fill="#eeeeee" stroke="none" font-family="Arial" font-size="24px" font-style="normal" font-weight="normal" text-decoration="none" x="1000" y="300">UNREGISTERED</text><text fill="#eeeeee" stroke="none" font-family="Arial" font-size="24px" font-style="normal" font-weight="normal" text-decoration="none" x="1000" y="330">UNREGISTERED</text><text fill="#eeeeee" stroke="none" font-family="Arial" font-size="24px" font-style="normal" font-weight="normal" text-decoration="none" x="1000" y="360">UNREGISTERED</text><text fill="#eeeeee" stroke="none" font-family="Arial" font-size="24px" font-style="normal" font-weight="normal" text-decoration="none" x="1000" y="390">UNREGISTERED</text><text fill="#eeeeee" stroke="none" font-family="Arial" font-size="24px" font-style="normal" font-weight="normal" text-decoration="none" x="1000" y="420">UNREGISTERED</text><text fill="#eeeeee" stroke="none" font-family="Arial" font-size="24px" font-style="normal" font-weight="normal" text-decoration="none" x="1000" y="450">UNREGISTERED</text><text fill="#eeeeee" stroke="none" font-family="Arial" font-size="24px" font-style="normal" font-weight="normal" text-decoration="none" x="1000" y="480">UNREGISTERED</text><text fill="#eeeeee" stroke="none" font-family="Arial" font-size="24px" font-style="normal" font-weight="normal" text-decoration="none" x="1000" y="510">UNREGISTERED</text><text fill="#eeeeee" stroke="none" font-family="Arial" font-size="24px" font-style="normal" font-weight="normal" text-decoration="none" x="1000" y="540">UNREGISTERED</text><text fill="#eeeeee" stroke="none" font-family="Arial" font-size="24px" font-style="normal" font-weight="normal" text-decoration="none" x="1000" y="570">UNREGISTERED</text><text fill="#eeeeee" stroke="none" font-family="Arial" font-size="24px" font-style="normal" font-weight="normal" text-decoration="none" x="1000" y="600">UNREGISTERED</text><text fill="#eeeeee" stroke="none" font-family="Arial" font-size="24px" font-style="normal" font-weight="normal" text-decoration="none" x="1000" y="630">UNREGISTERED</text><g transform="translate(-142,-110) scale(1,1)"><rect fill="#C0C0C0" stroke="none" x="159" y="127" width="454.4" height="15" opacity="0.2"/></g><g transform="translate(-142,-110) scale(1,1)"><rect fill="#C0C0C0" stroke="none" x="159" y="141" width="1136" height="610" opacity="0.2"/></g><g transform="translate(-142,-110) scale(1,1)"><rect fill="#ffd456" stroke="none" x="152" y="135" width="1136" height="609"/></g><g transform="translate(-142,-110) scale(1,1)"><path fill="none" stroke="#000000" d="M 152 135 L 1288 135 L 1288 744 L 152 744 L 152 135 Z Z" stroke-miterlimit="10"/></g><g transform="translate(-142,-110) scale(1,1)"><rect fill="#ffd456" stroke="none" x="152" y="120" width="454.4" height="15"/></g><g transform="translate(-142,-110) scale(1,1)"><path fill="none" stroke="#000000" d="M 152 120 L 606.4 120 L 606.4 135 L 152 135 L 152 120 Z Z" stroke-miterlimit="10"/></g><g transform="translate(-142,-110) scale(1,1)"><rect fill="#ffd456" stroke="none" x="152" y="134" width="1136" height="610"/></g><g transform="translate(-142,-110) scale(1,1)"><path fill="none" stroke="#000000" d="M 152 134 L 1288 134 L 1288 744 L 152 744 L 152 134 Z Z" stroke-miterlimit="10"/></g><g transform="translate(-142,-110) scale(1,1)"><g><path fill="none" stroke="none"/><text fill="#000000" stroke="none" font-family="Arial" font-size="13px" font-style="normal" font-weight="bold" text-decoration="none" x="701.588623046875" y="152.5">ogrod</text></g></g><g transform="translate(-142,-110) scale(1,1)"><g><path fill="none" stroke="none"/><text fill="#000000" stroke="none" font-family="Arial" font-size="13px" font-style="normal" font-weight="normal" text-decoration="none" x="665.813232421875" y="167.5">(from vue statique)</text></g></g><g transform="translate(-142,-110) scale(1,1)"><rect fill="#C0C0C0" stroke="none" x="575" y="207" width="256" height="15" opacity="0.2"/></g><g transform="translate(-142,-110) scale(1,1)"><rect fill="#C0C0C0" stroke="none" x="575" y="221" width="640" height="434" opacity="0.2"/></g><g transform="translate(-142,-110) scale(1,1)"><rect fill="#00967d" stroke="none" x="568" y="215" width="640" height="433"/></g><g transform="translate(-142,-110) scale(1,1)"><path fill="none" stroke="#000000" d="M 568 215 L 1208 215 L 1208 648 L 568 648 L 568 215 Z Z" stroke-miterlimit="10"/></g><g transform="translate(-142,-110) scale(1,1)"><rect fill="#00967d" stroke="none" x="568" y="200" width="256" height="15"/></g><g transform="translate(-142,-110) scale(1,1)"><path fill="none" stroke="#000000" d="M 568 200 L 824 200 L 824 215 L 568 215 L 568 200 Z Z" stroke-miterlimit="10"/></g><g transform="translate(-142,-110) scale(1,1)"><rect fill="#00967d" stroke="none" x="568" y="214" width="640" height="434"/></g><g transform="translate(-142,-110) scale(1,1)"><path fill="none" stroke="#000000" d="M 568 214 L 1208 214 L 1208 648 L 568 648 L 568 214 Z Z" stroke-miterlimit="10"/></g><g transform="translate(-142,-110) scale(1,1)"><g><path fill="none" stroke="none"/><text fill="#000000" stroke="none" font-family="Arial" font-size="13px" font-style="normal" font-weight="bold" text-decoration="none" x="847.552734375" y="232.5">insertModule</text></g></g><g transform="translate(-142,-110) scale(1,1)"><g><path fill="none" stroke="none"/><text fill="#000000" stroke="none" font-family="Arial" font-size="13px" font-style="normal" font-weight="normal" text-decoration="none" x="852.240478515625" y="247.5">(from ogrod)</text></g></g><g transform="translate(-142,-110) scale(1,1)"><rect fill="#C0C0C0" stroke="none" x="639" y="319" width="48.970507812500045" height="15" opacity="0.2"/></g><g transform="translate(-142,-110) scale(1,1)"><rect fill="#C0C0C0" stroke="none" x="639" y="333" width="122.42626953125" height="40" opacity="0.2"/></g><g transform="translate(-142,-110) scale(1,1)"><rect fill="#ffffff" stroke="none" x="632" y="327" width="122.42626953125" height="39"/></g><g transform="translate(-142,-110) scale(1,1)"><path fill="none" stroke="#000000" d="M 632 327 L 754.42626953125 327 L 754.42626953125 366 L 632 366 L 632 327 Z Z" stroke-miterlimit="10"/></g><g transform="translate(-142,-110) scale(1,1)"><rect fill="#ffffff" stroke="none" x="632" y="312" width="48.970507812500045" height="15"/></g><g transform="translate(-142,-110) scale(1,1)"><path fill="none" stroke="#000000" d="M 632 312 L 680.9705078125 312 L 680.9705078125 327 L 632 327 L 632 312 Z Z" stroke-miterlimit="10"/></g><g transform="translate(-142,-110) scale(1,1)"><rect fill="#ffffff" stroke="none" x="632" y="326" width="122.42626953125" height="40"/></g><g transform="translate(-142,-110) scale(1,1)"><path fill="none" stroke="#000000" d="M 632 326 L 754.42626953125 326 L 754.42626953125 366 L 632 366 L 632 326 Z Z" stroke-miterlimit="10"/></g><g transform="translate(-142,-110) scale(1,1)"><g><path fill="none" stroke="none"/><text fill="#000000" stroke="none" font-family="Arial" font-size="13px" font-style="normal" font-weight="bold" text-decoration="none" x="647.70361328125" y="344.5">businessLogic</text></g></g><g transform="translate(-142,-110) scale(1,1)"><g><path fill="none" stroke="none"/><text fill="#000000" stroke="none" font-family="Arial" font-size="13px" font-style="normal" font-weight="normal" text-decoration="none" x="636.5" y="359.5">(from domainLayer)</text></g></g><g transform="translate(-142,-110) scale(1,1)"><rect fill="#C0C0C0" stroke="none" x="951" y="335" width="48.970507812500045" height="15" opacity="0.2"/></g><g transform="translate(-142,-110) scale(1,1)"><rect fill="#C0C0C0" stroke="none" x="951" y="349" width="122.42626953125" height="40" opacity="0.2"/></g><g transform="translate(-142,-110) scale(1,1)"><rect fill="#ffffff" stroke="none" x="944" y="343" width="122.42626953125" height="39"/></g><g transform="translate(-142,-110) scale(1,1)"><path fill="none" stroke="#000000" d="M 944 343 L 1066.42626953125 343 L 1066.42626953125 382 L 944 382 L 944 343 Z Z" stroke-miterlimit="10"/></g><g transform="translate(-142,-110) scale(1,1)"><rect fill="#ffffff" stroke="none" x="944" y="328" width="48.970507812500045" height="15"/></g><g transform="translate(-142,-110) scale(1,1)"><path fill="none" stroke="#000000" d="M 944 328 L 992.9705078125 328 L 992.9705078125 343 L 944 343 L 944 328 Z Z" stroke-miterlimit="10"/></g><g transform="translate(-142,-110) scale(1,1)"><rect fill="#ffffff" stroke="none" x="944" y="342" width="122.42626953125" height="40"/></g><g transform="translate(-142,-110) scale(1,1)"><path fill="none" stroke="#000000" d="M 944 342 L 1066.42626953125 342 L 1066.42626953125 382 L 944 382 L 944 342 Z Z" stroke-miterlimit="10"/></g><g transform="translate(-142,-110) scale(1,1)"><g><path fill="none" stroke="none"/><text fill="#000000" stroke="none" font-family="Arial" font-size="13px" font-style="normal" font-weight="bold" text-decoration="none" x="953.194091796875" y="360.5">businessObjects</text></g></g><g transform="translate(-142,-110) scale(1,1)"><g><path fill="none" stroke="none"/><text fill="#000000" stroke="none" font-family="Arial" font-size="13px" font-style="normal" font-weight="normal" text-decoration="none" x="948.5" y="375.5">(from domainLayer)</text></g></g><g transform="translate(-142,-110) scale(1,1)"><rect fill="#C0C0C0" stroke="none" x="615" y="503" width="227.20000000000005" height="15" opacity="0.2"/></g><g transform="translate(-142,-110) scale(1,1)"><rect fill="#C0C0C0" stroke="none" x="615" y="517" width="568" height="82" opacity="0.2"/></g><g transform="translate(-142,-110) scale(1,1)"><rect fill="#ff5656" stroke="none" x="608" y="511" width="568" height="81"/></g><g transform="translate(-142,-110) scale(1,1)"><path fill="none" stroke="#000000" d="M 608 511 L 1176 511 L 1176 592 L 608 592 L 608 511 Z Z" stroke-miterlimit="10"/></g><g transform="translate(-142,-110) scale(1,1)"><rect fill="#ff5656" stroke="none" x="608" y="496" width="227.20000000000005" height="15"/></g><g transform="translate(-142,-110) scale(1,1)"><path fill="none" stroke="#000000" d="M 608 496 L 835.2 496 L 835.2 511 L 608 511 L 608 496 Z Z" stroke-miterlimit="10"/></g><g transform="translate(-142,-110) scale(1,1)"><rect fill="#ff5656" stroke="none" x="608" y="510" width="568" height="82"/></g><g transform="translate(-142,-110) scale(1,1)"><path fill="none" stroke="#000000" d="M 608 510 L 1176 510 L 1176 592 L 608 592 L 608 510 Z Z" stroke-miterlimit="10"/></g><g transform="translate(-142,-110) scale(1,1)"><g><path fill="none" stroke="none"/><text fill="#000000" stroke="none" font-family="Arial" font-size="13px" font-style="normal" font-weight="bold" text-decoration="none" x="838.524169921875" y="528.5">persistenceLayer</text></g></g><g transform="translate(-142,-110) scale(1,1)"><rect fill="#C0C0C0" stroke="none" x="615" y="279" width="227.20000000000005" height="15" opacity="0.2"/></g><g transform="translate(-142,-110) scale(1,1)"><rect fill="#C0C0C0" stroke="none" x="615" y="293" width="568" height="130" opacity="0.2"/></g><g transform="translate(-142,-110) scale(1,1)"><rect fill="#ff952b" stroke="none" x="608" y="287" width="568" height="129"/></g><g transform="translate(-142,-110) scale(1,1)"><path fill="none" stroke="#000000" d="M 608 287 L 1176 287 L 1176 416 L 608 416 L 608 287 Z Z" stroke-miterlimit="10"/></g><g transform="translate(-142,-110) scale(1,1)"><rect fill="#ff952b" stroke="none" x="608" y="272" width="227.20000000000005" height="15"/></g><g transform="translate(-142,-110) scale(1,1)"><path fill="none" stroke="#000000" d="M 608 272 L 835.2 272 L 835.2 287 L 608 287 L 608 272 Z Z" stroke-miterlimit="10"/></g><g transform="translate(-142,-110) scale(1,1)"><rect fill="#ff952b" stroke="none" x="608" y="286" width="568" height="130"/></g><g transform="translate(-142,-110) scale(1,1)"><path fill="none" stroke="#000000" d="M 608 286 L 1176 286 L 1176 416 L 608 416 L 608 286 Z Z" stroke-miterlimit="10"/></g><g transform="translate(-142,-110) scale(1,1)"><g><path fill="none" stroke="none"/><text fill="#000000" stroke="none" font-family="Arial" font-size="13px" font-style="normal" font-weight="bold" text-decoration="none" x="851.543212890625" y="304.5">domainLayer</text></g></g><g transform="translate(-142,-110) scale(1,1)"><rect fill="#C0C0C0" stroke="none" x="663" y="319" width="48.970507812500045" height="15" opacity="0.2"/></g><g transform="translate(-142,-110) scale(1,1)"><rect fill="#C0C0C0" stroke="none" x="663" y="333" width="122.42626953125" height="66" opacity="0.2"/></g><g transform="translate(-142,-110) scale(1,1)"><rect fill="#2b71ff" stroke="none" x="656" y="327" width="122.42626953125" height="65"/></g><g transform="translate(-142,-110) scale(1,1)"><path fill="none" stroke="#000000" d="M 656 327 L 778.42626953125 327 L 778.42626953125 392 L 656 392 L 656 327 Z Z" stroke-miterlimit="10"/></g><g transform="translate(-142,-110) scale(1,1)"><rect fill="#2b71ff" stroke="none" x="656" y="312" width="48.970507812500045" height="15"/></g><g transform="translate(-142,-110) scale(1,1)"><path fill="none" stroke="#000000" d="M 656 312 L 704.9705078125 312 L 704.9705078125 327 L 656 327 L 656 312 Z Z" stroke-miterlimit="10"/></g><g transform="translate(-142,-110) scale(1,1)"><rect fill="#2b71ff" stroke="none" x="656" y="326" width="122.42626953125" height="66"/></g><g transform="translate(-142,-110) scale(1,1)"><path fill="none" stroke="#000000" d="M 656 326 L 778.42626953125 326 L 778.42626953125 392 L 656 392 L 656 326 Z Z" stroke-miterlimit="10"/></g><g transform="translate(-142,-110) scale(1,1)"><g><path fill="none" stroke="none"/><text fill="#000000" stroke="none" font-family="Arial" font-size="13px" font-style="normal" font-weight="bold" text-decoration="none" x="671.70361328125" y="344.5">businessLogic</text></g></g><g transform="translate(-142,-110) scale(1,1)"><g><path fill="none" stroke="none"/><text fill="#000000" stroke="none" font-family="Arial" font-size="13px" font-style="normal" font-weight="normal" text-decoration="none" x="660.5" y="359.5">(from domainLayer)</text></g></g><g transform="translate(-142,-110) scale(1,1)"><rect fill="#C0C0C0" stroke="none" x="991" y="319" width="48.970507812500045" height="15" opacity="0.2"/></g><g transform="translate(-142,-110) scale(1,1)"><rect fill="#C0C0C0" stroke="none" x="991" y="333" width="122.42626953125" height="66" opacity="0.2"/></g><g transform="translate(-142,-110) scale(1,1)"><rect fill="#ad00ad" stroke="none" x="984" y="327" width="122.42626953125" height="65"/></g><g transform="translate(-142,-110) scale(1,1)"><path fill="none" stroke="#000000" d="M 984 327 L 1106.42626953125 327 L 1106.42626953125 392 L 984 392 L 984 327 Z Z" stroke-miterlimit="10"/></g><g transform="translate(-142,-110) scale(1,1)"><rect fill="#ad00ad" stroke="none" x="984" y="312" width="48.970507812500045" height="15"/></g><g transform="translate(-142,-110) scale(1,1)"><path fill="none" stroke="#000000" d="M 984 312 L 1032.9705078125 312 L 1032.9705078125 327 L 984 327 L 984 312 Z Z" stroke-miterlimit="10"/></g><g transform="translate(-142,-110) scale(1,1)"><rect fill="#ad00ad" stroke="none" x="984" y="326" width="122.42626953125" height="66"/></g><g transform="translate(-142,-110) scale(1,1)"><path fill="none" stroke="#000000" d="M 984 326 L 1106.42626953125 326 L 1106.42626953125 392 L 984 392 L 984 326 Z Z" stroke-miterlimit="10"/></g><g transform="translate(-142,-110) scale(1,1)"><g><path fill="none" stroke="none"/><text fill="#000000" stroke="none" font-family="Arial" font-size="13px" font-style="normal" font-weight="bold" text-decoration="none" x="993.194091796875" y="344.5">businessObjects</text></g></g><g transform="translate(-142,-110) scale(1,1)"><g><path fill="none" stroke="none"/><text fill="#000000" stroke="none" font-family="Arial" font-size="13px" font-style="normal" font-weight="normal" text-decoration="none" x="988.5" y="359.5">(from domainLayer)</text></g></g><g transform="translate(-142,-110) scale(1,1)"><path fill="none" stroke="#000000" d="M 712 392 L 712 496" stroke-miterlimit="10" stroke-dasharray="3"/></g><g transform="translate(-142,-110) scale(1,1)"><path fill="none" stroke="#000000" d="M 707.790482243984 485.83732514237585 L 712 496 L 716.209517756016 485.83732514237585" stroke-miterlimit="10"/></g><g transform="translate(-142,-110) scale(1,1)"><path fill="none" stroke="#000000" d="M 712 496 L 712 392" stroke-miterlimit="10" stroke-dasharray="3"/></g><g transform="translate(-142,-110) scale(1,1)"><path fill="none" stroke="#000000" d="M 716.209517756016 402.16267485762415 L 712 392 L 707.790482243984 402.16267485762415" stroke-miterlimit="10"/></g><g transform="translate(-142,-110) scale(1,1)"><path fill="none" stroke="#000000" d="M 1040 496 L 1040 392" stroke-miterlimit="10" stroke-dasharray="3"/></g><g transform="translate(-142,-110) scale(1,1)"><path fill="none" stroke="#000000" d="M 1044.2095177560159 402.16267485762415 L 1040 392 L 1035.7904822439841 402.16267485762415" stroke-miterlimit="10"/></g></g></svg>