<svg version="1.1" xmlns="http://www.w3.org/2000/svg" xmlns:xlink="http://www.w3.org/1999/xlink" width="792" height="332"><defs/><g><text fill="#eeeeee" stroke="none" font-family="Arial" font-size="24px" font-style="normal" font-weight="normal" text-decoration="none" x="0" y="0">UNREGISTERED</text><text fill="#eeeeee" stroke="none" font-family="Arial" font-size="24px" font-style="normal" font-weight="normal" text-decoration="none" x="0" y="30">UNREGISTERED</text><text fill="#eeeeee" stroke="none" font-family="Arial" font-size="24px" font-style="normal" font-weight="normal" text-decoration="none" x="0" y="60">UNREGISTERED</text><text fill="#eeeeee" stroke="none" font-family="Arial" font-size="24px" font-style="normal" font-weight="normal" text-decoration="none" x="0" y="90">UNREGISTERED</text><text fill="#eeeeee" stroke="none" font-family="Arial" font-size="24px" font-style="normal" font-weight="normal" text-decoration="none" x="0" y="120">UNREGISTERED</text><text fill="#eeeeee" stroke="none" font-family="Arial" font-size="24px" font-style="normal" font-weight="normal" text-decoration="none" x="0" y="150">UNREGISTERED</text><text fill="#eeeeee" stroke="none" font-family="Arial" font-size="24px" font-style="normal" font-weight="normal" text-decoration="none" x="0" y="180">UNREGISTERED</text><text fill="#eeeeee" stroke="none" font-family="Arial" font-size="24px" font-style="normal" font-weight="normal" text-decoration="none" x="0" y="210">UNREGISTERED</text><text fill="#eeeeee" stroke="none" font-family="Arial" font-size="24px" font-style="normal" font-weight="normal" text-decoration="none" x="0" y="240">UNREGISTERED</text><text fill="#eeeeee" stroke="none" font-family="Arial" font-size="24px" font-style="normal" font-weight="normal" text-decoration="none" x="0" y="270">UNREGISTERED</text><text fill="#eeeeee" stroke="none" font-family="Arial" font-size="24px" font-style="normal" font-weight="normal" text-decoration="none" x="0" y="300">UNREGISTERED</text><text fill="#eeeeee" stroke="none" font-family="Arial" font-size="24px" font-style="normal" font-weight="normal" text-decoration="none" x="0" y="330">UNREGISTERED</text><text fill="#eeeeee" stroke="none" font-family="Arial" font-size="24px" font-style="normal" font-weight="normal" text-decoration="none" x="200" y="0">UNREGISTERED</text><text fill="#eeeeee" stroke="none" font-family="Arial" font-size="24px" font-style="normal" font-weight="normal" text-decoration="none" x="200" y="30">UNREGISTERED</text><text fill="#eeeeee" stroke="none" font-family="Arial" font-size="24px" font-style="normal" font-weight="normal" text-decoration="none" x="200" y="60">UNREGISTERED</text><text fill="#eeeeee" stroke="none" font-family="Arial" font-size="24px" font-style="normal" font-weight="normal" text-decoration="none" x="200" y="90">UNREGISTERED</text><text fill="#eeeeee" stroke="none" font-family="Arial" font-size="24px" font-style="normal" font-weight="normal" text-decoration="none" x="200" y="120">UNREGISTERED</text><text fill="#eeeeee" stroke="none" font-family="Arial" font-size="24px" font-style="normal" font-weight="normal" text-decoration="none" x="200" y="150">UNREGISTERED</text><text fill="#eeeeee" stroke="none" font-family="Arial" font-size="24px" font-style="normal" font-weight="normal" text-decoration="none" x="200" y="180">UNREGISTERED</text><text fill="#eeeeee" stroke="none" font-family="Arial" font-size="24px" font-style="normal" font-weight="normal" text-decoration="none" x="200" y="210">UNREGISTERED</text><text fill="#eeeeee" stroke="none" font-family="Arial" font-size="24px" font-style="normal" font-weight="normal" text-decoration="none" x="200" y="240">UNREGISTERED</text><text fill="#eeeeee" stroke="none" font-family="Arial" font-size="24px" font-style="normal" font-weight="normal" text-decoration="none" x="200" y="270">UNREGISTERED</text><text fill="#eeeeee" stroke="none" font-family="Arial" font-size="24px" font-style="normal" font-weight="normal" text-decoration="none" x="200" y="300">UNREGISTERED</text><text fill="#eeeeee" stroke="none" font-family="Arial" font-size="24px" font-style="normal" font-weight="normal" text-decoration="none" x="200" y="330">UNREGISTERED</text><text fill="#eeeeee" stroke="none" font-family="Arial" font-size="24px" font-style="normal" font-weight="normal" text-decoration="none" x="400" y="0">UNREGISTERED</text><text fill="#eeeeee" stroke="none" font-family="Arial" font-size="24px" font-style="normal" font-weight="normal" text-decoration="none" x="400" y="30">UNREGISTERED</text><text fill="#eeeeee" stroke="none" font-family="Arial" font-size="24px" font-style="normal" font-weight="normal" text-decoration="none" x="400" y="60">UNREGISTERED</text><text fill="#eeeeee" stroke="none" font-family="Arial" font-size="24px" font-style="normal" font-weight="normal" text-decoration="none" x="400" y="90">UNREGISTERED</text><text fill="#eeeeee" stroke="none" font-family="Arial" font-size="24px" font-style="normal" font-weight="normal" text-decoration="none" x="400" y="120">UNREGISTERED</text><text fill="#eeeeee" stroke="none" font-family="Arial" font-size="24px" font-style="normal" font-weight="normal" text-decoration="none" x="400" y="150">UNREGISTERED</text><text fill="#eeeeee" stroke="none" font-family="Arial" font-size="24px" font-style="normal" font-weight="normal" text-decoration="none" x="400" y="180">UNREGISTERED</text><text fill="#eeeeee" stroke="none" font-family="Arial" font-size="24px" font-style="normal" font-weight="normal" text-decoration="none" x="400" y="210">UNREGISTERED</text><text fill="#eeeeee" stroke="none" font-family="Arial" font-size="24px" font-style="normal" font-weight="normal" text-decoration="none" x="400" y="240">UNREGISTERED</text><text fill="#eeeeee" stroke="none" font-family="Arial" font-size="24px" font-style="normal" font-weight="normal" text-decoration="none" x="400" y="270">UNREGISTERED</text><text fill="#eeeeee" stroke="none" font-family="Arial" font-size="24px" font-style="normal" font-weight="normal" text-decoration="none" x="400" y="300">UNREGISTERED</text><text fill="#eeeeee" stroke="none" font-family="Arial" font-size="24px" font-style="normal" font-weight="normal" text-decoration="none" x="400" y="330">UNREGISTERED</text><text fill="#eeeeee" stroke="none" font-family="Arial" font-size="24px" font-style="normal" font-weight="normal" text-decoration="none" x="600" y="0">UNREGISTERED</text><text fill="#eeeeee" stroke="none" font-family="Arial" font-size="24px" font-style="normal" font-weight="normal" text-decoration="none" x="600" y="30">UNREGISTERED</text><text fill="#eeeeee" stroke="none" font-family="Arial" font-size="24px" font-style="normal" font-weight="normal" text-decoration="none" x="600" y="60">UNREGISTERED</text><text fill="#eeeeee" stroke="none" font-family="Arial" font-size="24px" font-style="normal" font-weight="normal" text-decoration="none" x="600" y="90">UNREGISTERED</text><text fill="#eeeeee" stroke="none" font-family="Arial" font-size="24px" font-style="normal" font-weight="normal" text-decoration="none" x="600" y="120">UNREGISTERED</text><text fill="#eeeeee" stroke="none" font-family="Arial" font-size="24px" font-style="normal" font-weight="normal" text-decoration="none" x="600" y="150">UNREGISTERED</text><text fill="#eeeeee" stroke="none" font-family="Arial" font-size="24px" font-style="normal" font-weight="normal" text-decoration="none" x="600" y="180">UNREGISTERED</text><text fill="#eeeeee" stroke="none" font-family="Arial" font-size="24px" font-style="normal" font-weight="normal" text-decoration="none" x="600" y="210">UNREGISTERED</text><text fill="#eeeeee" stroke="none" font-family="Arial" font-size="24px" font-style="normal" font-weight="normal" text-decoration="none" x="600" y="240">UNREGISTERED</text><text fill="#eeeeee" stroke="none" font-family="Arial" font-size="24px" font-style="normal" font-weight="normal" text-decoration="none" x="600" y="270">UNREGISTERED</text><text fill="#eeeeee" stroke="none" font-family="Arial" font-size="24px" font-style="normal" font-weight="normal" text-decoration="none" x="600" y="300">UNREGISTERED</text><text fill="#eeeeee" stroke="none" font-family="Arial" font-size="24px" font-style="normal" font-weight="normal" text-decoration="none" x="600" y="330">UNREGISTERED</text><g transform="translate(-269,10) scale(1,1)"><path fill="none" stroke="#000000" d="M 360 0 L 1051 0 L 1051 312 L 360 312 L 360 0" stroke-miterlimit="10"/></g><g transform="translate(-269,10) scale(1,1)"><path fill="#ffffff" stroke="none" d="M 360 0 L 360 22 L 467.78076171875 22 L 478.78076171875 11 L 478.78076171875 0 L 360 0"/></g><g transform="translate(-269,10) scale(1,1)"><path fill="none" stroke="#000000" d="M 360 0 L 360 22 L 467.78076171875 22 L 478.78076171875 11 L 478.78076171875 0 L 360 0 L 360 0" stroke-miterlimit="10"/></g><g transform="translate(-269,10) scale(1,1)"><g><path fill="none" stroke="none"/><text fill="#000000" stroke="none" font-family="Arial" font-size="13px" font-style="normal" font-weight="normal" text-decoration="none" x="384.72998046875" y="15.5">athlete_insert</text></g></g><g transform="translate(-269,10) scale(1,1)"><g><path fill="none" stroke="none"/><text fill="#000000" stroke="none" font-family="Arial" font-size="13px" font-style="normal" font-weight="bold" text-decoration="none" x="364.279541015625" y="15.5">sd</text></g></g><g transform="translate(-269,10) scale(1,1)"><rect fill="#C0C0C0" stroke="none" x="727" y="47" width="166.34814453125" height="39" opacity="0.2"/></g><g transform="translate(-269,10) scale(1,1)"><rect fill="#ffffff" stroke="none" x="720" y="40" width="166.34814453125" height="39"/></g><g transform="translate(-269,10) scale(1,1)"><path fill="none" stroke="#000000" d="M 720 40 L 886.34814453125 40 L 886.34814453125 79 L 720 79 L 720 40 Z Z" stroke-miterlimit="10"/></g><g transform="translate(-269,10) scale(1,1)"><g><path fill="none" stroke="none"/><text fill="#000000" stroke="none" font-family="Arial" font-size="13px" font-style="normal" font-weight="bold" text-decoration="none" x="729.5" y="57.5">athleteDao: AthleteDAO</text></g></g><g transform="translate(-269,10) scale(1,1)"><path fill="none" stroke="#000000" d="M 804.5 80 L 804.5 288" stroke-miterlimit="10" stroke-dasharray="3"/></g><g transform="translate(-269,10) scale(1,1)"><rect fill="#ffffff" stroke="none" x="352" y="107.5" width="14" height="14"/></g><g transform="translate(-269,10) scale(1,1)"><path fill="none" stroke="#000000" d="M 352 107.5 L 366 107.5 L 366 121.5 L 352 121.5 L 352 107.5 Z Z" stroke-miterlimit="10"/></g><g transform="translate(-269,10) scale(1,1)"><rect fill="#ffffff" stroke="none" x="352" y="232.5" width="14" height="14"/></g><g transform="translate(-269,10) scale(1,1)"><path fill="none" stroke="#000000" d="M 352 232.5 L 366 232.5 L 366 246.5 L 352 246.5 L 352 232.5 Z Z" stroke-miterlimit="10"/></g><g transform="translate(-269,10) scale(1,1)"><rect fill="#C0C0C0" stroke="none" x="535" y="47" width="175.0380859375" height="39" opacity="0.2"/></g><g transform="translate(-269,10) scale(1,1)"><rect fill="#ffffff" stroke="none" x="528" y="40" width="175.0380859375" height="39"/></g><g transform="translate(-269,10) scale(1,1)"><path fill="none" stroke="#000000" d="M 528 40 L 703.0380859375 40 L 703.0380859375 79 L 528 79 L 528 40 Z Z" stroke-miterlimit="10"/></g><g transform="translate(-269,10) scale(1,1)"><g><path fill="none" stroke="none"/><text fill="#000000" stroke="none" font-family="Arial" font-size="13px" font-style="normal" font-weight="bold" text-decoration="none" x="537.5" y="57.5">singleton: AthleteService</text></g></g><g transform="translate(-269,10) scale(1,1)"><path fill="none" stroke="#000000" d="M 616.5 80 L 616.5 288" stroke-miterlimit="10" stroke-dasharray="3"/></g><g transform="translate(-269,10) scale(1,1)"><path fill="none" stroke="#000000" d="M 366 115 L 609 115" stroke-miterlimit="10"/></g><g transform="translate(-269,10) scale(1,1)"><path fill="#000000" stroke="none" d="M 598.8373251423759 119.20951775601598 L 609 115 L 598.8373251423758 110.79048224398402"/></g><g transform="translate(-269,10) scale(1,1)"><path fill="none" stroke="#000000" d="M 598.8373251423759 119.20951775601598 L 609 115 L 598.8373251423758 110.79048224398402 L 598.8373251423759 119.20951775601598" stroke-miterlimit="10"/></g><g transform="translate(-269,10) scale(1,1)"><g><path fill="none" stroke="none"/><text fill="#000000" stroke="none" font-family="Arial" font-size="13px" font-style="normal" font-weight="normal" text-decoration="none" x="372.43896484375" y="109.5">1 : athlele_insert(entityManager,athlete)</text></g></g><g transform="translate(-269,10) scale(1,1)"><rect fill="#ffffff" stroke="none" x="609" y="115" width="13" height="125"/></g><g transform="translate(-269,10) scale(1,1)"><path fill="none" stroke="#000000" d="M 609 115 L 622 115 L 622 240 L 609 240 L 609 115 Z Z" stroke-miterlimit="10"/></g><g transform="translate(-269,10) scale(1,1)"><path fill="none" stroke="#000000" d="M 622 128 L 797 128" stroke-miterlimit="10"/></g><g transform="translate(-269,10) scale(1,1)"><path fill="#000000" stroke="none" d="M 786.8373251423759 132.209517756016 L 797 128 L 786.8373251423758 123.79048224398402"/></g><g transform="translate(-269,10) scale(1,1)"><path fill="none" stroke="#000000" d="M 786.8373251423759 132.209517756016 L 797 128 L 786.8373251423758 123.79048224398402 L 786.8373251423759 132.209517756016" stroke-miterlimit="10"/></g><g transform="translate(-269,10) scale(1,1)"><g><path fill="none" stroke="none"/><text fill="#000000" stroke="none" font-family="Arial" font-size="13px" font-style="normal" font-weight="normal" text-decoration="none" x="657.69091796875" y="122.5">2 : create(athlete)</text></g></g><g transform="translate(-269,10) scale(1,1)"><rect fill="#ffffff" stroke="none" x="797" y="128" width="13" height="88"/></g><g transform="translate(-269,10) scale(1,1)"><path fill="none" stroke="#000000" d="M 797 128 L 810 128 L 810 216 L 797 216 L 797 128 Z Z" stroke-miterlimit="10"/></g><g transform="translate(-269,10) scale(1,1)"><path fill="none" stroke="#000000" d="M 810 136 L 840 136 L 840 156 L 817 156" stroke-miterlimit="10"/></g><g transform="translate(-269,10) scale(1,1)"><path fill="#000000" stroke="none" d="M 827.1626748576241 151.790482243984 L 817 156 L 827.1626748576241 160.209517756016"/></g><g transform="translate(-269,10) scale(1,1)"><path fill="none" stroke="#000000" d="M 827.1626748576241 151.790482243984 L 817 156 L 827.1626748576241 160.209517756016 L 827.1626748576241 151.790482243984" stroke-miterlimit="10"/></g><g transform="translate(-269,10) scale(1,1)"><g><path fill="none" stroke="none"/><text fill="#000000" stroke="none" font-family="Arial" font-size="13px" font-style="normal" font-weight="normal" text-decoration="none" x="847.5" y="149.5">3 : athlete = em.persist(athlete)</text></g></g><g transform="translate(-269,10) scale(1,1)"><rect fill="#ffffff" stroke="none" x="804" y="156" width="13" height="28"/></g><g transform="translate(-269,10) scale(1,1)"><path fill="none" stroke="#000000" d="M 804 156 L 817 156 L 817 184 L 804 184 L 804 156 Z Z" stroke-miterlimit="10"/></g><g transform="translate(-269,10) scale(1,1)"><path fill="none" stroke="#000000" d="M 804 216 L 622 216" stroke-miterlimit="10" stroke-dasharray="3"/></g><g transform="translate(-269,10) scale(1,1)"><path fill="none" stroke="#000000" d="M 632.1626748576241 211.790482243984 L 622 216 L 632.1626748576241 220.209517756016" stroke-miterlimit="10"/></g><g transform="translate(-269,10) scale(1,1)"><g><path fill="none" stroke="none"/><text fill="#000000" stroke="none" font-family="Arial" font-size="13px" font-style="normal" font-weight="normal" text-decoration="none" x="685.5" y="230.5">4 : return</text></g></g><g transform="translate(-269,10) scale(1,1)"><path fill="none" stroke="#000000" d="M 616 240 L 366 240" stroke-miterlimit="10" stroke-dasharray="3"/></g><g transform="translate(-269,10) scale(1,1)"><path fill="none" stroke="#000000" d="M 376.16267485762415 235.790482243984 L 366 240 L 376.16267485762415 244.209517756016" stroke-miterlimit="10"/></g><g transform="translate(-269,10) scale(1,1)"><g><path fill="none" stroke="none"/><text fill="#000000" stroke="none" font-family="Arial" font-size="13px" font-style="normal" font-weight="normal" text-decoration="none" x="464.344970703125" y="254.5">5 : return</text></g></g></g></svg>