<svg version="1.1" xmlns="http://www.w3.org/2000/svg" xmlns:xlink="http://www.w3.org/1999/xlink" width="742.3818359375" height="490"><defs/><g><text fill="#eeeeee" stroke="none" font-family="Arial" font-size="24px" font-style="normal" font-weight="normal" text-decoration="none" x="0" y="0">UNREGISTERED</text><text fill="#eeeeee" stroke="none" font-family="Arial" font-size="24px" font-style="normal" font-weight="normal" text-decoration="none" x="0" y="30">UNREGISTERED</text><text fill="#eeeeee" stroke="none" font-family="Arial" font-size="24px" font-style="normal" font-weight="normal" text-decoration="none" x="0" y="60">UNREGISTERED</text><text fill="#eeeeee" stroke="none" font-family="Arial" font-size="24px" font-style="normal" font-weight="normal" text-decoration="none" x="0" y="90">UNREGISTERED</text><text fill="#eeeeee" stroke="none" font-family="Arial" font-size="24px" font-style="normal" font-weight="normal" text-decoration="none" x="0" y="120">UNREGISTERED</text><text fill="#eeeeee" stroke="none" font-family="Arial" font-size="24px" font-style="normal" font-weight="normal" text-decoration="none" x="0" y="150">UNREGISTERED</text><text fill="#eeeeee" stroke="none" font-family="Arial" font-size="24px" font-style="normal" font-weight="normal" text-decoration="none" x="0" y="180">UNREGISTERED</text><text fill="#eeeeee" stroke="none" font-family="Arial" font-size="24px" font-style="normal" font-weight="normal" text-decoration="none" x="0" y="210">UNREGISTERED</text><text fill="#eeeeee" stroke="none" font-family="Arial" font-size="24px" font-style="normal" font-weight="normal" text-decoration="none" x="0" y="240">UNREGISTERED</text><text fill="#eeeeee" stroke="none" font-family="Arial" font-size="24px" font-style="normal" font-weight="normal" text-decoration="none" x="0" y="270">UNREGISTERED</text><text fill="#eeeeee" stroke="none" font-family="Arial" font-size="24px" font-style="normal" font-weight="normal" text-decoration="none" x="0" y="300">UNREGISTERED</text><text fill="#eeeeee" stroke="none" font-family="Arial" font-size="24px" font-style="normal" font-weight="normal" text-decoration="none" x="0" y="330">UNREGISTERED</text><text fill="#eeeeee" stroke="none" font-family="Arial" font-size="24px" font-style="normal" font-weight="normal" text-decoration="none" x="0" y="360">UNREGISTERED</text><text fill="#eeeeee" stroke="none" font-family="Arial" font-size="24px" font-style="normal" font-weight="normal" text-decoration="none" x="0" y="390">UNREGISTERED</text><text fill="#eeeeee" stroke="none" font-family="Arial" font-size="24px" font-style="normal" font-weight="normal" text-decoration="none" x="0" y="420">UNREGISTERED</text><text fill="#eeeeee" stroke="none" font-family="Arial" font-size="24px" font-style="normal" font-weight="normal" text-decoration="none" x="0" y="450">UNREGISTERED</text><text fill="#eeeeee" stroke="none" font-family="Arial" font-size="24px" font-style="normal" font-weight="normal" text-decoration="none" x="0" y="480">UNREGISTERED</text><text fill="#eeeeee" stroke="none" font-family="Arial" font-size="24px" font-style="normal" font-weight="normal" text-decoration="none" x="200" y="0">UNREGISTERED</text><text fill="#eeeeee" stroke="none" font-family="Arial" font-size="24px" font-style="normal" font-weight="normal" text-decoration="none" x="200" y="30">UNREGISTERED</text><text fill="#eeeeee" stroke="none" font-family="Arial" font-size="24px" font-style="normal" font-weight="normal" text-decoration="none" x="200" y="60">UNREGISTERED</text><text fill="#eeeeee" stroke="none" font-family="Arial" font-size="24px" font-style="normal" font-weight="normal" text-decoration="none" x="200" y="90">UNREGISTERED</text><text fill="#eeeeee" stroke="none" font-family="Arial" font-size="24px" font-style="normal" font-weight="normal" text-decoration="none" x="200" y="120">UNREGISTERED</text><text fill="#eeeeee" stroke="none" font-family="Arial" font-size="24px" font-style="normal" font-weight="normal" text-decoration="none" x="200" y="150">UNREGISTERED</text><text fill="#eeeeee" stroke="none" font-family="Arial" font-size="24px" font-style="normal" font-weight="normal" text-decoration="none" x="200" y="180">UNREGISTERED</text><text fill="#eeeeee" stroke="none" font-family="Arial" font-size="24px" font-style="normal" font-weight="normal" text-decoration="none" x="200" y="210">UNREGISTERED</text><text fill="#eeeeee" stroke="none" font-family="Arial" font-size="24px" font-style="normal" font-weight="normal" text-decoration="none" x="200" y="240">UNREGISTERED</text><text fill="#eeeeee" stroke="none" font-family="Arial" font-size="24px" font-style="normal" font-weight="normal" text-decoration="none" x="200" y="270">UNREGISTERED</text><text fill="#eeeeee" stroke="none" font-family="Arial" font-size="24px" font-style="normal" font-weight="normal" text-decoration="none" x="200" y="300">UNREGISTERED</text><text fill="#eeeeee" stroke="none" font-family="Arial" font-size="24px" font-style="normal" font-weight="normal" text-decoration="none" x="200" y="330">UNREGISTERED</text><text fill="#eeeeee" stroke="none" font-family="Arial" font-size="24px" font-style="normal" font-weight="normal" text-decoration="none" x="200" y="360">UNREGISTERED</text><text fill="#eeeeee" stroke="none" font-family="Arial" font-size="24px" font-style="normal" font-weight="normal" text-decoration="none" x="200" y="390">UNREGISTERED</text><text fill="#eeeeee" stroke="none" font-family="Arial" font-size="24px" font-style="normal" font-weight="normal" text-decoration="none" x="200" y="420">UNREGISTERED</text><text fill="#eeeeee" stroke="none" font-family="Arial" font-size="24px" font-style="normal" font-weight="normal" text-decoration="none" x="200" y="450">UNREGISTERED</text><text fill="#eeeeee" stroke="none" font-family="Arial" font-size="24px" font-style="normal" font-weight="normal" text-decoration="none" x="200" y="480">UNREGISTERED</text><text fill="#eeeeee" stroke="none" font-family="Arial" font-size="24px" font-style="normal" font-weight="normal" text-decoration="none" x="400" y="0">UNREGISTERED</text><text fill="#eeeeee" stroke="none" font-family="Arial" font-size="24px" font-style="normal" font-weight="normal" text-decoration="none" x="400" y="30">UNREGISTERED</text><text fill="#eeeeee" stroke="none" font-family="Arial" font-size="24px" font-style="normal" font-weight="normal" text-decoration="none" x="400" y="60">UNREGISTERED</text><text fill="#eeeeee" stroke="none" font-family="Arial" font-size="24px" font-style="normal" font-weight="normal" text-decoration="none" x="400" y="90">UNREGISTERED</text><text fill="#eeeeee" stroke="none" font-family="Arial" font-size="24px" font-style="normal" font-weight="normal" text-decoration="none" x="400" y="120">UNREGISTERED</text><text fill="#eeeeee" stroke="none" font-family="Arial" font-size="24px" font-style="normal" font-weight="normal" text-decoration="none" x="400" y="150">UNREGISTERED</text><text fill="#eeeeee" stroke="none" font-family="Arial" font-size="24px" font-style="normal" font-weight="normal" text-decoration="none" x="400" y="180">UNREGISTERED</text><text fill="#eeeeee" stroke="none" font-family="Arial" font-size="24px" font-style="normal" font-weight="normal" text-decoration="none" x="400" y="210">UNREGISTERED</text><text fill="#eeeeee" stroke="none" font-family="Arial" font-size="24px" font-style="normal" font-weight="normal" text-decoration="none" x="400" y="240">UNREGISTERED</text><text fill="#eeeeee" stroke="none" font-family="Arial" font-size="24px" font-style="normal" font-weight="normal" text-decoration="none" x="400" y="270">UNREGISTERED</text><text fill="#eeeeee" stroke="none" font-family="Arial" font-size="24px" font-style="normal" font-weight="normal" text-decoration="none" x="400" y="300">UNREGISTERED</text><text fill="#eeeeee" stroke="none" font-family="Arial" font-size="24px" font-style="normal" font-weight="normal" text-decoration="none" x="400" y="330">UNREGISTERED</text><text fill="#eeeeee" stroke="none" font-family="Arial" font-size="24px" font-style="normal" font-weight="normal" text-decoration="none" x="400" y="360">UNREGISTERED</text><text fill="#eeeeee" stroke="none" font-family="Arial" font-size="24px" font-style="normal" font-weight="normal" text-decoration="none" x="400" y="390">UNREGISTERED</text><text fill="#eeeeee" stroke="none" font-family="Arial" font-size="24px" font-style="normal" font-weight="normal" text-decoration="none" x="400" y="420">UNREGISTERED</text><text fill="#eeeeee" stroke="none" font-family="Arial" font-size="24px" font-style="normal" font-weight="normal" text-decoration="none" x="400" y="450">UNREGISTERED</text><text fill="#eeeeee" stroke="none" font-family="Arial" font-size="24px" font-style="normal" font-weight="normal" text-decoration="none" x="400" y="480">UNREGISTERED</text><text fill="#eeeeee" stroke="none" font-family="Arial" font-size="24px" font-style="normal" font-weight="normal" text-decoration="none" x="600" y="0">UNREGISTERED</text><text fill="#eeeeee" stroke="none" font-family="Arial" font-size="24px" font-style="normal" font-weight="normal" text-decoration="none" x="600" y="30">UNREGISTERED</text><text fill="#eeeeee" stroke="none" font-family="Arial" font-size="24px" font-style="normal" font-weight="normal" text-decoration="none" x="600" y="60">UNREGISTERED</text><text fill="#eeeeee" stroke="none" font-family="Arial" font-size="24px" font-style="normal" font-weight="normal" text-decoration="none" x="600" y="90">UNREGISTERED</text><text fill="#eeeeee" stroke="none" font-family="Arial" font-size="24px" font-style="normal" font-weight="normal" text-decoration="none" x="600" y="120">UNREGISTERED</text><text fill="#eeeeee" stroke="none" font-family="Arial" font-size="24px" font-style="normal" font-weight="normal" text-decoration="none" x="600" y="150">UNREGISTERED</text><text fill="#eeeeee" stroke="none" font-family="Arial" font-size="24px" font-style="normal" font-weight="normal" text-decoration="none" x="600" y="180">UNREGISTERED</text><text fill="#eeeeee" stroke="none" font-family="Arial" font-size="24px" font-style="normal" font-weight="normal" text-decoration="none" x="600" y="210">UNREGISTERED</text><text fill="#eeeeee" stroke="none" font-family="Arial" font-size="24px" font-style="normal" font-weight="normal" text-decoration="none" x="600" y="240">UNREGISTERED</text><text fill="#eeeeee" stroke="none" font-family="Arial" font-size="24px" font-style="normal" font-weight="normal" text-decoration="none" x="600" y="270">UNREGISTERED</text><text fill="#eeeeee" stroke="none" font-family="Arial" font-size="24px" font-style="normal" font-weight="normal" text-decoration="none" x="600" y="300">UNREGISTERED</text><text fill="#eeeeee" stroke="none" font-family="Arial" font-size="24px" font-style="normal" font-weight="normal" text-decoration="none" x="600" y="330">UNREGISTERED</text><text fill="#eeeeee" stroke="none" font-family="Arial" font-size="24px" font-style="normal" font-weight="normal" text-decoration="none" x="600" y="360">UNREGISTERED</text><text fill="#eeeeee" stroke="none" font-family="Arial" font-size="24px" font-style="normal" font-weight="normal" text-decoration="none" x="600" y="390">UNREGISTERED</text><text fill="#eeeeee" stroke="none" font-family="Arial" font-size="24px" font-style="normal" font-weight="normal" text-decoration="none" x="600" y="420">UNREGISTERED</text><text fill="#eeeeee" stroke="none" font-family="Arial" font-size="24px" font-style="normal" font-weight="normal" text-decoration="none" x="600" y="450">UNREGISTERED</text><text fill="#eeeeee" stroke="none" font-family="Arial" font-size="24px" font-style="normal" font-weight="normal" text-decoration="none" x="600" y="480">UNREGISTERED</text><g transform="translate(-726,-406) scale(1,1)"><rect fill="#C0C0C0" stroke="none" x="943" y="423" width="183.58447265625" height="90" opacity="0.2"/></g><g transform="translate(-726,-406) scale(1,1)"><rect fill="#ffffff" stroke="none" x="936" y="416" width="183.58447265625" height="90"/></g><g transform="translate(-726,-406) scale(1,1)"><path fill="none" stroke="#000000" d="M 936 416 L 1119.58447265625 416 L 1119.58447265625 506 L 936 506 L 936 416 Z Z" stroke-miterlimit="10"/></g><g transform="translate(-726,-406) scale(1,1)"><path fill="none" stroke="#000000" d="M 936 439 L 1119.58447265625 439" stroke-miterlimit="10"/></g><g transform="translate(-726,-406) scale(1,1)"><path fill="none" stroke="#000000" d="M 964.05908203125 439 L 964.05908203125 506" stroke-miterlimit="10"/></g><g transform="translate(-726,-406) scale(1,1)"><path fill="none" stroke="#000000" d="M 1052.8017578125 439 L 1052.8017578125 506" stroke-miterlimit="10"/></g><g transform="translate(-726,-406) scale(1,1)"><g><path fill="none" stroke="none"/><text fill="#000000" stroke="none" font-family="Arial" font-size="13px" font-style="normal" font-weight="bold" text-decoration="none" x="1002.141357421875" y="431.5">Epreuve</text></g></g><g transform="translate(-726,-406) scale(1,1)"><g><path fill="none" stroke="none"/><text fill="#000000" stroke="none" font-family="Arial" font-size="13px" font-style="normal" font-weight="normal" text-decoration="none" x="941" y="453">PK</text></g></g><g transform="translate(-726,-406) scale(1,1)"><g><path fill="none" stroke="none"/><text fill="#000000" stroke="none" font-family="Arial" font-size="13px" font-style="normal" font-weight="normal" text-decoration="none" x="969.05908203125" y="453">numEpreuve</text></g></g><g transform="translate(-726,-406) scale(1,1)"><g><path fill="none" stroke="none"/><text fill="#000000" stroke="none" font-family="Arial" font-size="13px" font-style="normal" font-weight="normal" text-decoration="none" x="1057.8017578125" y="453">INTEGER</text></g></g><g transform="translate(-726,-406) scale(1,1)"><g><path fill="none" stroke="none"/><text fill="#000000" stroke="none" font-family="Arial" font-size="13px" font-style="normal" font-weight="normal" text-decoration="none" x="941" y="450"></text></g></g><g transform="translate(-726,-406) scale(1,1)"><g><path fill="none" stroke="none"/><text fill="#000000" stroke="none" font-family="Arial" font-size="13px" font-style="normal" font-weight="normal" text-decoration="none" x="941" y="468">FK</text></g></g><g transform="translate(-726,-406) scale(1,1)"><g><path fill="none" stroke="none"/><text fill="#000000" stroke="none" font-family="Arial" font-size="13px" font-style="normal" font-weight="normal" text-decoration="none" x="969.05908203125" y="468">numSport</text></g></g><g transform="translate(-726,-406) scale(1,1)"><g><path fill="none" stroke="none"/><text fill="#000000" stroke="none" font-family="Arial" font-size="13px" font-style="normal" font-weight="normal" text-decoration="none" x="1057.8017578125" y="468">INTEGER</text></g></g><g transform="translate(-726,-406) scale(1,1)"><g><path fill="none" stroke="none"/><text fill="#000000" stroke="none" font-family="Arial" font-size="13px" font-style="normal" font-weight="normal" text-decoration="none" x="941" y="465"></text></g></g><g transform="translate(-726,-406) scale(1,1)"><rect fill="#C0C0C0" stroke="none" x="1375" y="431" width="90.3818359375" height="45" opacity="0.2"/></g><g transform="translate(-726,-406) scale(1,1)"><rect fill="#ffffff" stroke="none" x="1368" y="424" width="90.3818359375" height="45"/></g><g transform="translate(-726,-406) scale(1,1)"><path fill="none" stroke="#000000" d="M 1368 424 L 1458.3818359375 424 L 1458.3818359375 469 L 1368 469 L 1368 424 Z Z" stroke-miterlimit="10"/></g><g transform="translate(-726,-406) scale(1,1)"><path fill="none" stroke="#000000" d="M 1368 447 L 1458.3818359375 447" stroke-miterlimit="10"/></g><g transform="translate(-726,-406) scale(1,1)"><path fill="none" stroke="#000000" d="M 1378 447 L 1378 469" stroke-miterlimit="10"/></g><g transform="translate(-726,-406) scale(1,1)"><path fill="none" stroke="#000000" d="M 1449.3818359375 447 L 1449.3818359375 469" stroke-miterlimit="10"/></g><g transform="translate(-726,-406) scale(1,1)"><g><path fill="none" stroke="none"/><text fill="#000000" stroke="none" font-family="Arial" font-size="13px" font-style="normal" font-weight="bold" text-decoration="none" x="1396.220458984375" y="439.5">Sport</text></g></g><g transform="translate(-726,-406) scale(1,1)"><g><path fill="none" stroke="none"/><text fill="#000000" stroke="none" font-family="Arial" font-size="13px" font-style="normal" font-weight="normal" text-decoration="none" x="1373" y="452"></text></g></g><g transform="translate(-726,-406) scale(1,1)"><g><path fill="none" stroke="none"/><text fill="#000000" stroke="none" font-family="Arial" font-size="13px" font-style="normal" font-weight="normal" text-decoration="none" x="1383" y="461">numSport</text></g></g><g transform="translate(-726,-406) scale(1,1)"><g><path fill="none" stroke="none"/><text fill="#000000" stroke="none" font-family="Arial" font-size="13px" font-style="normal" font-weight="normal" text-decoration="none" x="1454.3818359375" y="452"></text></g></g><g transform="translate(-726,-406) scale(1,1)"><g><path fill="none" stroke="none"/><text fill="#000000" stroke="none" font-family="Arial" font-size="13px" font-style="normal" font-weight="normal" text-decoration="none" x="1373" y="458"></text></g></g><g transform="translate(-726,-406) scale(1,1)"><path fill="none" stroke="#000000" d="M 1368 440 L 1120 440" stroke-miterlimit="10"/></g><g transform="translate(-726,-406) scale(1,1)"><path fill="none" stroke="#000000" d="M 1134 440 L 1120 433" stroke-miterlimit="10"/></g><g transform="translate(-726,-406) scale(1,1)"><path fill="none" stroke="#000000" d="M 1134 440 L 1120 447" stroke-miterlimit="10"/></g><g transform="translate(-726,-406) scale(1,1)"><path fill="#FFFFFF" stroke="none" d="M 1135 440 C 1135 436.1340064 1138.1340064 433 1142 433 C 1145.8659936 433 1149 436.1340064 1149 440 C 1149 443.8659936 1145.8659936 447 1142 447 C 1138.1340064 447 1135 443.8659936 1135 440 Z"/></g><g transform="translate(-726,-406) scale(1,1)"><path fill="none" stroke="#000000" d="M 1135 440 C 1135 436.1340064 1138.1340064 433 1142 433 C 1145.8659936 433 1149 436.1340064 1149 440 C 1149 443.8659936 1145.8659936 447 1142 447 C 1138.1340064 447 1135 443.8659936 1135 440 Z" stroke-miterlimit="10"/></g><g transform="translate(-726,-406) scale(1,1)"><path fill="none" stroke="#000000" d="M 1361 447 L 1361 433" stroke-miterlimit="10"/></g><g transform="translate(-726,-406) scale(1,1)"><path fill="none" stroke="#000000" d="M 1354 447 L 1354 433" stroke-miterlimit="10"/></g><g transform="translate(-726,-406) scale(1,1)"><g><path fill="none" stroke="none"/><text fill="#000000" stroke="none" font-family="Arial" font-size="13px" font-style="normal" font-weight="normal" text-decoration="none" x="1341.5" y="454"></text></g></g><g transform="translate(-726,-406) scale(1,1)"><g><path fill="none" stroke="none"/><text fill="#000000" stroke="none" font-family="Arial" font-size="13px" font-style="normal" font-weight="normal" text-decoration="none" x="1144.5" y="454"></text></g></g><g transform="translate(-726,-406) scale(1,1)"><rect fill="#C0C0C0" stroke="none" x="743" y="423" width="53.05908203125" height="32" opacity="0.2"/></g><g transform="translate(-726,-406) scale(1,1)"><rect fill="#ffffff" stroke="none" x="736" y="416" width="53.05908203125" height="32"/></g><g transform="translate(-726,-406) scale(1,1)"><path fill="none" stroke="#000000" d="M 736 416 L 789.05908203125 416 L 789.05908203125 448 L 736 448 L 736 416 Z Z" stroke-miterlimit="10"/></g><g transform="translate(-726,-406) scale(1,1)"><g><path fill="none" stroke="none"/><text fill="#000000" stroke="none" font-family="Arial" font-size="13px" font-style="normal" font-weight="bold" text-decoration="none" x="740.5" y="431.5">Athlete</text></g></g><g transform="translate(-726,-406) scale(1,1)"><rect fill="#C0C0C0" stroke="none" x="743" y="584" width="52.33544921875" height="32" opacity="0.2"/></g><g transform="translate(-726,-406) scale(1,1)"><rect fill="#ffffff" stroke="none" x="736" y="577" width="52.33544921875" height="32"/></g><g transform="translate(-726,-406) scale(1,1)"><path fill="none" stroke="#000000" d="M 736 577 L 788.33544921875 577 L 788.33544921875 609 L 736 609 L 736 577 Z Z" stroke-miterlimit="10"/></g><g transform="translate(-726,-406) scale(1,1)"><g><path fill="none" stroke="none"/><text fill="#000000" stroke="none" font-family="Arial" font-size="13px" font-style="normal" font-weight="bold" text-decoration="none" x="740.5" y="592.5">Equipe</text></g></g><g transform="translate(-726,-406) scale(1,1)"><rect fill="#C0C0C0" stroke="none" x="943" y="583" width="58.8544921875" height="32" opacity="0.2"/></g><g transform="translate(-726,-406) scale(1,1)"><rect fill="#ffffff" stroke="none" x="936" y="576" width="58.8544921875" height="32"/></g><g transform="translate(-726,-406) scale(1,1)"><path fill="none" stroke="#000000" d="M 936 576 L 994.8544921875 576 L 994.8544921875 608 L 936 608 L 936 576 Z Z" stroke-miterlimit="10"/></g><g transform="translate(-726,-406) scale(1,1)"><g><path fill="none" stroke="none"/><text fill="#000000" stroke="none" font-family="Arial" font-size="13px" font-style="normal" font-weight="bold" text-decoration="none" x="940.5" y="591.5">Session</text></g></g><g transform="translate(-726,-406) scale(1,1)"><rect fill="#C0C0C0" stroke="none" x="911" y="831" width="115.21533203125" height="32" opacity="0.2"/></g><g transform="translate(-726,-406) scale(1,1)"><rect fill="#ffffff" stroke="none" x="904" y="824" width="115.21533203125" height="32"/></g><g transform="translate(-726,-406) scale(1,1)"><path fill="none" stroke="#000000" d="M 904 824 L 1019.21533203125 824 L 1019.21533203125 856 L 904 856 L 904 824 Z Z" stroke-miterlimit="10"/></g><g transform="translate(-726,-406) scale(1,1)"><g><path fill="none" stroke="none"/><text fill="#000000" stroke="none" font-family="Arial" font-size="13px" font-style="normal" font-weight="bold" text-decoration="none" x="908.5" y="839.5">Annee_bissextile</text></g></g><g transform="translate(-726,-406) scale(1,1)"><path fill="none" stroke="#000000" d="M 936 432 L 789 432" stroke-miterlimit="10"/></g><g transform="translate(-726,-406) scale(1,1)"><path fill="none" stroke="#000000" d="M 803 432 L 789 425" stroke-miterlimit="10"/></g><g transform="translate(-726,-406) scale(1,1)"><path fill="none" stroke="#000000" d="M 803 432 L 789 439" stroke-miterlimit="10"/></g><g transform="translate(-726,-406) scale(1,1)"><path fill="#FFFFFF" stroke="none" d="M 804 432 C 804 428.1340064 807.1340064 425 811 425 C 814.8659936 425 818 428.1340064 818 432 C 818 435.8659936 814.8659936 439 811 439 C 807.1340064 439 804 435.8659936 804 432 Z"/></g><g transform="translate(-726,-406) scale(1,1)"><path fill="none" stroke="#000000" d="M 804 432 C 804 428.1340064 807.1340064 425 811 425 C 814.8659936 425 818 428.1340064 818 432 C 818 435.8659936 814.8659936 439 811 439 C 807.1340064 439 804 435.8659936 804 432 Z" stroke-miterlimit="10"/></g><g transform="translate(-726,-406) scale(1,1)"><path fill="none" stroke="#000000" d="M 922 432 L 936 439" stroke-miterlimit="10"/></g><g transform="translate(-726,-406) scale(1,1)"><path fill="none" stroke="#000000" d="M 922 432 L 936 425" stroke-miterlimit="10"/></g><g transform="translate(-726,-406) scale(1,1)"><path fill="#FFFFFF" stroke="none" d="M 907 432 C 907 428.1340064 910.1340064 425 914 425 C 917.8659936 425 921 428.1340064 921 432 C 921 435.8659936 917.8659936 439 914 439 C 910.1340064 439 907 435.8659936 907 432 Z"/></g><g transform="translate(-726,-406) scale(1,1)"><path fill="none" stroke="#000000" d="M 907 432 C 907 428.1340064 910.1340064 425 914 425 C 917.8659936 425 921 428.1340064 921 432 C 921 435.8659936 917.8659936 439 914 439 C 910.1340064 439 907 435.8659936 907 432 Z" stroke-miterlimit="10"/></g><g transform="translate(-726,-406) scale(1,1)"><g><path fill="none" stroke="none"/><text fill="#000000" stroke="none" font-family="Arial" font-size="13px" font-style="normal" font-weight="normal" text-decoration="none" x="909.5" y="446"></text></g></g><g transform="translate(-726,-406) scale(1,1)"><g><path fill="none" stroke="none"/><text fill="#000000" stroke="none" font-family="Arial" font-size="13px" font-style="normal" font-weight="normal" text-decoration="none" x="813.5" y="446"></text></g></g><g transform="translate(-726,-406) scale(1,1)"><path fill="none" stroke="#000000" d="M 764 448 L 764 577" stroke-miterlimit="10"/></g><g transform="translate(-726,-406) scale(1,1)"><path fill="none" stroke="#000000" d="M 764 563 L 757 577" stroke-miterlimit="10"/></g><g transform="translate(-726,-406) scale(1,1)"><path fill="none" stroke="#000000" d="M 764 563 L 771 577" stroke-miterlimit="10"/></g><g transform="translate(-726,-406) scale(1,1)"><path fill="#FFFFFF" stroke="none" d="M 757 555 C 757 551.1340064 760.1340064 548 764 548 C 767.8659936 548 771 551.1340064 771 555 C 771 558.8659936 767.8659936 562 764 562 C 760.1340064 562 757 558.8659936 757 555 Z"/></g><g transform="translate(-726,-406) scale(1,1)"><path fill="none" stroke="#000000" d="M 757 555 C 757 551.1340064 760.1340064 548 764 548 C 767.8659936 548 771 551.1340064 771 555 C 771 558.8659936 767.8659936 562 764 562 C 760.1340064 562 757 558.8659936 757 555 Z" stroke-miterlimit="10"/></g><g transform="translate(-726,-406) scale(1,1)"><path fill="none" stroke="#000000" d="M 764 462 L 771 448" stroke-miterlimit="10"/></g><g transform="translate(-726,-406) scale(1,1)"><path fill="none" stroke="#000000" d="M 764 462 L 757 448" stroke-miterlimit="10"/></g><g transform="translate(-726,-406) scale(1,1)"><path fill="#FFFFFF" stroke="none" d="M 757 470 C 757 466.1340064 760.1340064 463 764 463 C 767.8659936 463 771 466.1340064 771 470 C 771 473.8659936 767.8659936 477 764 477 C 760.1340064 477 757 473.8659936 757 470 Z"/></g><g transform="translate(-726,-406) scale(1,1)"><path fill="none" stroke="#000000" d="M 757 470 C 757 466.1340064 760.1340064 463 764 463 C 767.8659936 463 771 466.1340064 771 470 C 771 473.8659936 767.8659936 477 764 477 C 760.1340064 477 757 473.8659936 757 470 Z" stroke-miterlimit="10"/></g><g transform="translate(-726,-406) scale(1,1)"><g><path fill="none" stroke="none"/><text fill="#000000" stroke="none" font-family="Arial" font-size="13px" font-style="normal" font-weight="normal" text-decoration="none" x="778.5" y="473"></text></g></g><g transform="translate(-726,-406) scale(1,1)"><g><path fill="none" stroke="none"/><text fill="#000000" stroke="none" font-family="Arial" font-size="13px" font-style="normal" font-weight="normal" text-decoration="none" x="778.5" y="551"></text></g></g><g transform="translate(-726,-406) scale(1,1)"><path fill="none" stroke="#000000" d="M 788 593 L 936 593" stroke-miterlimit="10"/></g><g transform="translate(-726,-406) scale(1,1)"><path fill="none" stroke="#000000" d="M 922 593 L 936 600" stroke-miterlimit="10"/></g><g transform="translate(-726,-406) scale(1,1)"><path fill="none" stroke="#000000" d="M 922 593 L 936 586" stroke-miterlimit="10"/></g><g transform="translate(-726,-406) scale(1,1)"><path fill="#FFFFFF" stroke="none" d="M 907 593 C 907 589.1340064 910.1340064 586 914 586 C 917.8659936 586 921 589.1340064 921 593 C 921 596.8659936 917.8659936 600 914 600 C 910.1340064 600 907 596.8659936 907 593 Z"/></g><g transform="translate(-726,-406) scale(1,1)"><path fill="none" stroke="#000000" d="M 907 593 C 907 589.1340064 910.1340064 586 914 586 C 917.8659936 586 921 589.1340064 921 593 C 921 596.8659936 917.8659936 600 914 600 C 910.1340064 600 907 596.8659936 907 593 Z" stroke-miterlimit="10"/></g><g transform="translate(-726,-406) scale(1,1)"><path fill="none" stroke="#000000" d="M 802 593 L 788 586" stroke-miterlimit="10"/></g><g transform="translate(-726,-406) scale(1,1)"><path fill="none" stroke="#000000" d="M 802 593 L 788 600" stroke-miterlimit="10"/></g><g transform="translate(-726,-406) scale(1,1)"><path fill="#FFFFFF" stroke="none" d="M 803 593 C 803 589.1340064 806.1340064 586 810 586 C 813.8659936 586 817 589.1340064 817 593 C 817 596.8659936 813.8659936 600 810 600 C 806.1340064 600 803 596.8659936 803 593 Z"/></g><g transform="translate(-726,-406) scale(1,1)"><path fill="none" stroke="#000000" d="M 803 593 C 803 589.1340064 806.1340064 586 810 586 C 813.8659936 586 817 589.1340064 817 593 C 817 596.8659936 813.8659936 600 810 600 C 806.1340064 600 803 596.8659936 803 593 Z" stroke-miterlimit="10"/></g><g transform="translate(-726,-406) scale(1,1)"><g><path fill="none" stroke="none"/><text fill="#000000" stroke="none" font-family="Arial" font-size="13px" font-style="normal" font-weight="normal" text-decoration="none" x="812.5" y="578"></text></g></g><g transform="translate(-726,-406) scale(1,1)"><g><path fill="none" stroke="none"/><text fill="#000000" stroke="none" font-family="Arial" font-size="13px" font-style="normal" font-weight="normal" text-decoration="none" x="909.5" y="578"></text></g></g><g transform="translate(-726,-406) scale(1,1)"><rect fill="#C0C0C0" stroke="none" x="1071" y="583" width="35.50146484375" height="32" opacity="0.2"/></g><g transform="translate(-726,-406) scale(1,1)"><rect fill="#ffffff" stroke="none" x="1064" y="576" width="35.50146484375" height="32"/></g><g transform="translate(-726,-406) scale(1,1)"><path fill="none" stroke="#000000" d="M 1064 576 L 1099.50146484375 576 L 1099.50146484375 608 L 1064 608 L 1064 576 Z Z" stroke-miterlimit="10"/></g><g transform="translate(-726,-406) scale(1,1)"><g><path fill="none" stroke="none"/><text fill="#000000" stroke="none" font-family="Arial" font-size="13px" font-style="normal" font-weight="bold" text-decoration="none" x="1068.5" y="591.5">Ville</text></g></g><g transform="translate(-726,-406) scale(1,1)"><path fill="none" stroke="#000000" d="M 1064 592 L 995 592" stroke-miterlimit="10"/></g><g transform="translate(-726,-406) scale(1,1)"><path fill="none" stroke="#000000" d="M 1009 592 L 995 585" stroke-miterlimit="10"/></g><g transform="translate(-726,-406) scale(1,1)"><path fill="none" stroke="#000000" d="M 1009 592 L 995 599" stroke-miterlimit="10"/></g><g transform="translate(-726,-406) scale(1,1)"><path fill="#FFFFFF" stroke="none" d="M 1010 592 C 1010 588.1340064 1013.1340064 585 1017 585 C 1020.8659936 585 1024 588.1340064 1024 592 C 1024 595.8659936 1020.8659936 599 1017 599 C 1013.1340064 599 1010 595.8659936 1010 592 Z"/></g><g transform="translate(-726,-406) scale(1,1)"><path fill="none" stroke="#000000" d="M 1010 592 C 1010 588.1340064 1013.1340064 585 1017 585 C 1020.8659936 585 1024 588.1340064 1024 592 C 1024 595.8659936 1020.8659936 599 1017 599 C 1013.1340064 599 1010 595.8659936 1010 592 Z" stroke-miterlimit="10"/></g><g transform="translate(-726,-406) scale(1,1)"><path fill="none" stroke="#000000" d="M 1057 599 L 1057 585" stroke-miterlimit="10"/></g><g transform="translate(-726,-406) scale(1,1)"><path fill="none" stroke="#000000" d="M 1050 599 L 1050 585" stroke-miterlimit="10"/></g><g transform="translate(-726,-406) scale(1,1)"><g><path fill="none" stroke="none"/><text fill="#000000" stroke="none" font-family="Arial" font-size="13px" font-style="normal" font-weight="normal" text-decoration="none" x="1037.5" y="606"></text></g></g><g transform="translate(-726,-406) scale(1,1)"><g><path fill="none" stroke="none"/><text fill="#000000" stroke="none" font-family="Arial" font-size="13px" font-style="normal" font-weight="normal" text-decoration="none" x="1019.5" y="606"></text></g></g><g transform="translate(-726,-406) scale(1,1)"><path fill="none" stroke="#000000" d="M 960 608 L 960 824" stroke-miterlimit="10"/></g><g transform="translate(-726,-406) scale(1,1)"><path fill="none" stroke="#000000" d="M 953 817 L 967 817" stroke-miterlimit="10"/></g><g transform="translate(-726,-406) scale(1,1)"><path fill="none" stroke="#000000" d="M 953 810 L 967 810" stroke-miterlimit="10"/></g><g transform="translate(-726,-406) scale(1,1)"><path fill="none" stroke="#000000" d="M 967 615 L 953 615" stroke-miterlimit="10"/></g><g transform="translate(-726,-406) scale(1,1)"><path fill="none" stroke="#000000" d="M 967 622 L 953 622" stroke-miterlimit="10"/></g><g transform="translate(-726,-406) scale(1,1)"><g><path fill="none" stroke="none"/><text fill="#000000" stroke="none" font-family="Arial" font-size="13px" font-style="normal" font-weight="normal" text-decoration="none" x="974.5" y="633"></text></g></g><g transform="translate(-726,-406) scale(1,1)"><g><path fill="none" stroke="none"/><text fill="#000000" stroke="none" font-family="Arial" font-size="13px" font-style="normal" font-weight="normal" text-decoration="none" x="974.5" y="798"></text></g></g><g transform="translate(-726,-406) scale(1,1)"><path fill="#ffff91" stroke="none" d="M 1080 784 L 1168 784 L 1178 794 L 1178 885 L 1080 885 L 1080 784"/></g><g transform="translate(-726,-406) scale(1,1)"><path fill="none" stroke="#000000" d="M 1080 784 L 1168 784 L 1178 794 L 1178 885 L 1080 885 L 1080 784 L 1080 784" stroke-miterlimit="10"/></g><g transform="translate(-726,-406) scale(1,1)"><path fill="none" stroke="#000000" d="M 1168 784 L 1168 794 L 1178 794 L 1168 784" stroke-miterlimit="10"/></g><g transform="translate(-726,-406) scale(1,1)"><g><path fill="none" stroke="none"/><text fill="#000000" stroke="none" font-family="Arial" font-size="13px" font-style="normal" font-weight="normal" text-decoration="none" x="1085" y="798">Le choix de la</text><text fill="#000000" stroke="none" font-family="Arial" font-size="13px" font-style="normal" font-weight="normal" text-decoration="none" x="1085" y="811">relation</text><text fill="#000000" stroke="none" font-family="Arial" font-size="13px" font-style="normal" font-weight="normal" text-decoration="none" x="1085" y="824">oneToOne est</text><text fill="#000000" stroke="none" font-family="Arial" font-size="13px" font-style="normal" font-weight="normal" text-decoration="none" x="1085" y="837">justifié dans le</text><text fill="#000000" stroke="none" font-family="Arial" font-size="13px" font-style="normal" font-weight="normal" text-decoration="none" x="1085" y="850">diagramme</text><text fill="#000000" stroke="none" font-family="Arial" font-size="13px" font-style="normal" font-weight="normal" text-decoration="none" x="1085" y="863">des classes</text></g></g><g transform="translate(-726,-406) scale(1,1)"><path fill="none" stroke="#000000" d="M 1020 838 L 1079 836" stroke-miterlimit="10" stroke-dasharray="3"/></g><g transform="translate(-726,-406) scale(1,1)"><rect fill="#C0C0C0" stroke="none" x="743" y="790" width="39.36083984375" height="32" opacity="0.2"/></g><g transform="translate(-726,-406) scale(1,1)"><rect fill="#ffffff" stroke="none" x="736" y="783" width="39.36083984375" height="32"/></g><g transform="translate(-726,-406) scale(1,1)"><path fill="none" stroke="#000000" d="M 736 783 L 775.36083984375 783 L 775.36083984375 815 L 736 815 L 736 783 Z Z" stroke-miterlimit="10"/></g><g transform="translate(-726,-406) scale(1,1)"><g><path fill="none" stroke="none"/><text fill="#000000" stroke="none" font-family="Arial" font-size="13px" font-style="normal" font-weight="bold" text-decoration="none" x="740.5" y="798.5">Pays</text></g></g><g transform="translate(-726,-406) scale(1,1)"><path fill="none" stroke="#000000" d="M 762 783 L 762 609" stroke-miterlimit="10"/></g><g transform="translate(-726,-406) scale(1,1)"><path fill="none" stroke="#000000" d="M 762 623 L 769 609" stroke-miterlimit="10"/></g><g transform="translate(-726,-406) scale(1,1)"><path fill="none" stroke="#000000" d="M 762 623 L 755 609" stroke-miterlimit="10"/></g><g transform="translate(-726,-406) scale(1,1)"><path fill="#FFFFFF" stroke="none" d="M 755 631 C 755 627.1340064 758.1340064 624 762 624 C 765.8659936 624 769 627.1340064 769 631 C 769 634.8659936 765.8659936 638 762 638 C 758.1340064 638 755 634.8659936 755 631 Z"/></g><g transform="translate(-726,-406) scale(1,1)"><path fill="none" stroke="#000000" d="M 755 631 C 755 627.1340064 758.1340064 624 762 624 C 765.8659936 624 769 627.1340064 769 631 C 769 634.8659936 765.8659936 638 762 638 C 758.1340064 638 755 634.8659936 755 631 Z" stroke-miterlimit="10"/></g><g transform="translate(-726,-406) scale(1,1)"><path fill="none" stroke="#000000" d="M 755 776 L 769 776" stroke-miterlimit="10"/></g><g transform="translate(-726,-406) scale(1,1)"><path fill="none" stroke="#000000" d="M 755 769 L 769 769" stroke-miterlimit="10"/></g><g transform="translate(-726,-406) scale(1,1)"><g><path fill="none" stroke="none"/><text fill="#000000" stroke="none" font-family="Arial" font-size="13px" font-style="normal" font-weight="normal" text-decoration="none" x="746.5" y="757"></text></g></g><g transform="translate(-726,-406) scale(1,1)"><g><path fill="none" stroke="none"/><text fill="#000000" stroke="none" font-family="Arial" font-size="13px" font-style="normal" font-weight="normal" text-decoration="none" x="746.5" y="634"></text></g></g></g></svg>