<svg version="1.1" xmlns="http://www.w3.org/2000/svg" xmlns:xlink="http://www.w3.org/1999/xlink" width="996" height="660"><defs/><g><text fill="#eeeeee" stroke="none" font-family="Arial" font-size="24px" font-style="normal" font-weight="normal" text-decoration="none" x="0" y="0">UNREGISTERED</text><text fill="#eeeeee" stroke="none" font-family="Arial" font-size="24px" font-style="normal" font-weight="normal" text-decoration="none" x="0" y="30">UNREGISTERED</text><text fill="#eeeeee" stroke="none" font-family="Arial" font-size="24px" font-style="normal" font-weight="normal" text-decoration="none" x="0" y="60">UNREGISTERED</text><text fill="#eeeeee" stroke="none" font-family="Arial" font-size="24px" font-style="normal" font-weight="normal" text-decoration="none" x="0" y="90">UNREGISTERED</text><text fill="#eeeeee" stroke="none" font-family="Arial" font-size="24px" font-style="normal" font-weight="normal" text-decoration="none" x="0" y="120">UNREGISTERED</text><text fill="#eeeeee" stroke="none" font-family="Arial" font-size="24px" font-style="normal" font-weight="normal" text-decoration="none" x="0" y="150">UNREGISTERED</text><text fill="#eeeeee" stroke="none" font-family="Arial" font-size="24px" font-style="normal" font-weight="normal" text-decoration="none" x="0" y="180">UNREGISTERED</text><text fill="#eeeeee" stroke="none" font-family="Arial" font-size="24px" font-style="normal" font-weight="normal" text-decoration="none" x="0" y="210">UNREGISTERED</text><text fill="#eeeeee" stroke="none" font-family="Arial" font-size="24px" font-style="normal" font-weight="normal" text-decoration="none" x="0" y="240">UNREGISTERED</text><text fill="#eeeeee" stroke="none" font-family="Arial" font-size="24px" font-style="normal" font-weight="normal" text-decoration="none" x="0" y="270">UNREGISTERED</text><text fill="#eeeeee" stroke="none" font-family="Arial" font-size="24px" font-style="normal" font-weight="normal" text-decoration="none" x="0" y="300">UNREGISTERED</text><text fill="#eeeeee" stroke="none" font-family="Arial" font-size="24px" font-style="normal" font-weight="normal" text-decoration="none" x="0" y="330">UNREGISTERED</text><text fill="#eeeeee" stroke="none" font-family="Arial" font-size="24px" font-style="normal" font-weight="normal" text-decoration="none" x="0" y="360">UNREGISTERED</text><text fill="#eeeeee" stroke="none" font-family="Arial" font-size="24px" font-style="normal" font-weight="normal" text-decoration="none" x="0" y="390">UNREGISTERED</text><text fill="#eeeeee" stroke="none" font-family="Arial" font-size="24px" font-style="normal" font-weight="normal" text-decoration="none" x="0" y="420">UNREGISTERED</text><text fill="#eeeeee" stroke="none" font-family="Arial" font-size="24px" font-style="normal" font-weight="normal" text-decoration="none" x="0" y="450">UNREGISTERED</text><text fill="#eeeeee" stroke="none" font-family="Arial" font-size="24px" font-style="normal" font-weight="normal" text-decoration="none" x="0" y="480">UNREGISTERED</text><text fill="#eeeeee" stroke="none" font-family="Arial" font-size="24px" font-style="normal" font-weight="normal" text-decoration="none" x="0" y="510">UNREGISTERED</text><text fill="#eeeeee" stroke="none" font-family="Arial" font-size="24px" font-style="normal" font-weight="normal" text-decoration="none" x="0" y="540">UNREGISTERED</text><text fill="#eeeeee" stroke="none" font-family="Arial" font-size="24px" font-style="normal" font-weight="normal" text-decoration="none" x="0" y="570">UNREGISTERED</text><text fill="#eeeeee" stroke="none" font-family="Arial" font-size="24px" font-style="normal" font-weight="normal" text-decoration="none" x="0" y="600">UNREGISTERED</text><text fill="#eeeeee" stroke="none" font-family="Arial" font-size="24px" font-style="normal" font-weight="normal" text-decoration="none" x="0" y="630">UNREGISTERED</text><text fill="#eeeeee" stroke="none" font-family="Arial" font-size="24px" font-style="normal" font-weight="normal" text-decoration="none" x="200" y="0">UNREGISTERED</text><text fill="#eeeeee" stroke="none" font-family="Arial" font-size="24px" font-style="normal" font-weight="normal" text-decoration="none" x="200" y="30">UNREGISTERED</text><text fill="#eeeeee" stroke="none" font-family="Arial" font-size="24px" font-style="normal" font-weight="normal" text-decoration="none" x="200" y="60">UNREGISTERED</text><text fill="#eeeeee" stroke="none" font-family="Arial" font-size="24px" font-style="normal" font-weight="normal" text-decoration="none" x="200" y="90">UNREGISTERED</text><text fill="#eeeeee" stroke="none" font-family="Arial" font-size="24px" font-style="normal" font-weight="normal" text-decoration="none" x="200" y="120">UNREGISTERED</text><text fill="#eeeeee" stroke="none" font-family="Arial" font-size="24px" font-style="normal" font-weight="normal" text-decoration="none" x="200" y="150">UNREGISTERED</text><text fill="#eeeeee" stroke="none" font-family="Arial" font-size="24px" font-style="normal" font-weight="normal" text-decoration="none" x="200" y="180">UNREGISTERED</text><text fill="#eeeeee" stroke="none" font-family="Arial" font-size="24px" font-style="normal" font-weight="normal" text-decoration="none" x="200" y="210">UNREGISTERED</text><text fill="#eeeeee" stroke="none" font-family="Arial" font-size="24px" font-style="normal" font-weight="normal" text-decoration="none" x="200" y="240">UNREGISTERED</text><text fill="#eeeeee" stroke="none" font-family="Arial" font-size="24px" font-style="normal" font-weight="normal" text-decoration="none" x="200" y="270">UNREGISTERED</text><text fill="#eeeeee" stroke="none" font-family="Arial" font-size="24px" font-style="normal" font-weight="normal" text-decoration="none" x="200" y="300">UNREGISTERED</text><text fill="#eeeeee" stroke="none" font-family="Arial" font-size="24px" font-style="normal" font-weight="normal" text-decoration="none" x="200" y="330">UNREGISTERED</text><text fill="#eeeeee" stroke="none" font-family="Arial" font-size="24px" font-style="normal" font-weight="normal" text-decoration="none" x="200" y="360">UNREGISTERED</text><text fill="#eeeeee" stroke="none" font-family="Arial" font-size="24px" font-style="normal" font-weight="normal" text-decoration="none" x="200" y="390">UNREGISTERED</text><text fill="#eeeeee" stroke="none" font-family="Arial" font-size="24px" font-style="normal" font-weight="normal" text-decoration="none" x="200" y="420">UNREGISTERED</text><text fill="#eeeeee" stroke="none" font-family="Arial" font-size="24px" font-style="normal" font-weight="normal" text-decoration="none" x="200" y="450">UNREGISTERED</text><text fill="#eeeeee" stroke="none" font-family="Arial" font-size="24px" font-style="normal" font-weight="normal" text-decoration="none" x="200" y="480">UNREGISTERED</text><text fill="#eeeeee" stroke="none" font-family="Arial" font-size="24px" font-style="normal" font-weight="normal" text-decoration="none" x="200" y="510">UNREGISTERED</text><text fill="#eeeeee" stroke="none" font-family="Arial" font-size="24px" font-style="normal" font-weight="normal" text-decoration="none" x="200" y="540">UNREGISTERED</text><text fill="#eeeeee" stroke="none" font-family="Arial" font-size="24px" font-style="normal" font-weight="normal" text-decoration="none" x="200" y="570">UNREGISTERED</text><text fill="#eeeeee" stroke="none" font-family="Arial" font-size="24px" font-style="normal" font-weight="normal" text-decoration="none" x="200" y="600">UNREGISTERED</text><text fill="#eeeeee" stroke="none" font-family="Arial" font-size="24px" font-style="normal" font-weight="normal" text-decoration="none" x="200" y="630">UNREGISTERED</text><text fill="#eeeeee" stroke="none" font-family="Arial" font-size="24px" font-style="normal" font-weight="normal" text-decoration="none" x="400" y="0">UNREGISTERED</text><text fill="#eeeeee" stroke="none" font-family="Arial" font-size="24px" font-style="normal" font-weight="normal" text-decoration="none" x="400" y="30">UNREGISTERED</text><text fill="#eeeeee" stroke="none" font-family="Arial" font-size="24px" font-style="normal" font-weight="normal" text-decoration="none" x="400" y="60">UNREGISTERED</text><text fill="#eeeeee" stroke="none" font-family="Arial" font-size="24px" font-style="normal" font-weight="normal" text-decoration="none" x="400" y="90">UNREGISTERED</text><text fill="#eeeeee" stroke="none" font-family="Arial" font-size="24px" font-style="normal" font-weight="normal" text-decoration="none" x="400" y="120">UNREGISTERED</text><text fill="#eeeeee" stroke="none" font-family="Arial" font-size="24px" font-style="normal" font-weight="normal" text-decoration="none" x="400" y="150">UNREGISTERED</text><text fill="#eeeeee" stroke="none" font-family="Arial" font-size="24px" font-style="normal" font-weight="normal" text-decoration="none" x="400" y="180">UNREGISTERED</text><text fill="#eeeeee" stroke="none" font-family="Arial" font-size="24px" font-style="normal" font-weight="normal" text-decoration="none" x="400" y="210">UNREGISTERED</text><text fill="#eeeeee" stroke="none" font-family="Arial" font-size="24px" font-style="normal" font-weight="normal" text-decoration="none" x="400" y="240">UNREGISTERED</text><text fill="#eeeeee" stroke="none" font-family="Arial" font-size="24px" font-style="normal" font-weight="normal" text-decoration="none" x="400" y="270">UNREGISTERED</text><text fill="#eeeeee" stroke="none" font-family="Arial" font-size="24px" font-style="normal" font-weight="normal" text-decoration="none" x="400" y="300">UNREGISTERED</text><text fill="#eeeeee" stroke="none" font-family="Arial" font-size="24px" font-style="normal" font-weight="normal" text-decoration="none" x="400" y="330">UNREGISTERED</text><text fill="#eeeeee" stroke="none" font-family="Arial" font-size="24px" font-style="normal" font-weight="normal" text-decoration="none" x="400" y="360">UNREGISTERED</text><text fill="#eeeeee" stroke="none" font-family="Arial" font-size="24px" font-style="normal" font-weight="normal" text-decoration="none" x="400" y="390">UNREGISTERED</text><text fill="#eeeeee" stroke="none" font-family="Arial" font-size="24px" font-style="normal" font-weight="normal" text-decoration="none" x="400" y="420">UNREGISTERED</text><text fill="#eeeeee" stroke="none" font-family="Arial" font-size="24px" font-style="normal" font-weight="normal" text-decoration="none" x="400" y="450">UNREGISTERED</text><text fill="#eeeeee" stroke="none" font-family="Arial" font-size="24px" font-style="normal" font-weight="normal" text-decoration="none" x="400" y="480">UNREGISTERED</text><text fill="#eeeeee" stroke="none" font-family="Arial" font-size="24px" font-style="normal" font-weight="normal" text-decoration="none" x="400" y="510">UNREGISTERED</text><text fill="#eeeeee" stroke="none" font-family="Arial" font-size="24px" font-style="normal" font-weight="normal" text-decoration="none" x="400" y="540">UNREGISTERED</text><text fill="#eeeeee" stroke="none" font-family="Arial" font-size="24px" font-style="normal" font-weight="normal" text-decoration="none" x="400" y="570">UNREGISTERED</text><text fill="#eeeeee" stroke="none" font-family="Arial" font-size="24px" font-style="normal" font-weight="normal" text-decoration="none" x="400" y="600">UNREGISTERED</text><text fill="#eeeeee" stroke="none" font-family="Arial" font-size="24px" font-style="normal" font-weight="normal" text-decoration="none" x="400" y="630">UNREGISTERED</text><text fill="#eeeeee" stroke="none" font-family="Arial" font-size="24px" font-style="normal" font-weight="normal" text-decoration="none" x="600" y="0">UNREGISTERED</text><text fill="#eeeeee" stroke="none" font-family="Arial" font-size="24px" font-style="normal" font-weight="normal" text-decoration="none" x="600" y="30">UNREGISTERED</text><text fill="#eeeeee" stroke="none" font-family="Arial" font-size="24px" font-style="normal" font-weight="normal" text-decoration="none" x="600" y="60">UNREGISTERED</text><text fill="#eeeeee" stroke="none" font-family="Arial" font-size="24px" font-style="normal" font-weight="normal" text-decoration="none" x="600" y="90">UNREGISTERED</text><text fill="#eeeeee" stroke="none" font-family="Arial" font-size="24px" font-style="normal" font-weight="normal" text-decoration="none" x="600" y="120">UNREGISTERED</text><text fill="#eeeeee" stroke="none" font-family="Arial" font-size="24px" font-style="normal" font-weight="normal" text-decoration="none" x="600" y="150">UNREGISTERED</text><text fill="#eeeeee" stroke="none" font-family="Arial" font-size="24px" font-style="normal" font-weight="normal" text-decoration="none" x="600" y="180">UNREGISTERED</text><text fill="#eeeeee" stroke="none" font-family="Arial" font-size="24px" font-style="normal" font-weight="normal" text-decoration="none" x="600" y="210">UNREGISTERED</text><text fill="#eeeeee" stroke="none" font-family="Arial" font-size="24px" font-style="normal" font-weight="normal" text-decoration="none" x="600" y="240">UNREGISTERED</text><text fill="#eeeeee" stroke="none" font-family="Arial" font-size="24px" font-style="normal" font-weight="normal" text-decoration="none" x="600" y="270">UNREGISTERED</text><text fill="#eeeeee" stroke="none" font-family="Arial" font-size="24px" font-style="normal" font-weight="normal" text-decoration="none" x="600" y="300">UNREGISTERED</text><text fill="#eeeeee" stroke="none" font-family="Arial" font-size="24px" font-style="normal" font-weight="normal" text-decoration="none" x="600" y="330">UNREGISTERED</text><text fill="#eeeeee" stroke="none" font-family="Arial" font-size="24px" font-style="normal" font-weight="normal" text-decoration="none" x="600" y="360">UNREGISTERED</text><text fill="#eeeeee" stroke="none" font-family="Arial" font-size="24px" font-style="normal" font-weight="normal" text-decoration="none" x="600" y="390">UNREGISTERED</text><text fill="#eeeeee" stroke="none" font-family="Arial" font-size="24px" font-style="normal" font-weight="normal" text-decoration="none" x="600" y="420">UNREGISTERED</text><text fill="#eeeeee" stroke="none" font-family="Arial" font-size="24px" font-style="normal" font-weight="normal" text-decoration="none" x="600" y="450">UNREGISTERED</text><text fill="#eeeeee" stroke="none" font-family="Arial" font-size="24px" font-style="normal" font-weight="normal" text-decoration="none" x="600" y="480">UNREGISTERED</text><text fill="#eeeeee" stroke="none" font-family="Arial" font-size="24px" font-style="normal" font-weight="normal" text-decoration="none" x="600" y="510">UNREGISTERED</text><text fill="#eeeeee" stroke="none" font-family="Arial" font-size="24px" font-style="normal" font-weight="normal" text-decoration="none" x="600" y="540">UNREGISTERED</text><text fill="#eeeeee" stroke="none" font-family="Arial" font-size="24px" font-style="normal" font-weight="normal" text-decoration="none" x="600" y="570">UNREGISTERED</text><text fill="#eeeeee" stroke="none" font-family="Arial" font-size="24px" font-style="normal" font-weight="normal" text-decoration="none" x="600" y="600">UNREGISTERED</text><text fill="#eeeeee" stroke="none" font-family="Arial" font-size="24px" font-style="normal" font-weight="normal" text-decoration="none" x="600" y="630">UNREGISTERED</text><text fill="#eeeeee" stroke="none" font-family="Arial" font-size="24px" font-style="normal" font-weight="normal" text-decoration="none" x="800" y="0">UNREGISTERED</text><text fill="#eeeeee" stroke="none" font-family="Arial" font-size="24px" font-style="normal" font-weight="normal" text-decoration="none" x="800" y="30">UNREGISTERED</text><text fill="#eeeeee" stroke="none" font-family="Arial" font-size="24px" font-style="normal" font-weight="normal" text-decoration="none" x="800" y="60">UNREGISTERED</text><text fill="#eeeeee" stroke="none" font-family="Arial" font-size="24px" font-style="normal" font-weight="normal" text-decoration="none" x="800" y="90">UNREGISTERED</text><text fill="#eeeeee" stroke="none" font-family="Arial" font-size="24px" font-style="normal" font-weight="normal" text-decoration="none" x="800" y="120">UNREGISTERED</text><text fill="#eeeeee" stroke="none" font-family="Arial" font-size="24px" font-style="normal" font-weight="normal" text-decoration="none" x="800" y="150">UNREGISTERED</text><text fill="#eeeeee" stroke="none" font-family="Arial" font-size="24px" font-style="normal" font-weight="normal" text-decoration="none" x="800" y="180">UNREGISTERED</text><text fill="#eeeeee" stroke="none" font-family="Arial" font-size="24px" font-style="normal" font-weight="normal" text-decoration="none" x="800" y="210">UNREGISTERED</text><text fill="#eeeeee" stroke="none" font-family="Arial" font-size="24px" font-style="normal" font-weight="normal" text-decoration="none" x="800" y="240">UNREGISTERED</text><text fill="#eeeeee" stroke="none" font-family="Arial" font-size="24px" font-style="normal" font-weight="normal" text-decoration="none" x="800" y="270">UNREGISTERED</text><text fill="#eeeeee" stroke="none" font-family="Arial" font-size="24px" font-style="normal" font-weight="normal" text-decoration="none" x="800" y="300">UNREGISTERED</text><text fill="#eeeeee" stroke="none" font-family="Arial" font-size="24px" font-style="normal" font-weight="normal" text-decoration="none" x="800" y="330">UNREGISTERED</text><text fill="#eeeeee" stroke="none" font-family="Arial" font-size="24px" font-style="normal" font-weight="normal" text-decoration="none" x="800" y="360">UNREGISTERED</text><text fill="#eeeeee" stroke="none" font-family="Arial" font-size="24px" font-style="normal" font-weight="normal" text-decoration="none" x="800" y="390">UNREGISTERED</text><text fill="#eeeeee" stroke="none" font-family="Arial" font-size="24px" font-style="normal" font-weight="normal" text-decoration="none" x="800" y="420">UNREGISTERED</text><text fill="#eeeeee" stroke="none" font-family="Arial" font-size="24px" font-style="normal" font-weight="normal" text-decoration="none" x="800" y="450">UNREGISTERED</text><text fill="#eeeeee" stroke="none" font-family="Arial" font-size="24px" font-style="normal" font-weight="normal" text-decoration="none" x="800" y="480">UNREGISTERED</text><text fill="#eeeeee" stroke="none" font-family="Arial" font-size="24px" font-style="normal" font-weight="normal" text-decoration="none" x="800" y="510">UNREGISTERED</text><text fill="#eeeeee" stroke="none" font-family="Arial" font-size="24px" font-style="normal" font-weight="normal" text-decoration="none" x="800" y="540">UNREGISTERED</text><text fill="#eeeeee" stroke="none" font-family="Arial" font-size="24px" font-style="normal" font-weight="normal" text-decoration="none" x="800" y="570">UNREGISTERED</text><text fill="#eeeeee" stroke="none" font-family="Arial" font-size="24px" font-style="normal" font-weight="normal" text-decoration="none" x="800" y="600">UNREGISTERED</text><text fill="#eeeeee" stroke="none" font-family="Arial" font-size="24px" font-style="normal" font-weight="normal" text-decoration="none" x="800" y="630">UNREGISTERED</text><g transform="translate(-254,10) scale(1,1)"><path fill="none" stroke="#000000" d="M 272 0 L 1240 0 L 1240 640 L 272 640 L 272 0" stroke-miterlimit="10"/></g><g transform="translate(-254,10) scale(1,1)"><path fill="#ffffff" stroke="none" d="M 272 0 L 272 22 L 423.84619140625 22 L 434.84619140625 11 L 434.84619140625 0 L 272 0"/></g><g transform="translate(-254,10) scale(1,1)"><path fill="none" stroke="#000000" d="M 272 0 L 272 22 L 423.84619140625 22 L 434.84619140625 11 L 434.84619140625 0 L 272 0 L 272 0" stroke-miterlimit="10"/></g><g transform="translate(-254,10) scale(1,1)"><g><path fill="none" stroke="none"/><text fill="#000000" stroke="none" font-family="Arial" font-size="13px" font-style="normal" font-weight="normal" text-decoration="none" x="296.72998046875" y="15.5">athlete_checkIfExists</text></g></g><g transform="translate(-254,10) scale(1,1)"><g><path fill="none" stroke="none"/><text fill="#000000" stroke="none" font-family="Arial" font-size="13px" font-style="normal" font-weight="bold" text-decoration="none" x="276.279541015625" y="15.5">sd</text></g></g><g transform="translate(-254,10) scale(1,1)"><rect fill="#ffffff" stroke="none" x="264" y="132.5" width="14" height="14"/></g><g transform="translate(-254,10) scale(1,1)"><path fill="none" stroke="#000000" d="M 264 132.5 L 278 132.5 L 278 146.5 L 264 146.5 L 264 132.5 Z Z" stroke-miterlimit="10"/></g><g transform="translate(-254,10) scale(1,1)"><rect fill="#ffffff" stroke="none" x="264" y="560.5" width="14" height="14"/></g><g transform="translate(-254,10) scale(1,1)"><path fill="none" stroke="#000000" d="M 264 560.5 L 278 560.5 L 278 574.5 L 264 574.5 L 264 560.5 Z Z" stroke-miterlimit="10"/></g><g transform="translate(-254,10) scale(1,1)"><rect fill="#C0C0C0" stroke="none" x="499" y="47" width="166.34814453125" height="39" opacity="0.2"/></g><g transform="translate(-254,10) scale(1,1)"><rect fill="#ffffff" stroke="none" x="492" y="40" width="166.34814453125" height="39"/></g><g transform="translate(-254,10) scale(1,1)"><path fill="none" stroke="#000000" d="M 492 40 L 658.34814453125 40 L 658.34814453125 79 L 492 79 L 492 40 Z Z" stroke-miterlimit="10"/></g><g transform="translate(-254,10) scale(1,1)"><g><path fill="none" stroke="none"/><text fill="#000000" stroke="none" font-family="Arial" font-size="13px" font-style="normal" font-weight="bold" text-decoration="none" x="501.5" y="57.5">athleteDao: AthleteDAO</text></g></g><g transform="translate(-254,10) scale(1,1)"><path fill="none" stroke="#000000" d="M 576.5 80 L 576.5 624" stroke-miterlimit="10" stroke-dasharray="3"/></g><g transform="translate(-254,10) scale(1,1)"><rect fill="#ffffff" stroke="none" x="888" y="217.5" width="14" height="14"/></g><g transform="translate(-254,10) scale(1,1)"><path fill="none" stroke="#000000" d="M 888 217.5 L 902 217.5 L 902 231.5 L 888 231.5 L 888 217.5 Z Z" stroke-miterlimit="10"/></g><g transform="translate(-254,10) scale(1,1)"><rect fill="#ffffff" stroke="none" x="888" y="262.5" width="14" height="14"/></g><g transform="translate(-254,10) scale(1,1)"><path fill="none" stroke="#000000" d="M 888 262.5 L 902 262.5 L 902 276.5 L 888 276.5 L 888 262.5 Z Z" stroke-miterlimit="10"/></g><g transform="translate(-254,10) scale(1,1)"><path fill="none" stroke="#000000" d="M 278 140 L 569 140" stroke-miterlimit="10"/></g><g transform="translate(-254,10) scale(1,1)"><path fill="#000000" stroke="none" d="M 558.8373251423759 144.209517756016 L 569 140 L 558.8373251423758 135.790482243984"/></g><g transform="translate(-254,10) scale(1,1)"><path fill="none" stroke="#000000" d="M 558.8373251423759 144.209517756016 L 569 140 L 558.8373251423758 135.790482243984 L 558.8373251423759 144.209517756016" stroke-miterlimit="10"/></g><g transform="translate(-254,10) scale(1,1)"><g><path fill="none" stroke="none"/><text fill="#000000" stroke="none" font-family="Arial" font-size="13px" font-style="normal" font-weight="normal" text-decoration="none" x="338.294921875" y="134.5">1 : checkIfExist(nameAthlete)</text></g></g><g transform="translate(-254,10) scale(1,1)"><rect fill="#ffffff" stroke="none" x="569" y="140" width="13" height="428"/></g><g transform="translate(-254,10) scale(1,1)"><path fill="none" stroke="#000000" d="M 569 140 L 582 140 L 582 568 L 569 568 L 569 140 Z Z" stroke-miterlimit="10"/></g><g transform="translate(-254,10) scale(1,1)"><rect fill="#ffffff" stroke="none" x="896" y="176" width="271.31689453125" height="128"/></g><g transform="translate(-254,10) scale(1,1)"><path fill="none" stroke="#000000" d="M 896 176 L 1167.31689453125 176 L 1167.31689453125 304 L 896 304 L 896 176 Z Z" stroke-miterlimit="10"/></g><g transform="translate(-254,10) scale(1,1)"><path fill="none" stroke="#000000" d="M 896 176 L 896 198 L 921.1708984375 198 L 932.1708984375 187 L 932.1708984375 176 L 896 176 L 896 176" stroke-miterlimit="10"/></g><g transform="translate(-254,10) scale(1,1)"><g><path fill="none" stroke="none"/><text fill="#000000" stroke="none" font-family="Arial" font-size="13px" font-style="normal" font-weight="normal" text-decoration="none" x="1016.133056640625" y="191.5">athlete_find</text></g></g><g transform="translate(-254,10) scale(1,1)"><g><path fill="none" stroke="none"/><text fill="#000000" stroke="none" font-family="Arial" font-size="13px" font-style="normal" font-weight="bold" text-decoration="none" x="900.2763671875" y="191.5">ref</text></g></g><g transform="translate(-254,10) scale(1,1)"><path fill="none" stroke="#000000" d="M 582 225 L 888 225" stroke-miterlimit="10"/></g><g transform="translate(-254,10) scale(1,1)"><path fill="#000000" stroke="none" d="M 877.8373251423759 229.209517756016 L 888 225 L 877.8373251423758 220.790482243984"/></g><g transform="translate(-254,10) scale(1,1)"><path fill="none" stroke="#000000" d="M 877.8373251423759 229.209517756016 L 888 225 L 877.8373251423758 220.790482243984 L 877.8373251423759 229.209517756016" stroke-miterlimit="10"/></g><g transform="translate(-254,10) scale(1,1)"><g><path fill="none" stroke="none"/><text fill="#000000" stroke="none" font-family="Arial" font-size="13px" font-style="normal" font-weight="normal" text-decoration="none" x="594.49267578125" y="218.5">2 : athleteToFind = athlete_find(nameAthlete)</text></g></g><g transform="translate(-254,10) scale(1,1)"><path fill="none" stroke="#000000" d="M 888 270 L 582 270" stroke-miterlimit="10" stroke-dasharray="3"/></g><g transform="translate(-254,10) scale(1,1)"><path fill="none" stroke="#000000" d="M 592.1626748576241 265.790482243984 L 582 270 L 592.1626748576241 274.209517756016" stroke-miterlimit="10"/></g><g transform="translate(-254,10) scale(1,1)"><g><path fill="none" stroke="none"/><text fill="#000000" stroke="none" font-family="Arial" font-size="13px" font-style="normal" font-weight="normal" text-decoration="none" x="724.5" y="284.5">3 : </text></g></g><g transform="translate(-254,10) scale(1,1)"><path fill="none" stroke="#000000" d="M 582 344 L 612 344 L 612 364 L 589 364" stroke-miterlimit="10"/></g><g transform="translate(-254,10) scale(1,1)"><path fill="#000000" stroke="none" d="M 599.1626748576241 359.790482243984 L 589 364 L 599.1626748576241 368.209517756016"/></g><g transform="translate(-254,10) scale(1,1)"><path fill="none" stroke="#000000" d="M 599.1626748576241 359.790482243984 L 589 364 L 599.1626748576241 368.209517756016 L 599.1626748576241 359.790482243984" stroke-miterlimit="10"/></g><g transform="translate(-254,10) scale(1,1)"><g><path fill="none" stroke="none"/><text fill="#000000" stroke="none" font-family="Arial" font-size="13px" font-style="normal" font-weight="normal" text-decoration="none" x="647.5" y="357.5">4 : returnValue=false</text></g></g><g transform="translate(-254,10) scale(1,1)"><rect fill="#ffffff" stroke="none" x="576" y="364" width="13" height="28"/></g><g transform="translate(-254,10) scale(1,1)"><path fill="none" stroke="#000000" d="M 576 364 L 589 364 L 589 392 L 576 392 L 576 364 Z Z" stroke-miterlimit="10"/></g><g transform="translate(-254,10) scale(1,1)"><path fill="none" stroke="#000000" d="M 582 440 L 612 440 L 612 460 L 589 460" stroke-miterlimit="10"/></g><g transform="translate(-254,10) scale(1,1)"><path fill="#000000" stroke="none" d="M 599.1626748576241 455.790482243984 L 589 460 L 599.1626748576241 464.209517756016"/></g><g transform="translate(-254,10) scale(1,1)"><path fill="none" stroke="#000000" d="M 599.1626748576241 455.790482243984 L 589 460 L 599.1626748576241 464.209517756016 L 599.1626748576241 455.790482243984" stroke-miterlimit="10"/></g><g transform="translate(-254,10) scale(1,1)"><g><path fill="none" stroke="none"/><text fill="#000000" stroke="none" font-family="Arial" font-size="13px" font-style="normal" font-weight="normal" text-decoration="none" x="630.5" y="453.5">5 : returnValue=True</text></g></g><g transform="translate(-254,10) scale(1,1)"><rect fill="#ffffff" stroke="none" x="576" y="460" width="13" height="28"/></g><g transform="translate(-254,10) scale(1,1)"><path fill="none" stroke="#000000" d="M 576 460 L 589 460 L 589 488 L 576 488 L 576 460 Z Z" stroke-miterlimit="10"/></g><g transform="translate(-254,10) scale(1,1)"><path fill="none" stroke="#000000" d="M 576 568 L 278 568" stroke-miterlimit="10" stroke-dasharray="3"/></g><g transform="translate(-254,10) scale(1,1)"><path fill="none" stroke="#000000" d="M 288.16267485762415 563.790482243984 L 278 568 L 288.16267485762415 572.209517756016" stroke-miterlimit="10"/></g><g transform="translate(-254,10) scale(1,1)"><g><path fill="none" stroke="none"/><text fill="#000000" stroke="none" font-family="Arial" font-size="13px" font-style="normal" font-weight="normal" text-decoration="none" x="362.5" y="582.5">6 : return(returnValue)</text></g></g><g transform="translate(-254,10) scale(1,1)"><path fill="none" stroke="#000000" d="M 304 328 L 808 328 L 808 520 L 304 520 L 304 328" stroke-miterlimit="10"/></g><g transform="translate(-254,10) scale(1,1)"><path fill="#ffffff" stroke="none" d="M 304 328 L 304 350 L 484.76611328125 350 L 495.76611328125 339 L 495.76611328125 328 L 304 328"/></g><g transform="translate(-254,10) scale(1,1)"><path fill="none" stroke="#000000" d="M 304 328 L 304 350 L 484.76611328125 350 L 495.76611328125 339 L 495.76611328125 328 L 304 328 L 304 328" stroke-miterlimit="10"/></g><g transform="translate(-254,10) scale(1,1)"><g><path fill="none" stroke="none"/><text fill="#000000" stroke="none" font-family="Arial" font-size="13px" font-style="normal" font-weight="normal" text-decoration="none" x="328.72998046875" y="343.5">test de la valeur retournée</text></g></g><g transform="translate(-254,10) scale(1,1)"><g><path fill="none" stroke="none"/><text fill="#000000" stroke="none" font-family="Arial" font-size="13px" font-style="normal" font-weight="bold" text-decoration="none" x="308.279541015625" y="343.5">alt</text></g></g><g transform="translate(-254,10) scale(1,1)"><g><path fill="none" stroke="none"/><text fill="#000000" stroke="none" font-family="Arial" font-size="13px" font-style="normal" font-weight="normal" text-decoration="none" x="323.5" y="376.5">[athleteToFind == null]</text></g></g><g transform="translate(-254,10) scale(1,1)"><path fill="none" stroke="#000000" d="M 304 417 L 808 417" stroke-miterlimit="10" stroke-dasharray="10,3"/></g><g transform="translate(-254,10) scale(1,1)"><g><path fill="none" stroke="none"/><text fill="#000000" stroke="none" font-family="Arial" font-size="13px" font-style="normal" font-weight="normal" text-decoration="none" x="323.5" y="442.5">[athleteToFind != null]</text></g></g></g></svg>