<svg version="1.1" xmlns="http://www.w3.org/2000/svg" xmlns:xlink="http://www.w3.org/1999/xlink" width="995" height="611"><defs/><g><text fill="#eeeeee" stroke="none" font-family="Arial" font-size="24px" font-style="normal" font-weight="normal" text-decoration="none" x="0" y="0">UNREGISTERED</text><text fill="#eeeeee" stroke="none" font-family="Arial" font-size="24px" font-style="normal" font-weight="normal" text-decoration="none" x="0" y="30">UNREGISTERED</text><text fill="#eeeeee" stroke="none" font-family="Arial" font-size="24px" font-style="normal" font-weight="normal" text-decoration="none" x="0" y="60">UNREGISTERED</text><text fill="#eeeeee" stroke="none" font-family="Arial" font-size="24px" font-style="normal" font-weight="normal" text-decoration="none" x="0" y="90">UNREGISTERED</text><text fill="#eeeeee" stroke="none" font-family="Arial" font-size="24px" font-style="normal" font-weight="normal" text-decoration="none" x="0" y="120">UNREGISTERED</text><text fill="#eeeeee" stroke="none" font-family="Arial" font-size="24px" font-style="normal" font-weight="normal" text-decoration="none" x="0" y="150">UNREGISTERED</text><text fill="#eeeeee" stroke="none" font-family="Arial" font-size="24px" font-style="normal" font-weight="normal" text-decoration="none" x="0" y="180">UNREGISTERED</text><text fill="#eeeeee" stroke="none" font-family="Arial" font-size="24px" font-style="normal" font-weight="normal" text-decoration="none" x="0" y="210">UNREGISTERED</text><text fill="#eeeeee" stroke="none" font-family="Arial" font-size="24px" font-style="normal" font-weight="normal" text-decoration="none" x="0" y="240">UNREGISTERED</text><text fill="#eeeeee" stroke="none" font-family="Arial" font-size="24px" font-style="normal" font-weight="normal" text-decoration="none" x="0" y="270">UNREGISTERED</text><text fill="#eeeeee" stroke="none" font-family="Arial" font-size="24px" font-style="normal" font-weight="normal" text-decoration="none" x="0" y="300">UNREGISTERED</text><text fill="#eeeeee" stroke="none" font-family="Arial" font-size="24px" font-style="normal" font-weight="normal" text-decoration="none" x="0" y="330">UNREGISTERED</text><text fill="#eeeeee" stroke="none" font-family="Arial" font-size="24px" font-style="normal" font-weight="normal" text-decoration="none" x="0" y="360">UNREGISTERED</text><text fill="#eeeeee" stroke="none" font-family="Arial" font-size="24px" font-style="normal" font-weight="normal" text-decoration="none" x="0" y="390">UNREGISTERED</text><text fill="#eeeeee" stroke="none" font-family="Arial" font-size="24px" font-style="normal" font-weight="normal" text-decoration="none" x="0" y="420">UNREGISTERED</text><text fill="#eeeeee" stroke="none" font-family="Arial" font-size="24px" font-style="normal" font-weight="normal" text-decoration="none" x="0" y="450">UNREGISTERED</text><text fill="#eeeeee" stroke="none" font-family="Arial" font-size="24px" font-style="normal" font-weight="normal" text-decoration="none" x="0" y="480">UNREGISTERED</text><text fill="#eeeeee" stroke="none" font-family="Arial" font-size="24px" font-style="normal" font-weight="normal" text-decoration="none" x="0" y="510">UNREGISTERED</text><text fill="#eeeeee" stroke="none" font-family="Arial" font-size="24px" font-style="normal" font-weight="normal" text-decoration="none" x="0" y="540">UNREGISTERED</text><text fill="#eeeeee" stroke="none" font-family="Arial" font-size="24px" font-style="normal" font-weight="normal" text-decoration="none" x="0" y="570">UNREGISTERED</text><text fill="#eeeeee" stroke="none" font-family="Arial" font-size="24px" font-style="normal" font-weight="normal" text-decoration="none" x="0" y="600">UNREGISTERED</text><text fill="#eeeeee" stroke="none" font-family="Arial" font-size="24px" font-style="normal" font-weight="normal" text-decoration="none" x="200" y="0">UNREGISTERED</text><text fill="#eeeeee" stroke="none" font-family="Arial" font-size="24px" font-style="normal" font-weight="normal" text-decoration="none" x="200" y="30">UNREGISTERED</text><text fill="#eeeeee" stroke="none" font-family="Arial" font-size="24px" font-style="normal" font-weight="normal" text-decoration="none" x="200" y="60">UNREGISTERED</text><text fill="#eeeeee" stroke="none" font-family="Arial" font-size="24px" font-style="normal" font-weight="normal" text-decoration="none" x="200" y="90">UNREGISTERED</text><text fill="#eeeeee" stroke="none" font-family="Arial" font-size="24px" font-style="normal" font-weight="normal" text-decoration="none" x="200" y="120">UNREGISTERED</text><text fill="#eeeeee" stroke="none" font-family="Arial" font-size="24px" font-style="normal" font-weight="normal" text-decoration="none" x="200" y="150">UNREGISTERED</text><text fill="#eeeeee" stroke="none" font-family="Arial" font-size="24px" font-style="normal" font-weight="normal" text-decoration="none" x="200" y="180">UNREGISTERED</text><text fill="#eeeeee" stroke="none" font-family="Arial" font-size="24px" font-style="normal" font-weight="normal" text-decoration="none" x="200" y="210">UNREGISTERED</text><text fill="#eeeeee" stroke="none" font-family="Arial" font-size="24px" font-style="normal" font-weight="normal" text-decoration="none" x="200" y="240">UNREGISTERED</text><text fill="#eeeeee" stroke="none" font-family="Arial" font-size="24px" font-style="normal" font-weight="normal" text-decoration="none" x="200" y="270">UNREGISTERED</text><text fill="#eeeeee" stroke="none" font-family="Arial" font-size="24px" font-style="normal" font-weight="normal" text-decoration="none" x="200" y="300">UNREGISTERED</text><text fill="#eeeeee" stroke="none" font-family="Arial" font-size="24px" font-style="normal" font-weight="normal" text-decoration="none" x="200" y="330">UNREGISTERED</text><text fill="#eeeeee" stroke="none" font-family="Arial" font-size="24px" font-style="normal" font-weight="normal" text-decoration="none" x="200" y="360">UNREGISTERED</text><text fill="#eeeeee" stroke="none" font-family="Arial" font-size="24px" font-style="normal" font-weight="normal" text-decoration="none" x="200" y="390">UNREGISTERED</text><text fill="#eeeeee" stroke="none" font-family="Arial" font-size="24px" font-style="normal" font-weight="normal" text-decoration="none" x="200" y="420">UNREGISTERED</text><text fill="#eeeeee" stroke="none" font-family="Arial" font-size="24px" font-style="normal" font-weight="normal" text-decoration="none" x="200" y="450">UNREGISTERED</text><text fill="#eeeeee" stroke="none" font-family="Arial" font-size="24px" font-style="normal" font-weight="normal" text-decoration="none" x="200" y="480">UNREGISTERED</text><text fill="#eeeeee" stroke="none" font-family="Arial" font-size="24px" font-style="normal" font-weight="normal" text-decoration="none" x="200" y="510">UNREGISTERED</text><text fill="#eeeeee" stroke="none" font-family="Arial" font-size="24px" font-style="normal" font-weight="normal" text-decoration="none" x="200" y="540">UNREGISTERED</text><text fill="#eeeeee" stroke="none" font-family="Arial" font-size="24px" font-style="normal" font-weight="normal" text-decoration="none" x="200" y="570">UNREGISTERED</text><text fill="#eeeeee" stroke="none" font-family="Arial" font-size="24px" font-style="normal" font-weight="normal" text-decoration="none" x="200" y="600">UNREGISTERED</text><text fill="#eeeeee" stroke="none" font-family="Arial" font-size="24px" font-style="normal" font-weight="normal" text-decoration="none" x="400" y="0">UNREGISTERED</text><text fill="#eeeeee" stroke="none" font-family="Arial" font-size="24px" font-style="normal" font-weight="normal" text-decoration="none" x="400" y="30">UNREGISTERED</text><text fill="#eeeeee" stroke="none" font-family="Arial" font-size="24px" font-style="normal" font-weight="normal" text-decoration="none" x="400" y="60">UNREGISTERED</text><text fill="#eeeeee" stroke="none" font-family="Arial" font-size="24px" font-style="normal" font-weight="normal" text-decoration="none" x="400" y="90">UNREGISTERED</text><text fill="#eeeeee" stroke="none" font-family="Arial" font-size="24px" font-style="normal" font-weight="normal" text-decoration="none" x="400" y="120">UNREGISTERED</text><text fill="#eeeeee" stroke="none" font-family="Arial" font-size="24px" font-style="normal" font-weight="normal" text-decoration="none" x="400" y="150">UNREGISTERED</text><text fill="#eeeeee" stroke="none" font-family="Arial" font-size="24px" font-style="normal" font-weight="normal" text-decoration="none" x="400" y="180">UNREGISTERED</text><text fill="#eeeeee" stroke="none" font-family="Arial" font-size="24px" font-style="normal" font-weight="normal" text-decoration="none" x="400" y="210">UNREGISTERED</text><text fill="#eeeeee" stroke="none" font-family="Arial" font-size="24px" font-style="normal" font-weight="normal" text-decoration="none" x="400" y="240">UNREGISTERED</text><text fill="#eeeeee" stroke="none" font-family="Arial" font-size="24px" font-style="normal" font-weight="normal" text-decoration="none" x="400" y="270">UNREGISTERED</text><text fill="#eeeeee" stroke="none" font-family="Arial" font-size="24px" font-style="normal" font-weight="normal" text-decoration="none" x="400" y="300">UNREGISTERED</text><text fill="#eeeeee" stroke="none" font-family="Arial" font-size="24px" font-style="normal" font-weight="normal" text-decoration="none" x="400" y="330">UNREGISTERED</text><text fill="#eeeeee" stroke="none" font-family="Arial" font-size="24px" font-style="normal" font-weight="normal" text-decoration="none" x="400" y="360">UNREGISTERED</text><text fill="#eeeeee" stroke="none" font-family="Arial" font-size="24px" font-style="normal" font-weight="normal" text-decoration="none" x="400" y="390">UNREGISTERED</text><text fill="#eeeeee" stroke="none" font-family="Arial" font-size="24px" font-style="normal" font-weight="normal" text-decoration="none" x="400" y="420">UNREGISTERED</text><text fill="#eeeeee" stroke="none" font-family="Arial" font-size="24px" font-style="normal" font-weight="normal" text-decoration="none" x="400" y="450">UNREGISTERED</text><text fill="#eeeeee" stroke="none" font-family="Arial" font-size="24px" font-style="normal" font-weight="normal" text-decoration="none" x="400" y="480">UNREGISTERED</text><text fill="#eeeeee" stroke="none" font-family="Arial" font-size="24px" font-style="normal" font-weight="normal" text-decoration="none" x="400" y="510">UNREGISTERED</text><text fill="#eeeeee" stroke="none" font-family="Arial" font-size="24px" font-style="normal" font-weight="normal" text-decoration="none" x="400" y="540">UNREGISTERED</text><text fill="#eeeeee" stroke="none" font-family="Arial" font-size="24px" font-style="normal" font-weight="normal" text-decoration="none" x="400" y="570">UNREGISTERED</text><text fill="#eeeeee" stroke="none" font-family="Arial" font-size="24px" font-style="normal" font-weight="normal" text-decoration="none" x="400" y="600">UNREGISTERED</text><text fill="#eeeeee" stroke="none" font-family="Arial" font-size="24px" font-style="normal" font-weight="normal" text-decoration="none" x="600" y="0">UNREGISTERED</text><text fill="#eeeeee" stroke="none" font-family="Arial" font-size="24px" font-style="normal" font-weight="normal" text-decoration="none" x="600" y="30">UNREGISTERED</text><text fill="#eeeeee" stroke="none" font-family="Arial" font-size="24px" font-style="normal" font-weight="normal" text-decoration="none" x="600" y="60">UNREGISTERED</text><text fill="#eeeeee" stroke="none" font-family="Arial" font-size="24px" font-style="normal" font-weight="normal" text-decoration="none" x="600" y="90">UNREGISTERED</text><text fill="#eeeeee" stroke="none" font-family="Arial" font-size="24px" font-style="normal" font-weight="normal" text-decoration="none" x="600" y="120">UNREGISTERED</text><text fill="#eeeeee" stroke="none" font-family="Arial" font-size="24px" font-style="normal" font-weight="normal" text-decoration="none" x="600" y="150">UNREGISTERED</text><text fill="#eeeeee" stroke="none" font-family="Arial" font-size="24px" font-style="normal" font-weight="normal" text-decoration="none" x="600" y="180">UNREGISTERED</text><text fill="#eeeeee" stroke="none" font-family="Arial" font-size="24px" font-style="normal" font-weight="normal" text-decoration="none" x="600" y="210">UNREGISTERED</text><text fill="#eeeeee" stroke="none" font-family="Arial" font-size="24px" font-style="normal" font-weight="normal" text-decoration="none" x="600" y="240">UNREGISTERED</text><text fill="#eeeeee" stroke="none" font-family="Arial" font-size="24px" font-style="normal" font-weight="normal" text-decoration="none" x="600" y="270">UNREGISTERED</text><text fill="#eeeeee" stroke="none" font-family="Arial" font-size="24px" font-style="normal" font-weight="normal" text-decoration="none" x="600" y="300">UNREGISTERED</text><text fill="#eeeeee" stroke="none" font-family="Arial" font-size="24px" font-style="normal" font-weight="normal" text-decoration="none" x="600" y="330">UNREGISTERED</text><text fill="#eeeeee" stroke="none" font-family="Arial" font-size="24px" font-style="normal" font-weight="normal" text-decoration="none" x="600" y="360">UNREGISTERED</text><text fill="#eeeeee" stroke="none" font-family="Arial" font-size="24px" font-style="normal" font-weight="normal" text-decoration="none" x="600" y="390">UNREGISTERED</text><text fill="#eeeeee" stroke="none" font-family="Arial" font-size="24px" font-style="normal" font-weight="normal" text-decoration="none" x="600" y="420">UNREGISTERED</text><text fill="#eeeeee" stroke="none" font-family="Arial" font-size="24px" font-style="normal" font-weight="normal" text-decoration="none" x="600" y="450">UNREGISTERED</text><text fill="#eeeeee" stroke="none" font-family="Arial" font-size="24px" font-style="normal" font-weight="normal" text-decoration="none" x="600" y="480">UNREGISTERED</text><text fill="#eeeeee" stroke="none" font-family="Arial" font-size="24px" font-style="normal" font-weight="normal" text-decoration="none" x="600" y="510">UNREGISTERED</text><text fill="#eeeeee" stroke="none" font-family="Arial" font-size="24px" font-style="normal" font-weight="normal" text-decoration="none" x="600" y="540">UNREGISTERED</text><text fill="#eeeeee" stroke="none" font-family="Arial" font-size="24px" font-style="normal" font-weight="normal" text-decoration="none" x="600" y="570">UNREGISTERED</text><text fill="#eeeeee" stroke="none" font-family="Arial" font-size="24px" font-style="normal" font-weight="normal" text-decoration="none" x="600" y="600">UNREGISTERED</text><text fill="#eeeeee" stroke="none" font-family="Arial" font-size="24px" font-style="normal" font-weight="normal" text-decoration="none" x="800" y="0">UNREGISTERED</text><text fill="#eeeeee" stroke="none" font-family="Arial" font-size="24px" font-style="normal" font-weight="normal" text-decoration="none" x="800" y="30">UNREGISTERED</text><text fill="#eeeeee" stroke="none" font-family="Arial" font-size="24px" font-style="normal" font-weight="normal" text-decoration="none" x="800" y="60">UNREGISTERED</text><text fill="#eeeeee" stroke="none" font-family="Arial" font-size="24px" font-style="normal" font-weight="normal" text-decoration="none" x="800" y="90">UNREGISTERED</text><text fill="#eeeeee" stroke="none" font-family="Arial" font-size="24px" font-style="normal" font-weight="normal" text-decoration="none" x="800" y="120">UNREGISTERED</text><text fill="#eeeeee" stroke="none" font-family="Arial" font-size="24px" font-style="normal" font-weight="normal" text-decoration="none" x="800" y="150">UNREGISTERED</text><text fill="#eeeeee" stroke="none" font-family="Arial" font-size="24px" font-style="normal" font-weight="normal" text-decoration="none" x="800" y="180">UNREGISTERED</text><text fill="#eeeeee" stroke="none" font-family="Arial" font-size="24px" font-style="normal" font-weight="normal" text-decoration="none" x="800" y="210">UNREGISTERED</text><text fill="#eeeeee" stroke="none" font-family="Arial" font-size="24px" font-style="normal" font-weight="normal" text-decoration="none" x="800" y="240">UNREGISTERED</text><text fill="#eeeeee" stroke="none" font-family="Arial" font-size="24px" font-style="normal" font-weight="normal" text-decoration="none" x="800" y="270">UNREGISTERED</text><text fill="#eeeeee" stroke="none" font-family="Arial" font-size="24px" font-style="normal" font-weight="normal" text-decoration="none" x="800" y="300">UNREGISTERED</text><text fill="#eeeeee" stroke="none" font-family="Arial" font-size="24px" font-style="normal" font-weight="normal" text-decoration="none" x="800" y="330">UNREGISTERED</text><text fill="#eeeeee" stroke="none" font-family="Arial" font-size="24px" font-style="normal" font-weight="normal" text-decoration="none" x="800" y="360">UNREGISTERED</text><text fill="#eeeeee" stroke="none" font-family="Arial" font-size="24px" font-style="normal" font-weight="normal" text-decoration="none" x="800" y="390">UNREGISTERED</text><text fill="#eeeeee" stroke="none" font-family="Arial" font-size="24px" font-style="normal" font-weight="normal" text-decoration="none" x="800" y="420">UNREGISTERED</text><text fill="#eeeeee" stroke="none" font-family="Arial" font-size="24px" font-style="normal" font-weight="normal" text-decoration="none" x="800" y="450">UNREGISTERED</text><text fill="#eeeeee" stroke="none" font-family="Arial" font-size="24px" font-style="normal" font-weight="normal" text-decoration="none" x="800" y="480">UNREGISTERED</text><text fill="#eeeeee" stroke="none" font-family="Arial" font-size="24px" font-style="normal" font-weight="normal" text-decoration="none" x="800" y="510">UNREGISTERED</text><text fill="#eeeeee" stroke="none" font-family="Arial" font-size="24px" font-style="normal" font-weight="normal" text-decoration="none" x="800" y="540">UNREGISTERED</text><text fill="#eeeeee" stroke="none" font-family="Arial" font-size="24px" font-style="normal" font-weight="normal" text-decoration="none" x="800" y="570">UNREGISTERED</text><text fill="#eeeeee" stroke="none" font-family="Arial" font-size="24px" font-style="normal" font-weight="normal" text-decoration="none" x="800" y="600">UNREGISTERED</text><g transform="translate(-103,10) scale(1,1)"><path fill="none" stroke="#000000" d="M 152 0 L 1024 0 L 1024 591 L 152 591 L 152 0" stroke-miterlimit="10"/></g><g transform="translate(-103,10) scale(1,1)"><path fill="#ffffff" stroke="none" d="M 152 0 L 152 22 L 267.75341796875 22 L 278.75341796875 11 L 278.75341796875 0 L 152 0"/></g><g transform="translate(-103,10) scale(1,1)"><path fill="none" stroke="#000000" d="M 152 0 L 152 22 L 267.75341796875 22 L 278.75341796875 11 L 278.75341796875 0 L 152 0 L 152 0" stroke-miterlimit="10"/></g><g transform="translate(-103,10) scale(1,1)"><g><path fill="none" stroke="none"/><text fill="#000000" stroke="none" font-family="Arial" font-size="13px" font-style="normal" font-weight="normal" text-decoration="none" x="176.72998046875" y="15.5">athlete_update</text></g></g><g transform="translate(-103,10) scale(1,1)"><g><path fill="none" stroke="none"/><text fill="#000000" stroke="none" font-family="Arial" font-size="13px" font-style="normal" font-weight="bold" text-decoration="none" x="156.279541015625" y="15.5">sd</text></g></g><g transform="translate(-103,10) scale(1,1)"><rect fill="#C0C0C0" stroke="none" x="447" y="47" width="166.34814453125" height="39" opacity="0.2"/></g><g transform="translate(-103,10) scale(1,1)"><rect fill="#ffffff" stroke="none" x="440" y="40" width="166.34814453125" height="39"/></g><g transform="translate(-103,10) scale(1,1)"><path fill="none" stroke="#000000" d="M 440 40 L 606.34814453125 40 L 606.34814453125 79 L 440 79 L 440 40 Z Z" stroke-miterlimit="10"/></g><g transform="translate(-103,10) scale(1,1)"><g><path fill="none" stroke="none"/><text fill="#000000" stroke="none" font-family="Arial" font-size="13px" font-style="normal" font-weight="bold" text-decoration="none" x="449.5" y="57.5">athleteDao: AthleteDAO</text></g></g><g transform="translate(-103,10) scale(1,1)"><path fill="none" stroke="#000000" d="M 524.5 80 L 524.5 536" stroke-miterlimit="10" stroke-dasharray="3"/></g><g transform="translate(-103,10) scale(1,1)"><rect fill="#ffffff" stroke="none" x="144" y="113.5" width="14" height="14"/></g><g transform="translate(-103,10) scale(1,1)"><path fill="none" stroke="#000000" d="M 144 113.5 L 158 113.5 L 158 127.5 L 144 127.5 L 144 113.5 Z Z" stroke-miterlimit="10"/></g><g transform="translate(-103,10) scale(1,1)"><rect fill="#ffffff" stroke="none" x="144" y="488.5" width="14" height="14"/></g><g transform="translate(-103,10) scale(1,1)"><path fill="none" stroke="#000000" d="M 144 488.5 L 158 488.5 L 158 502.5 L 144 502.5 L 144 488.5 Z Z" stroke-miterlimit="10"/></g><g transform="translate(-103,10) scale(1,1)"><rect fill="#ffffff" stroke="none" x="840" y="168.5" width="14" height="14"/></g><g transform="translate(-103,10) scale(1,1)"><path fill="none" stroke="#000000" d="M 840 168.5 L 854 168.5 L 854 182.5 L 840 182.5 L 840 168.5 Z Z" stroke-miterlimit="10"/></g><g transform="translate(-103,10) scale(1,1)"><rect fill="#ffffff" stroke="none" x="840" y="220.5" width="14" height="14"/></g><g transform="translate(-103,10) scale(1,1)"><path fill="none" stroke="#000000" d="M 840 220.5 L 854 220.5 L 854 234.5 L 840 234.5 L 840 220.5 Z Z" stroke-miterlimit="10"/></g><g transform="translate(-103,10) scale(1,1)"><rect fill="#C0C0C0" stroke="none" x="847" y="47" width="171.876953125" height="39" opacity="0.2"/></g><g transform="translate(-103,10) scale(1,1)"><rect fill="#ffffff" stroke="none" x="840" y="40" width="171.876953125" height="39"/></g><g transform="translate(-103,10) scale(1,1)"><path fill="none" stroke="#000000" d="M 840 40 L 1011.876953125 40 L 1011.876953125 79 L 840 79 L 840 40 Z Z" stroke-miterlimit="10"/></g><g transform="translate(-103,10) scale(1,1)"><g><path fill="none" stroke="none"/><text fill="#000000" stroke="none" font-family="Arial" font-size="13px" font-style="normal" font-weight="bold" text-decoration="none" x="849.5" y="57.5">athleteToUpdate: Athlete</text></g></g><g transform="translate(-103,10) scale(1,1)"><path fill="none" stroke="#000000" d="M 926.5 80 L 926.5 508" stroke-miterlimit="10" stroke-dasharray="3"/></g><g transform="translate(-103,10) scale(1,1)"><rect fill="#C0C0C0" stroke="none" x="239" y="47" width="175.0380859375" height="39" opacity="0.2"/></g><g transform="translate(-103,10) scale(1,1)"><rect fill="#ffffff" stroke="none" x="232" y="40" width="175.0380859375" height="39"/></g><g transform="translate(-103,10) scale(1,1)"><path fill="none" stroke="#000000" d="M 232 40 L 407.0380859375 40 L 407.0380859375 79 L 232 79 L 232 40 Z Z" stroke-miterlimit="10"/></g><g transform="translate(-103,10) scale(1,1)"><g><path fill="none" stroke="none"/><text fill="#000000" stroke="none" font-family="Arial" font-size="13px" font-style="normal" font-weight="bold" text-decoration="none" x="241.5" y="57.5">singleton: AthleteService</text></g></g><g transform="translate(-103,10) scale(1,1)"><path fill="none" stroke="#000000" d="M 320.5 80 L 320.5 568" stroke-miterlimit="10" stroke-dasharray="3"/></g><g transform="translate(-103,10) scale(1,1)"><path fill="none" stroke="#000000" d="M 158 121 L 313 121" stroke-miterlimit="10"/></g><g transform="translate(-103,10) scale(1,1)"><path fill="#000000" stroke="none" d="M 302.83732514237585 125.20951775601598 L 313 121 L 302.83732514237585 116.79048224398402"/></g><g transform="translate(-103,10) scale(1,1)"><path fill="none" stroke="#000000" d="M 302.83732514237585 125.20951775601598 L 313 121 L 302.83732514237585 116.79048224398402 L 302.83732514237585 125.20951775601598" stroke-miterlimit="10"/></g><g transform="translate(-103,10) scale(1,1)"><g><path fill="none" stroke="none"/><text fill="#000000" stroke="none" font-family="Arial" font-size="13px" font-style="normal" font-weight="normal" text-decoration="none" x="159.11083984375" y="115.5">1 : athlete_update(athlete)</text></g></g><g transform="translate(-103,10) scale(1,1)"><rect fill="#ffffff" stroke="none" x="313" y="121" width="13" height="28"/></g><g transform="translate(-103,10) scale(1,1)"><path fill="none" stroke="#000000" d="M 313 121 L 326 121 L 326 149 L 313 149 L 313 121 Z Z" stroke-miterlimit="10"/></g><g transform="translate(-103,10) scale(1,1)"><path fill="none" stroke="#000000" d="M 326 136 L 517 136" stroke-miterlimit="10"/></g><g transform="translate(-103,10) scale(1,1)"><path fill="#000000" stroke="none" d="M 506.83732514237585 140.209517756016 L 517 136 L 506.83732514237585 131.790482243984"/></g><g transform="translate(-103,10) scale(1,1)"><path fill="none" stroke="#000000" d="M 506.83732514237585 140.209517756016 L 517 136 L 506.83732514237585 131.790482243984 L 506.83732514237585 140.209517756016" stroke-miterlimit="10"/></g><g transform="translate(-103,10) scale(1,1)"><g><path fill="none" stroke="none"/><text fill="#000000" stroke="none" font-family="Arial" font-size="13px" font-style="normal" font-weight="normal" text-decoration="none" x="341.5" y="130.5">2 : athlete = update(athlete)</text></g></g><g transform="translate(-103,10) scale(1,1)"><rect fill="#ffffff" stroke="none" x="517" y="136" width="13" height="28"/></g><g transform="translate(-103,10) scale(1,1)"><path fill="none" stroke="#000000" d="M 517 136 L 530 136 L 530 164 L 517 164 L 517 136 Z Z" stroke-miterlimit="10"/></g><g transform="translate(-103,10) scale(1,1)"><path fill="none" stroke="#000000" d="M 524 176 L 840 176" stroke-miterlimit="10"/></g><g transform="translate(-103,10) scale(1,1)"><path fill="#000000" stroke="none" d="M 829.8373251423759 180.209517756016 L 840 176 L 829.8373251423758 171.790482243984"/></g><g transform="translate(-103,10) scale(1,1)"><path fill="none" stroke="#000000" d="M 829.8373251423759 180.209517756016 L 840 176 L 829.8373251423758 171.790482243984 L 829.8373251423759 180.209517756016" stroke-miterlimit="10"/></g><g transform="translate(-103,10) scale(1,1)"><g><path fill="none" stroke="none"/><text fill="#000000" stroke="none" font-family="Arial" font-size="13px" font-style="normal" font-weight="normal" text-decoration="none" x="532.292236328125" y="170.5">3 : athleteToUpdate = athlete_find(athlete.getName)</text></g></g><g transform="translate(-103,10) scale(1,1)"><path fill="none" stroke="#000000" d="M 840 228 L 524 228" stroke-miterlimit="10" stroke-dasharray="3"/></g><g transform="translate(-103,10) scale(1,1)"><path fill="none" stroke="#000000" d="M 534.1626748576241 223.790482243984 L 524 228 L 534.1626748576241 232.209517756016" stroke-miterlimit="10"/></g><g transform="translate(-103,10) scale(1,1)"><g><path fill="none" stroke="none"/><text fill="#000000" stroke="none" font-family="Arial" font-size="13px" font-style="normal" font-weight="normal" text-decoration="none" x="647.5" y="242.5">4 : return</text></g></g><g transform="translate(-103,10) scale(1,1)"><rect fill="#ffffff" stroke="none" x="848" y="120" width="240" height="128"/></g><g transform="translate(-103,10) scale(1,1)"><path fill="none" stroke="#000000" d="M 848 120 L 1088 120 L 1088 248 L 848 248 L 848 120 Z Z" stroke-miterlimit="10"/></g><g transform="translate(-103,10) scale(1,1)"><path fill="none" stroke="#000000" d="M 848 120 L 848 142 L 873.1708984375 142 L 884.1708984375 131 L 884.1708984375 120 L 848 120 L 848 120" stroke-miterlimit="10"/></g><g transform="translate(-103,10) scale(1,1)"><g><path fill="none" stroke="none"/><text fill="#000000" stroke="none" font-family="Arial" font-size="13px" font-style="normal" font-weight="normal" text-decoration="none" x="952.474609375" y="135.5">athlete_find</text></g></g><g transform="translate(-103,10) scale(1,1)"><g><path fill="none" stroke="none"/><text fill="#000000" stroke="none" font-family="Arial" font-size="13px" font-style="normal" font-weight="bold" text-decoration="none" x="852.2763671875" y="135.5">ref</text></g></g><g transform="translate(-103,10) scale(1,1)"><path fill="none" stroke="#000000" d="M 524 280 L 919 280" stroke-miterlimit="10"/></g><g transform="translate(-103,10) scale(1,1)"><path fill="#000000" stroke="none" d="M 908.8373251423759 284.209517756016 L 919 280 L 908.8373251423758 275.790482243984"/></g><g transform="translate(-103,10) scale(1,1)"><path fill="none" stroke="#000000" d="M 908.8373251423759 284.209517756016 L 919 280 L 908.8373251423758 275.790482243984 L 908.8373251423759 284.209517756016" stroke-miterlimit="10"/></g><g transform="translate(-103,10) scale(1,1)"><g><path fill="none" stroke="none"/><text fill="#000000" stroke="none" font-family="Arial" font-size="13px" font-style="normal" font-weight="normal" text-decoration="none" x="639.24853515625" y="274.5">5 : setSexe(athlete.getSexe)</text></g></g><g transform="translate(-103,10) scale(1,1)"><rect fill="#ffffff" stroke="none" x="919" y="280" width="13" height="28"/></g><g transform="translate(-103,10) scale(1,1)"><path fill="none" stroke="#000000" d="M 919 280 L 932 280 L 932 308 L 919 308 L 919 280 Z Z" stroke-miterlimit="10"/></g><g transform="translate(-103,10) scale(1,1)"><path fill="none" stroke="#000000" d="M 524 328 L 919 328" stroke-miterlimit="10"/></g><g transform="translate(-103,10) scale(1,1)"><path fill="#000000" stroke="none" d="M 908.8373251423759 332.209517756016 L 919 328 L 908.8373251423758 323.790482243984"/></g><g transform="translate(-103,10) scale(1,1)"><path fill="none" stroke="#000000" d="M 908.8373251423759 332.209517756016 L 919 328 L 908.8373251423758 323.790482243984 L 908.8373251423759 332.209517756016" stroke-miterlimit="10"/></g><g transform="translate(-103,10) scale(1,1)"><g><path fill="none" stroke="none"/><text fill="#000000" stroke="none" font-family="Arial" font-size="13px" font-style="normal" font-weight="normal" text-decoration="none" x="637.24853515625" y="322.5">6 : setNom(athlete.getName)</text></g></g><g transform="translate(-103,10) scale(1,1)"><rect fill="#ffffff" stroke="none" x="919" y="328" width="13" height="28"/></g><g transform="translate(-103,10) scale(1,1)"><path fill="none" stroke="#000000" d="M 919 328 L 932 328 L 932 356 L 919 356 L 919 328 Z Z" stroke-miterlimit="10"/></g><g transform="translate(-103,10) scale(1,1)"><path fill="none" stroke="#000000" d="M 524 375 L 919 375" stroke-miterlimit="10"/></g><g transform="translate(-103,10) scale(1,1)"><path fill="#000000" stroke="none" d="M 908.8373251423759 379.209517756016 L 919 375 L 908.8373251423758 370.790482243984"/></g><g transform="translate(-103,10) scale(1,1)"><path fill="none" stroke="#000000" d="M 908.8373251423759 379.209517756016 L 919 375 L 908.8373251423758 370.790482243984 L 908.8373251423759 379.209517756016" stroke-miterlimit="10"/></g><g transform="translate(-103,10) scale(1,1)"><g><path fill="none" stroke="none"/><text fill="#000000" stroke="none" font-family="Arial" font-size="13px" font-style="normal" font-weight="normal" text-decoration="none" x="645.24853515625" y="369.5">7 : setAge(athlete.getAge)</text></g></g><g transform="translate(-103,10) scale(1,1)"><rect fill="#ffffff" stroke="none" x="919" y="375" width="13" height="28"/></g><g transform="translate(-103,10) scale(1,1)"><path fill="none" stroke="#000000" d="M 919 375 L 932 375 L 932 403 L 919 403 L 919 375 Z Z" stroke-miterlimit="10"/></g><g transform="translate(-103,10) scale(1,1)"><path fill="none" stroke="#000000" d="M 524 421 L 919 421" stroke-miterlimit="10"/></g><g transform="translate(-103,10) scale(1,1)"><path fill="#000000" stroke="none" d="M 908.8373251423759 425.209517756016 L 919 421 L 908.8373251423758 416.790482243984"/></g><g transform="translate(-103,10) scale(1,1)"><path fill="none" stroke="#000000" d="M 908.8373251423759 425.209517756016 L 919 421 L 908.8373251423758 416.790482243984 L 908.8373251423759 425.209517756016" stroke-miterlimit="10"/></g><g transform="translate(-103,10) scale(1,1)"><g><path fill="none" stroke="none"/><text fill="#000000" stroke="none" font-family="Arial" font-size="13px" font-style="normal" font-weight="normal" text-decoration="none" x="636.24853515625" y="415.5">8 : setPoids(athlete.getPoids)</text></g></g><g transform="translate(-103,10) scale(1,1)"><rect fill="#ffffff" stroke="none" x="919" y="421" width="13" height="28"/></g><g transform="translate(-103,10) scale(1,1)"><path fill="none" stroke="#000000" d="M 919 421 L 932 421 L 932 449 L 919 449 L 919 421 Z Z" stroke-miterlimit="10"/></g><g transform="translate(-103,10) scale(1,1)"><path fill="none" stroke="#000000" d="M 524 466 L 919 466" stroke-miterlimit="10"/></g><g transform="translate(-103,10) scale(1,1)"><path fill="#000000" stroke="none" d="M 908.8373251423759 470.209517756016 L 919 466 L 908.8373251423758 461.790482243984"/></g><g transform="translate(-103,10) scale(1,1)"><path fill="none" stroke="#000000" d="M 908.8373251423759 470.209517756016 L 919 466 L 908.8373251423758 461.790482243984 L 908.8373251423759 470.209517756016" stroke-miterlimit="10"/></g><g transform="translate(-103,10) scale(1,1)"><g><path fill="none" stroke="none"/><text fill="#000000" stroke="none" font-family="Arial" font-size="13px" font-style="normal" font-weight="normal" text-decoration="none" x="639.24853515625" y="460.5">9 : setTaille(athlete.getTaille)</text></g></g><g transform="translate(-103,10) scale(1,1)"><rect fill="#ffffff" stroke="none" x="919" y="466" width="13" height="28"/></g><g transform="translate(-103,10) scale(1,1)"><path fill="none" stroke="#000000" d="M 919 466 L 932 466 L 932 494 L 919 494 L 919 466 Z Z" stroke-miterlimit="10"/></g><g transform="translate(-103,10) scale(1,1)"><path fill="none" stroke="#000000" d="M 524 496 L 158 496" stroke-miterlimit="10" stroke-dasharray="3"/></g><g transform="translate(-103,10) scale(1,1)"><path fill="none" stroke="#000000" d="M 168.16267485762415 491.790482243984 L 158 496 L 168.16267485762415 500.209517756016" stroke-miterlimit="10"/></g><g transform="translate(-103,10) scale(1,1)"><g><path fill="none" stroke="none"/><text fill="#000000" stroke="none" font-family="Arial" font-size="13px" font-style="normal" font-weight="normal" text-decoration="none" x="258.5" y="510.5">10 : return(athleteToUpdate)</text></g></g></g></svg>